<svg width="200" height="47" viewBox="0 0 200 47" fill="none" xmlns="http://www.w3.org/2000/svg">
<g clip-path="url(#clip0_740_43)">
<path d="M53.8169 20.1802V6.73047H33.6333L26.9066 13.4535L20.18 6.73047H0V20.1802L6.73027 26.9068L0 33.6335V47.0002H20.18L26.9066 40.2699L33.6333 47.0002H53.8169V33.6335L47.0866 26.9068L53.8169 20.1802Z" fill="#EC1D24"/>
<path d="M40.8908 38.9888L33.6336 31.728L26.3765 38.9888H8.01172V27.4373L15.2653 20.1801L8.01172 12.923V1.28125H26.3765L33.6336 8.53839L40.8908 1.28125H59.2592V12.923L52.002 20.1801L59.2592 27.4373V38.9888H40.8908Z" fill="white"/>
<path d="M57.9776 2.56219V12.3924L52.0016 18.3684L50.172 20.1728L52.0016 22.0132L57.9776 27.9676V37.7111H41.4244L35.4448 31.7315L33.6404 29.9019L31.8108 31.7315L25.8456 37.7075H9.28876V27.964L15.2648 21.9916L17.0692 20.1619L15.2648 18.3576L9.28876 12.3924V2.56219H25.8456L31.8216 8.53824L33.6512 10.3426L35.4556 8.53824L41.4244 2.56219H57.9776ZM60.5398 0H40.3599L33.6332 6.72666L26.9065 0H6.72656V13.4533L13.4532 20.18L6.72656 26.9066V40.2589H26.9065L33.6332 33.5611L40.3599 40.2878H60.5398V26.9355L53.8168 20.18L60.5398 13.4533V0Z" fill="#EC1D24"/>
<path d="M25.95 18.2998H22.2764V21.9735H25.95V18.2998Z" fill="black"/>
<path d="M35.4735 18.2998H31.7998V21.9735H35.4735V18.2998Z" fill="black"/>
<path d="M44.994 18.2998H41.3203V21.9735H44.994V18.2998Z" fill="black"/>
<path d="M44.994 18.2998H41.3203V21.9735H44.994V18.2998Z" fill="black"/>
<path d="M73.7985 11.1508C73.7985 7.50959 76.3102 5.43457 79.4173 5.43457C80.7453 5.46344 82.012 5.97227 82.9575 6.85641L81.2938 8.62829C80.7886 8.17359 80.1174 7.92098 79.4173 7.92459C78.0063 7.92459 76.9092 9.09742 76.9092 11.0714C76.9092 13.0454 78.0063 14.2435 79.5617 14.2435C80.287 14.2146 80.9655 13.9006 81.4382 13.3774L83.0982 15.1132C82.1383 16.1741 80.7201 16.7623 79.2441 16.719C76.3752 16.701 73.7949 14.8606 73.7949 11.1508H73.7985Z" fill="black"/>
<path d="M86.884 13.0561V7.10527H84.21V4.86426H89.9081V13.1643C89.8432 13.7886 90.3267 14.3408 90.9835 14.4021C91.0665 14.4093 91.1495 14.4093 91.2325 14.4021C91.6656 14.3913 92.0986 14.3119 92.5028 14.1675L93.1596 16.2714C92.2791 16.5601 91.3516 16.7081 90.417 16.7081C88.0857 16.7009 86.8804 15.2285 86.8804 13.0561H86.884Z" fill="black"/>
<path d="M94.8739 12.3235C94.643 9.9417 96.4979 7.83421 99.0203 7.61768C101.539 7.40116 103.769 9.155 104 11.5368C104.026 11.8002 104.026 12.0636 104 12.3271C104.231 14.7088 102.376 16.8163 99.854 17.0328C97.3351 17.2494 95.1049 15.4955 94.8739 13.1138C94.8487 12.8503 94.8487 12.5869 94.8739 12.3235ZM100.886 12.3235C100.886 11.0532 100.464 10.2448 99.4353 10.2448C98.4069 10.2448 97.9738 11.0532 97.9738 12.3235C97.9738 13.5937 98.3924 14.3949 99.4209 14.3949C100.449 14.3949 100.886 13.5901 100.886 12.3235Z" fill="black"/>
<path d="M105.721 13.2872V8.14111H108.774V12.9227C108.774 13.8609 108.987 14.2579 109.781 14.2579C110.297 14.2579 110.647 14.128 111.109 13.5362V8.14111H114.162V16.4989H111.686L111.473 15.4163H111.405C110.712 16.2463 109.655 16.7263 108.536 16.719C106.54 16.701 105.714 15.3766 105.714 13.2872H105.721Z" fill="black"/>
<path d="M116.092 12.3236C116.092 9.58096 117.933 7.92817 119.788 7.92817C120.578 7.90291 121.343 8.21687 121.856 8.78705H121.924L121.787 7.57812V4.87158H124.84V16.4989H122.364L122.152 15.7302H122.083C121.473 16.3112 120.658 16.6577 119.791 16.701C117.54 16.701 116.089 15.0265 116.089 12.3236H116.092ZM121.791 13.7671V10.6816C121.473 10.411 121.054 10.2702 120.625 10.2847C119.882 10.2847 119.207 10.8188 119.207 12.2875C119.207 13.7563 119.723 14.3625 120.589 14.3625C121.076 14.3878 121.538 14.1532 121.787 13.7563V13.7671H121.791Z" fill="black"/>
<path d="M127.023 17.3003H135.508V19.4042H127.023V17.3003Z" fill="black"/>
<path d="M137.633 5.6333H140.707L142.642 10.4654L143.58 12.9085H143.649C143.428 11.5372 143.284 10.1586 143.219 8.77289V5.6333H146.113V16.4992H143.06L141.126 11.6346L140.213 9.20954H140.141C140.35 10.5845 140.487 11.9666 140.549 13.3524V16.4919H137.647L137.633 5.6333V5.6333Z" fill="black"/>
<path d="M148.134 14.1279C148.134 12.2514 149.686 11.2842 153.721 11.0858C153.613 10.4795 153.013 10.2125 152.021 10.2125C151.281 10.2125 150.538 10.447 149.477 10.9162L148.416 9.04684C149.701 8.33592 151.155 7.95701 152.642 7.93896C155.153 7.93896 156.781 9.1118 156.781 11.8544V16.4989H154.284L154.074 15.6292H154.002C153.147 16.2823 152.097 16.6612 150.996 16.7118C149.156 16.7009 148.131 15.4956 148.131 14.1279H148.134ZM153.721 13.8609V12.7783C151.563 12.8468 151.047 13.3124 151.047 13.8609C151.047 14.2217 151.368 14.4599 152.003 14.4599C152.631 14.4419 153.234 14.2326 153.721 13.8609V13.8609Z" fill="black"/>
<path d="M160.664 12.9554V10.3932H158.542V8.24602L160.801 8.14136L161.184 5.6333H163.692V8.15941H167.178V10.4004H163.692V12.9265C163.692 14.1138 164.276 14.4819 165.406 14.4819C165.954 14.4747 166.496 14.3845 167.012 14.2148L167.535 16.2646C166.579 16.5425 165.586 16.6868 164.587 16.7013C161.714 16.7013 160.66 15.1964 160.66 12.9554H160.664Z" fill="black"/>
<path d="M173.064 10.3821H169.704V8.14111H176.106V16.4989H173.053L173.064 10.3821Z" fill="black"/>
<path d="M179.433 8.14111H182.486L183.63 11.804C183.893 12.6412 184.106 13.5073 184.355 14.4131H184.424C184.673 13.5073 184.886 12.6412 185.149 11.804L186.293 8.15916H189.195L186.116 16.517H182.63L179.426 8.14111H179.433Z" fill="black"/>
<path d="M190.498 12.3236C190.444 9.95624 192.425 7.9967 194.926 7.93896H195.142C197.943 7.93896 199.343 9.74333 199.343 11.9843C199.336 12.3885 199.292 12.7927 199.22 13.1897H192.797V11.3203H197.131L196.701 11.8219C196.701 10.7393 196.243 10.115 195.254 10.115C194.11 10.115 193.45 10.8187 193.45 12.3127C193.45 13.8825 194.262 14.5068 195.889 14.5068C196.629 14.4924 197.354 14.3228 198.011 14.0052L198.985 15.741C197.917 16.3545 196.698 16.6901 195.449 16.7118C192.649 16.7009 190.494 15.0951 190.494 12.3236H190.498Z" fill="black"/>
<path d="M176.102 3.55811H172.804V6.67604H176.102V3.55811Z" fill="black"/>
<path d="M73.9502 25.687H77.9775C80.316 25.687 82.308 26.4954 82.308 29.1983C82.308 31.9012 80.3015 32.9117 77.9775 32.9117H76.8047V36.5529H73.9502V25.687V25.687ZM77.7935 30.6382C78.9338 30.6382 79.5329 30.1366 79.5329 29.1947C79.5329 28.2528 78.9338 27.9569 77.7935 27.9569H76.8047V30.6382H77.7935ZM79.4174 30.2773L82.9431 36.5745H79.753L77.494 32.1827L79.4174 30.2773V30.2773Z" fill="black"/>
<path d="M83.8343 32.3772C83.7766 30.0098 85.6459 28.0431 88.0132 27.9854C88.0132 27.9854 88.0168 27.9854 88.0204 27.9854H88.2261C90.8677 27.9854 92.1957 29.7897 92.1957 32.0091C92.1885 32.4133 92.1488 32.8174 92.0802 33.2144H85.9995V31.3739H90.0774L89.6913 31.8756C89.6913 30.7929 89.2618 30.1686 88.3236 30.1686C87.2229 30.1686 86.6166 30.8904 86.6166 32.3663C86.6166 33.9361 87.3853 34.5641 88.9226 34.5641C89.6227 34.5496 90.3156 34.38 90.9399 34.0624L91.8782 35.7658C90.8713 36.3792 89.7165 36.7149 88.5365 36.7365C85.8624 36.7545 83.8343 35.1451 83.8343 32.3772V32.3772Z" fill="black"/>
<path d="M93.6357 39.1291L94.4549 37.0866C94.9637 37.3212 95.5159 37.4439 96.0752 37.4475C97.0929 37.4475 97.4285 37.0144 97.4285 35.8777V30.4357H94.2528V28.1875H100.323V35.7658C100.323 37.8047 99.453 39.6777 96.2954 39.6777C95.3788 39.6957 94.4694 39.5081 93.6357 39.1291V39.1291Z" fill="black"/>
<path d="M103.877 32.3772C103.82 30.0098 105.689 28.0431 108.056 27.9854C108.056 27.9854 108.06 27.9854 108.063 27.9854H108.262C110.9 27.9854 112.231 29.7897 112.231 32.0091C112.224 32.4133 112.185 32.8174 112.116 33.2144H106.053V31.3739H110.131L109.727 31.8756C109.727 30.7929 109.298 30.1686 108.359 30.1686C107.277 30.1686 106.652 30.8904 106.652 32.3663C106.652 33.9361 107.421 34.5641 108.958 34.5641C109.655 34.5496 110.34 34.3764 110.965 34.0624L111.903 35.7658C110.896 36.3828 109.741 36.7149 108.561 36.7365C105.916 36.7545 103.877 35.1451 103.877 32.3772V32.3772Z" fill="black"/>
<path d="M114.141 24.918H117.028V31.1719H117.093L119.619 28.1875H122.729L117.017 34.5136V36.5525H114.13L114.141 24.918V24.918ZM117.717 33.0087L119.344 31.2368L122.921 36.5525H119.81L117.717 33.0087Z" fill="black"/>
<path d="M125.807 33.009V30.4468H123.801V28.2815L125.934 28.1697L126.294 25.6436H128.665V28.1697H131.96V30.4107H128.665V32.9368C128.665 34.1241 129.217 34.4921 130.289 34.4921C130.805 34.4885 131.321 34.3983 131.809 34.2251L132.31 36.2965C131.412 36.5744 130.477 36.7187 129.535 36.7332C126.81 36.7548 125.807 35.25 125.807 33.009Z" fill="black"/>
<path d="M133.884 35.4844L135.078 33.7125C136.078 34.3115 137.218 34.6327 138.384 34.6436C139.106 34.6436 139.42 34.4451 139.42 34.1419C139.42 33.7414 138.983 33.6764 137.586 33.3733C135.28 32.8753 134.443 32.002 134.443 30.6992C134.443 29.0645 135.998 27.9927 138.413 27.9927C139.734 28.0215 141.022 28.4257 142.119 29.1619L140.849 30.8688C140.029 30.3853 139.098 30.1182 138.146 30.1002C137.612 30.1002 137.272 30.2662 137.272 30.5657C137.272 30.9266 137.709 30.9663 139.012 31.2874C141.52 31.854 142.26 32.6082 142.26 33.994C142.26 35.5638 140.773 36.7691 137.98 36.7691C136.522 36.7258 135.104 36.2819 133.884 35.4844V35.4844Z" fill="black"/>
<path d="M100.302 23.6118H97.1836V26.7298H100.302V23.6118Z" fill="black"/>
<path d="M152.288 27.4805H156.258V28.6497H153.984V37.4875H156.258V38.6603H152.288V27.4805V27.4805Z" fill="#EC1D24"/>
<path d="M195.527 37.4875H197.79V28.6497H195.527V27.4805H199.497V38.6675H195.527V37.4875V37.4875Z" fill="#EC1D24"/>
<path d="M177.437 28.1987H174.319V31.3167H177.437V28.1987Z" fill="#EC1D24"/>
<path d="M179.809 35.5895C182.187 33.5938 183.778 32.1864 183.778 30.9919C183.778 30.1908 183.277 29.7506 182.411 29.7506C181.747 29.7506 181.209 30.1547 180.74 30.5914L179.715 29.5521C180.458 28.6968 181.544 28.2168 182.678 28.2385C184.424 28.2385 185.612 29.285 185.612 30.8837C185.612 32.2803 184.168 33.7707 182.566 35.1672C183.042 35.1203 183.648 35.077 184.074 35.077H186.041V36.6901H179.809V35.5895V35.5895Z" fill="#EC1D24"/>
<path d="M187.654 35.5895C190.032 33.5938 191.623 32.1864 191.623 30.9919C191.623 30.1908 191.125 29.7506 190.256 29.7506C189.592 29.7506 189.054 30.1547 188.585 30.5914L187.553 29.5521C188.296 28.6968 189.382 28.2168 190.516 28.2385C192.262 28.2385 193.449 29.285 193.449 30.8837C193.449 32.2803 192.006 33.7707 190.407 35.1672C190.88 35.1203 191.49 35.077 191.912 35.077H193.879V36.6901H187.654V35.5895V35.5895Z" fill="#EC1D24"/>
<path d="M157.767 28.2346H160.029L161.451 32.0057L162.14 33.9003H162.184C162.021 32.8321 161.92 31.7567 161.873 30.6741V28.231H164.013V36.679H161.751L160.332 32.897L159.64 31.0133H159.589C159.751 32.0815 159.856 33.1569 159.903 34.2359V36.6826H157.77V28.2346H157.767Z" fill="#EC1D24"/>
<path d="M170.599 36.6824H172.985L170.423 28.2344H167.72L165.172 36.6896H167.46L167.875 34.8889H170.184L170.596 36.6824H170.599ZM168.275 33.1603L168.409 32.5829C168.593 31.7781 168.813 30.7641 168.994 29.9052H169.044C169.224 30.7533 169.473 31.7781 169.654 32.5829L169.787 33.1603H168.272H168.275Z" fill="#EC1D24"/>
</g>
<defs>
<clipPath id="clip0_740_43">
<rect width="199.497" height="47" fill="white"/>
</clipPath>
</defs>
</svg>
