<?xml version="1.0" encoding="utf-8"?>
<!-- Generator: Adobe Illustrator 21.1.0, SVG Export Plug-In . SVG Version: 6.00 Build 0)  -->
<svg version="1.1" id="Layer_1" xmlns="http://www.w3.org/2000/svg" xmlns:xlink="http://www.w3.org/1999/xlink" x="0px" y="0px"
	 viewBox="0 0 176 128" style="enable-background:new 0 0 176 128;" xml:space="preserve">
<style type="text/css">
	.st0{fill:#221F1F;}
	.st1{fill:#010101;}
</style>
<g>
	<path class="st0" d="M60.8,67.1l-0.1,6.1H44.3V72c1.1,0,1.9-0.2,2.2-0.5c0.3-0.3,0.5-0.9,0.5-1.7V58.2c0-0.5-0.1-0.9-0.2-1.2
		c-0.1-0.3-0.4-0.5-0.8-0.7c-0.4-0.2-1-0.2-1.8-0.2v-1.2h9.3v1.2c-0.8,0-1.4,0.1-1.7,0.2c-0.4,0.2-0.7,0.4-0.8,0.7
		c-0.1,0.3-0.2,0.7-0.2,1.3v10.6c0,0.8,0,1.4,0.1,1.8c0.1,0.4,0.3,0.6,0.7,0.8c0.4,0.2,1,0.3,1.8,0.3c1,0,2-0.1,2.7-0.2
		c0.8-0.2,1.5-0.6,2.2-1.3c0.7-0.7,1.1-1.7,1.2-3.1H60.8z"/>
	<path class="st0" d="M107,56.1c-0.9,0-1.5,0.1-1.9,0.3c-0.4,0.2-0.6,0.4-0.7,0.8c-0.1,0.3-0.1,0.9-0.1,1.7v14.6H103L91,59.1v10.1
		c0,0.8,0,1.3,0.1,1.7c0.1,0.3,0.3,0.6,0.7,0.8c0.4,0.2,1,0.3,1.9,0.3v1.2h-6.8V72c0.8,0,1.4-0.1,1.8-0.3c0.4-0.2,0.6-0.5,0.7-0.8
		c0.1-0.3,0.1-0.9,0.1-1.7v-9.4c0-0.8,0-1.3-0.1-1.7c0-0.4-0.1-0.7-0.3-1c-0.2-0.3-0.4-0.5-0.8-0.7c-0.3-0.2-0.8-0.3-1.4-0.4v-1.2
		h5.4l10.5,12.4v-8.4c0-0.7,0-1.2-0.1-1.6c-0.1-0.4-0.3-0.6-0.7-0.8c-0.4-0.2-1-0.3-1.8-0.3v-1.2h6.9V56.1z"/>
	<path class="st0" d="M132.9,67.2l-0.1,6.1h-16.4V72c1.1,0,1.9-0.2,2.2-0.5c0.3-0.3,0.5-0.9,0.5-1.7V58.2c0-0.5-0.1-0.9-0.2-1.2
		c-0.1-0.3-0.3-0.5-0.7-0.7c-0.4-0.2-1-0.3-1.8-0.3v-1.2h15.3l0.2,4.8h-1.2c-0.3-1.1-0.6-1.8-1-2.3c-0.4-0.5-0.8-0.7-1.2-0.8
		c-0.5-0.1-1.1-0.2-2.1-0.2H123v6.5h1.9c0.6,0,1.1-0.1,1.4-0.2c0.3-0.1,0.5-0.3,0.7-0.6c0.1-0.3,0.2-0.8,0.3-1.5h1.3v6.1h-1.2
		c0-0.7-0.1-1.2-0.3-1.5c-0.1-0.3-0.4-0.5-0.7-0.6c-0.3-0.1-0.8-0.2-1.4-0.2H123v4.3c0,0.7,0,1.3,0.1,1.6c0,0.3,0.1,0.6,0.3,0.8
		c0.2,0.2,0.4,0.4,0.8,0.5c0.4,0.1,0.9,0.1,1.5,0.1h1.5c0.6,0,1.2-0.1,1.8-0.2c0.6-0.2,1.1-0.6,1.7-1.2c0.5-0.7,0.9-1.7,1.1-3.1
		H132.9z"/>
	<polygon class="st1" points="87.2,24.3 87.2,25.7 155,25.7 155,102.3 21,102.3 21,25.7 73.1,25.7 73.1,73.3 74.4,73.3 74.4,24.3 
		19.7,24.3 19.7,103.7 156.3,103.7 156.3,24.3 	"/>
</g>
</svg>
