<?xml version="1.0" encoding="UTF-8" standalone="no"?>
<svg
   width="16"
   height="36"
   viewBox="0 0 16 36"
   fill="none"
   version="1.1"
   id="svg1"
   sodipodi:docname="about-close.svg"
   inkscape:version="1.4.3 (0d15f75042, 2025-12-25)"
   xmlns:inkscape="http://www.inkscape.org/namespaces/inkscape"
   xmlns:sodipodi="http://sodipodi.sourceforge.net/DTD/sodipodi-0.dtd"
   xmlns="http://www.w3.org/2000/svg"
   xmlns:svg="http://www.w3.org/2000/svg">
  <defs
     id="defs1" />
  <sodipodi:namedview
     id="namedview1"
     pagecolor="#ffffff"
     bordercolor="#000000"
     borderopacity="0.25"
     inkscape:showpageshadow="2"
     inkscape:pageopacity="0.0"
     inkscape:pagecheckerboard="0"
     inkscape:deskcolor="#d1d1d1"
     inkscape:zoom="32.083333"
     inkscape:cx="8.0103896"
     inkscape:cy="18"
     inkscape:window-width="2560"
     inkscape:window-height="1363"
     inkscape:window-x="0"
     inkscape:window-y="0"
     inkscape:window-maximized="1"
     inkscape:current-layer="svg1" />
  <path
     d="m 10.8,29.24 c 0,-0.6933 -0.01333,-1.3067 -0.04,-1.84 -0.05333,-0.5333 -0.10667,-1.04 -0.16,-1.52 -0.05333,-0.48 -0.09333,-0.96 -0.12,-1.44 -0.05333,-0.5067 -0.08,-1.0667 -0.08,-1.68 0,-0.3467 0.09333,-0.68 0.28,-1 0.16,-0.3467 0.44,-0.6533 0.84,-0.92 0.4,-0.2667 0.94667,-0.48 1.64,-0.64 0.69333,-0.1867 1.56,-0.2933 2.6,-0.32 v -4 C 14.72,15.8533 13.85333,15.76 13.16,15.6 12.46667,15.4133 11.92,15.1867 11.52,14.92 11.12,14.6533 10.84,14.36 10.68,14.04 10.49333,13.6933 10.4,13.3467 10.4,13 c 0,-0.6133 0.02667,-1.16 0.08,-1.64 0.02667,-0.5067 0.06667,-1 0.12,-1.48 C 10.65333,9.4 10.70667,8.89333 10.76,8.36 10.78667,7.82667 10.8,7.21333 10.8,6.52 10.8,5.42666 10.65333,4.50666 10.36,3.76 10.06667,3.01333 9.6133301,2.41333 9.0000001,1.96 8.3866701,1.50667 7.6133301,1.18667 6.6800001,0.999998 5.7467001,0.786666 4.6267001,0.68 3.3200001,0.68 H 5.96046e-8 v 3.6 H 1.4800001 c 0.7733,0 1.4,0.04 1.88,0.12 0.48,0.05333 0.8533,0.17333 1.12,0.36 0.2667,0.16 0.4533,0.41333 0.56,0.76 0.1067,0.32 0.16,0.73333 0.16,1.24 0,1.01333 -0.0267,2.01333 -0.08,3 -0.0533,0.9867 -0.08,2.0667 -0.08,3.24 0,1.6 0.3333,2.7467 1,3.44 0.64,0.6667 1.69333,1.12 3.16,1.36 v 0.16 c -1.46667,0.24 -2.52,0.7067 -3.16,1.4 -0.6667,0.6667 -1,1.8 -1,3.4 0,1.1733 0.0267,2.2533 0.08,3.24 0.0533,0.9867 0.08,1.9867 0.08,3 0,0.5333 -0.0533,0.96 -0.16,1.28 -0.1067,0.32 -0.2933,0.56 -0.56,0.72 -0.2667,0.1867 -0.64,0.3067 -1.12,0.36 -0.48,0.08 -1.1067,0.12 -1.88,0.12 H 5.96046e-8 v 3.6 H 3.3200001 c 1.3067,0 2.4267,-0.1067 3.36,-0.32 0.93333,-0.1867 1.70667,-0.5067 2.32,-0.96 C 9.6133301,33.3467 10.06667,32.7467 10.36,32 10.65333,31.2533 10.8,30.3333 10.8,29.24 Z"
     fill="#ff0000"
     id="path1" />
</svg>
