<?xml version="1.0" encoding="utf-8"?>
<!-- Generator: Adobe Illustrator 24.0.3, SVG Export Plug-In . SVG Version: 6.00 Build 0)  -->
<svg version="1.1" id="Layer_1" xmlns="http://www.w3.org/2000/svg" xmlns:xlink="http://www.w3.org/1999/xlink" x="0px" y="0px"
	 viewBox="0 0 1275.6 1275.6" style="enable-background:new 0 0 1275.6 1275.6;" xml:space="preserve">
<style type="text/css">
	.st0{fill:#F3F3F3;}
	.st1{opacity:0.5;}
	.st2{fill:url(#SVGID_3_);}
	.st3{fill-rule:evenodd;clip-rule:evenodd;fill:#EB2627;stroke:#ED2928;stroke-width:2;stroke-miterlimit:10;}
	.st4{fill:none;}
</style>
<g>
	<g>
		<rect x="65.6" y="166.4" class="st0" width="22.9" height="22.9"/>
		<rect x="134.4" y="166.4" class="st0" width="22.9" height="22.9"/>
		<rect x="203.1" y="166.4" class="st0" width="22.9" height="22.9"/>
		<rect x="271.8" y="166.4" class="st0" width="22.9" height="22.9"/>
		<rect x="340.5" y="166.4" class="st0" width="22.9" height="22.9"/>
		<rect x="65.6" y="235.1" class="st0" width="22.9" height="22.9"/>
		<rect x="134.4" y="235.1" class="st0" width="22.9" height="22.9"/>
		<rect x="203.1" y="235.1" class="st0" width="22.9" height="22.9"/>
		<rect x="271.8" y="235.1" class="st0" width="22.9" height="22.9"/>
		<rect x="340.5" y="235.1" class="st0" width="22.9" height="22.9"/>
		<rect x="409.2" y="235.1" class="st0" width="22.9" height="22.9"/>
		<rect x="65.6" y="303.8" class="st0" width="22.9" height="22.9"/>
		<rect x="134.4" y="303.8" class="st0" width="22.9" height="22.9"/>
		<rect x="203.1" y="303.8" class="st0" width="22.9" height="22.9"/>
		<rect x="271.8" y="303.8" class="st0" width="22.9" height="22.9"/>
		<rect x="340.5" y="303.8" class="st0" width="22.9" height="22.9"/>
		<rect x="409.2" y="303.8" class="st0" width="22.9" height="22.9"/>
		<rect x="477.9" y="303.8" class="st0" width="22.9" height="22.9"/>
		<rect x="65.6" y="372.5" class="st0" width="22.9" height="22.9"/>
		<rect x="134.4" y="372.5" class="st0" width="22.9" height="22.9"/>
		<rect x="203.1" y="372.5" class="st0" width="22.9" height="22.9"/>
		<rect x="271.8" y="372.5" class="st0" width="22.9" height="22.9"/>
		<rect x="340.5" y="372.5" class="st0" width="22.9" height="22.9"/>
		<rect x="409.2" y="372.5" class="st0" width="22.9" height="22.9"/>
		<rect x="477.9" y="372.5" class="st0" width="22.9" height="22.9"/>
		<rect x="1027.6" y="166.4" class="st0" width="22.9" height="22.9"/>
		<rect x="958.9" y="166.4" class="st0" width="22.9" height="22.9"/>
		<rect x="890.2" y="166.4" class="st0" width="22.9" height="22.9"/>
		<rect x="821.4" y="166.4" class="st0" width="22.9" height="22.9"/>
		<rect x="752.7" y="166.4" class="st0" width="22.9" height="22.9"/>
		<rect x="1027.6" y="235.1" class="st0" width="22.9" height="22.9"/>
		<rect x="958.9" y="235.1" class="st0" width="22.9" height="22.9"/>
		<rect x="890.2" y="235.1" class="st0" width="22.9" height="22.9"/>
		<rect x="821.4" y="235.1" class="st0" width="22.9" height="22.9"/>
		<rect x="752.7" y="235.1" class="st0" width="22.9" height="22.9"/>
		<rect x="684" y="235.1" class="st0" width="22.9" height="22.9"/>
		<rect x="1027.6" y="303.8" class="st0" width="22.9" height="22.9"/>
		<rect x="958.9" y="303.8" class="st0" width="22.9" height="22.9"/>
		<rect x="890.2" y="303.8" class="st0" width="22.9" height="22.9"/>
		<rect x="821.4" y="303.8" class="st0" width="22.9" height="22.9"/>
		<rect x="752.7" y="303.8" class="st0" width="22.9" height="22.9"/>
		<rect x="684" y="303.8" class="st0" width="22.9" height="22.9"/>
		<rect x="615.3" y="303.8" class="st0" width="22.9" height="22.9"/>
		<rect x="1027.6" y="372.5" class="st0" width="22.9" height="22.9"/>
		<rect x="958.9" y="372.5" class="st0" width="22.9" height="22.9"/>
		<rect x="890.2" y="372.5" class="st0" width="22.9" height="22.9"/>
		<rect x="821.4" y="372.5" class="st0" width="22.9" height="22.9"/>
		<rect x="752.7" y="372.5" class="st0" width="22.9" height="22.9"/>
		<rect x="684" y="372.5" class="st0" width="22.9" height="22.9"/>
		<rect x="615.3" y="372.5" class="st0" width="22.9" height="22.9"/>
		<rect x="546.6" y="372.5" class="st0" width="22.9" height="22.9"/>
		<rect x="65.6" y="441.2" class="st0" width="22.9" height="22.9"/>
		<rect x="134.4" y="441.2" class="st0" width="22.9" height="22.9"/>
		<rect x="203.1" y="441.2" class="st0" width="22.9" height="22.9"/>
		<rect x="271.8" y="441.2" class="st0" width="22.9" height="22.9"/>
		<rect x="340.5" y="441.2" class="st0" width="22.9" height="22.9"/>
		<rect x="409.2" y="441.2" class="st0" width="22.9" height="22.9"/>
		<rect x="477.9" y="441.2" class="st0" width="22.9" height="22.9"/>
		<rect x="1027.6" y="441.2" class="st0" width="22.9" height="22.9"/>
		<rect x="958.9" y="441.2" class="st0" width="22.9" height="22.9"/>
		<rect x="890.2" y="441.2" class="st0" width="22.9" height="22.9"/>
		<rect x="821.4" y="441.2" class="st0" width="22.9" height="22.9"/>
		<rect x="752.7" y="441.2" class="st0" width="22.9" height="22.9"/>
		<rect x="684" y="441.2" class="st0" width="22.9" height="22.9"/>
		<rect x="615.3" y="441.2" class="st0" width="22.9" height="22.9"/>
		<rect x="546.6" y="441.2" class="st0" width="22.9" height="22.9"/>
		<rect x="134.4" y="509.9" class="st0" width="22.9" height="22.9"/>
		<rect x="203.1" y="509.9" class="st0" width="22.9" height="22.9"/>
		<rect x="271.8" y="509.9" class="st0" width="22.9" height="22.9"/>
		<rect x="340.5" y="509.9" class="st0" width="22.9" height="22.9"/>
		<rect x="409.2" y="509.9" class="st0" width="22.9" height="22.9"/>
		<rect x="477.9" y="509.9" class="st0" width="22.9" height="22.9"/>
		<rect x="958.9" y="509.9" class="st0" width="22.9" height="22.9"/>
		<rect x="890.2" y="509.9" class="st0" width="22.9" height="22.9"/>
		<rect x="821.4" y="509.9" class="st0" width="22.9" height="22.9"/>
		<rect x="752.7" y="509.9" class="st0" width="22.9" height="22.9"/>
		<rect x="684" y="509.9" class="st0" width="22.9" height="22.9"/>
		<rect x="615.3" y="509.9" class="st0" width="22.9" height="22.9"/>
		<rect x="546.6" y="509.9" class="st0" width="22.9" height="22.9"/>
		<rect x="203.1" y="578.6" class="st0" width="22.9" height="22.9"/>
		<rect x="271.8" y="578.6" class="st0" width="22.9" height="22.9"/>
		<rect x="340.5" y="578.6" class="st0" width="22.9" height="22.9"/>
		<rect x="409.2" y="578.6" class="st0" width="22.9" height="22.9"/>
		<rect x="477.9" y="578.6" class="st0" width="22.9" height="22.9"/>
		<rect x="890.2" y="578.6" class="st0" width="22.9" height="22.9"/>
		<rect x="821.4" y="578.6" class="st0" width="22.9" height="22.9"/>
		<rect x="752.7" y="578.6" class="st0" width="22.9" height="22.9"/>
		<rect x="684" y="578.6" class="st0" width="22.9" height="22.9"/>
		<rect x="615.3" y="578.6" class="st0" width="22.9" height="22.9"/>
		<rect x="546.6" y="578.6" class="st0" width="22.9" height="22.9"/>
		<rect x="271.8" y="647.4" class="st0" width="22.9" height="22.9"/>
		<rect x="340.5" y="647.4" class="st0" width="22.9" height="22.9"/>
		<rect x="409.2" y="647.4" class="st0" width="22.9" height="22.9"/>
		<rect x="477.9" y="647.4" class="st0" width="22.9" height="22.9"/>
		<rect x="821.4" y="647.4" class="st0" width="22.9" height="22.9"/>
		<rect x="752.7" y="647.4" class="st0" width="22.9" height="22.9"/>
		<rect x="684" y="647.4" class="st0" width="22.9" height="22.9"/>
		<rect x="615.3" y="647.4" class="st0" width="22.9" height="22.9"/>
		<rect x="546.6" y="647.4" class="st0" width="22.9" height="22.9"/>
		<rect x="65.6" y="1128.3" class="st0" width="22.9" height="22.9"/>
		<rect x="134.4" y="1128.3" class="st0" width="22.9" height="22.9"/>
		<rect x="203.1" y="1128.3" class="st0" width="22.9" height="22.9"/>
		<rect x="271.8" y="1128.3" class="st0" width="22.9" height="22.9"/>
		<rect x="340.5" y="1128.3" class="st0" width="22.9" height="22.9"/>
		<rect x="65.6" y="1059.6" class="st0" width="22.9" height="22.9"/>
		<rect x="134.4" y="1059.6" class="st0" width="22.9" height="22.9"/>
		<rect x="203.1" y="1059.6" class="st0" width="22.9" height="22.9"/>
		<rect x="271.8" y="1059.6" class="st0" width="22.9" height="22.9"/>
		<rect x="340.5" y="1059.6" class="st0" width="22.9" height="22.9"/>
		<rect x="409.2" y="1059.6" class="st0" width="22.9" height="22.9"/>
		<rect x="65.6" y="990.9" class="st0" width="22.9" height="22.9"/>
		<rect x="134.4" y="990.9" class="st0" width="22.9" height="22.9"/>
		<rect x="203.1" y="990.9" class="st0" width="22.9" height="22.9"/>
		<rect x="271.8" y="990.9" class="st0" width="22.9" height="22.9"/>
		<rect x="340.5" y="990.9" class="st0" width="22.9" height="22.9"/>
		<rect x="409.2" y="990.9" class="st0" width="22.9" height="22.9"/>
		<rect x="477.9" y="990.9" class="st0" width="22.9" height="22.9"/>
		<rect x="65.6" y="922.2" class="st0" width="22.9" height="22.9"/>
		<rect x="134.4" y="922.2" class="st0" width="22.9" height="22.9"/>
		<rect x="203.1" y="922.2" class="st0" width="22.9" height="22.9"/>
		<rect x="271.8" y="922.2" class="st0" width="22.9" height="22.9"/>
		<rect x="340.5" y="922.2" class="st0" width="22.9" height="22.9"/>
		<rect x="409.2" y="922.2" class="st0" width="22.9" height="22.9"/>
		<rect x="477.9" y="922.2" class="st0" width="22.9" height="22.9"/>
		<rect x="1027.6" y="1128.3" class="st0" width="22.9" height="22.9"/>
		<rect x="958.9" y="1128.3" class="st0" width="22.9" height="22.9"/>
		<rect x="890.2" y="1128.3" class="st0" width="22.9" height="22.9"/>
		<rect x="821.4" y="1128.3" class="st0" width="22.9" height="22.9"/>
		<rect x="752.7" y="1128.3" class="st0" width="22.9" height="22.9"/>
		<rect x="1027.6" y="1059.6" class="st0" width="22.9" height="22.9"/>
		<rect x="958.9" y="1059.6" class="st0" width="22.9" height="22.9"/>
		<rect x="890.2" y="1059.6" class="st0" width="22.9" height="22.9"/>
		<rect x="821.4" y="1059.6" class="st0" width="22.9" height="22.9"/>
		<rect x="752.7" y="1059.6" class="st0" width="22.9" height="22.9"/>
		<rect x="684" y="1059.6" class="st0" width="22.9" height="22.9"/>
		<rect x="1027.6" y="990.9" class="st0" width="22.9" height="22.9"/>
		<rect x="958.9" y="990.9" class="st0" width="22.9" height="22.9"/>
		<rect x="890.2" y="990.9" class="st0" width="22.9" height="22.9"/>
		<rect x="821.4" y="990.9" class="st0" width="22.9" height="22.9"/>
		<rect x="752.7" y="990.9" class="st0" width="22.9" height="22.9"/>
		<rect x="684" y="990.9" class="st0" width="22.9" height="22.9"/>
		<rect x="615.3" y="990.9" class="st0" width="22.9" height="22.9"/>
		<rect x="1027.6" y="922.2" class="st0" width="22.9" height="22.9"/>
		<rect x="958.9" y="922.2" class="st0" width="22.9" height="22.9"/>
		<rect x="890.2" y="922.2" class="st0" width="22.9" height="22.9"/>
		<rect x="821.4" y="922.2" class="st0" width="22.9" height="22.9"/>
		<rect x="752.7" y="922.2" class="st0" width="22.9" height="22.9"/>
		<rect x="684" y="922.2" class="st0" width="22.9" height="22.9"/>
		<rect x="615.3" y="922.2" class="st0" width="22.9" height="22.9"/>
		<rect x="546.6" y="922.2" class="st0" width="22.9" height="22.9"/>
		<rect x="65.6" y="853.5" class="st0" width="22.9" height="22.9"/>
		<rect x="134.4" y="853.5" class="st0" width="22.9" height="22.9"/>
		<rect x="203.1" y="853.5" class="st0" width="22.9" height="22.9"/>
		<rect x="271.8" y="853.5" class="st0" width="22.9" height="22.9"/>
		<rect x="340.5" y="853.5" class="st0" width="22.9" height="22.9"/>
		<rect x="409.2" y="853.5" class="st0" width="22.9" height="22.9"/>
		<rect x="477.9" y="853.5" class="st0" width="22.9" height="22.9"/>
		<rect x="1027.6" y="853.5" class="st0" width="22.9" height="22.9"/>
		<rect x="958.9" y="853.5" class="st0" width="22.9" height="22.9"/>
		<rect x="890.2" y="853.5" class="st0" width="22.9" height="22.9"/>
		<rect x="821.4" y="853.5" class="st0" width="22.9" height="22.9"/>
		<rect x="752.7" y="853.5" class="st0" width="22.9" height="22.9"/>
		<rect x="684" y="853.5" class="st0" width="22.9" height="22.9"/>
		<rect x="615.3" y="853.5" class="st0" width="22.9" height="22.9"/>
		<rect x="546.6" y="853.5" class="st0" width="22.9" height="22.9"/>
		<rect x="134.4" y="784.8" class="st0" width="22.9" height="22.9"/>
		<rect x="203.1" y="784.8" class="st0" width="22.9" height="22.9"/>
		<rect x="271.8" y="784.8" class="st0" width="22.9" height="22.9"/>
		<rect x="340.5" y="784.8" class="st0" width="22.9" height="22.9"/>
		<rect x="409.2" y="784.8" class="st0" width="22.9" height="22.9"/>
		<rect x="477.9" y="784.8" class="st0" width="22.9" height="22.9"/>
		<rect x="958.9" y="784.8" class="st0" width="22.9" height="22.9"/>
		<rect x="890.2" y="784.8" class="st0" width="22.9" height="22.9"/>
		<rect x="821.4" y="784.8" class="st0" width="22.9" height="22.9"/>
		<rect x="752.7" y="784.8" class="st0" width="22.9" height="22.9"/>
		<rect x="684" y="784.8" class="st0" width="22.9" height="22.9"/>
		<rect x="615.3" y="784.8" class="st0" width="22.9" height="22.9"/>
		<rect x="546.6" y="784.8" class="st0" width="22.9" height="22.9"/>
		<rect x="203.1" y="716.1" class="st0" width="22.9" height="22.9"/>
		<rect x="271.8" y="716.1" class="st0" width="22.9" height="22.9"/>
		<rect x="340.5" y="716.1" class="st0" width="22.9" height="22.9"/>
		<rect x="409.2" y="716.1" class="st0" width="22.9" height="22.9"/>
		<rect x="477.9" y="716.1" class="st0" width="22.9" height="22.9"/>
		<rect x="890.2" y="716.1" class="st0" width="22.9" height="22.9"/>
		<rect x="821.4" y="716.1" class="st0" width="22.9" height="22.9"/>
		<rect x="752.7" y="716.1" class="st0" width="22.9" height="22.9"/>
		<rect x="684" y="716.1" class="st0" width="22.9" height="22.9"/>
		<rect x="615.3" y="716.1" class="st0" width="22.9" height="22.9"/>
		<rect x="546.6" y="716.1" class="st0" width="22.9" height="22.9"/>
	</g>
</g>
<g>
	<defs>
		<path id="SVGID_1_" d="M900.3,77.3L689.5,294.7L478.4,77.3H183.9V378l212.9,215.5L183.9,808.7v301.8h294.5L689.5,892l210.7,218.5
			h295.6V808.7L982.2,593.5L1195.9,378V77.3H900.3z"/>
	</defs>
	<clipPath id="SVGID_2_">
		<use xlink:href="#SVGID_1_"  style="overflow:visible;"/>
	</clipPath>
	<g style="clip-path:url(#SVGID_2_);">
		
			<image style="overflow:visible;" width="3744" height="5616" xlink:href="sharon-mccutcheon-gxkWSW6K15Y-unsplash.jpg"  transform="matrix(0.2774 0 0 0.2832 158.2535 -141.4235)">
		</image>
	</g>
</g>
<g class="st1">
	
		<linearGradient id="SVGID_3_" gradientUnits="userSpaceOnUse" x1="907.2548" y1="231.5703" x2="392.5157" y2="1275.8214" gradientTransform="matrix(1 0 0 -1 0 1278.3149)">
		<stop  offset="0" style="stop-color:#E9292A"/>
		<stop  offset="1" style="stop-color:#E9292A;stop-opacity:0"/>
	</linearGradient>
	<path class="st2" d="M894.4,77.3L683.7,294.7L472.5,77.3H178.1V378L391,593.5L178.1,808.7v301.8h294.5L683.7,892l210.7,218.5H1190
		V808.7L976.4,593.5L1190,378V77.3H894.4z"/>
</g>
<path class="st3" d="M233.3,864.9l-18.8,18.8l10.1,10.1l18.8-18.8l18.8,18.8l10.1-10.1l-18.8-18.8l18.8-18.8l-10.1-10.1l-18.8,18.8
	l-18.8-18.8l-10.1,10.1L233.3,864.9z"/>
<path class="st3" d="M824.5,108.1l-22.3,22.3l8.4,8.4l22.3-22.3l22.3,22.3l8.4-8.4l-22.3-22.3l22.3-22.3l-8.4-8.4l-22.3,22.3
	l-22.3-22.3l-8.5,8.4L824.5,108.1z"/>
<line class="st4" x1="326.4" y1="316.6" x2="326.4" y2="318.2"/>
</svg>
