<?xml version="1.0" encoding="UTF-8" standalone="no"?>
<!-- Generator: Adobe Illustrator 24.0.0, SVG Export Plug-In . SVG Version: 6.00 Build 0)  -->

<svg
   xmlns:dc="http://purl.org/dc/elements/1.1/"
   xmlns:cc="http://creativecommons.org/ns#"
   xmlns:rdf="http://www.w3.org/1999/02/22-rdf-syntax-ns#"
   xmlns:svg="http://www.w3.org/2000/svg"
   xmlns="http://www.w3.org/2000/svg"
   xmlns:sodipodi="http://sodipodi.sourceforge.net/DTD/sodipodi-0.dtd"
   xmlns:inkscape="http://www.inkscape.org/namespaces/inkscape"
   version="1.1"
   id="Layer_1"
   x="0px"
   y="0px"
   viewBox="0 0 839.46997 198.17999"
   xml:space="preserve"
   sodipodi:docname="logo.svg"
   width="839.46997"
   height="198.17999"
   inkscape:version="0.92.4 5da689c313, 2019-01-14"><metadata
   id="metadata157"><rdf:RDF><cc:Work
       rdf:about=""><dc:format>image/svg+xml</dc:format><dc:type
         rdf:resource="http://purl.org/dc/dcmitype/StillImage" /></cc:Work></rdf:RDF></metadata><defs
   id="defs155" /><sodipodi:namedview
   pagecolor="#ffffff"
   bordercolor="#666666"
   borderopacity="1"
   objecttolerance="10"
   gridtolerance="10"
   guidetolerance="10"
   inkscape:pageopacity="0"
   inkscape:pageshadow="2"
   inkscape:window-width="3840"
   inkscape:window-height="2032"
   id="namedview153"
   showgrid="false"
   inkscape:zoom="2.4722548"
   inkscape:cx="401.8612"
   inkscape:cy="-21.554499"
   inkscape:window-x="0"
   inkscape:window-y="54"
   inkscape:window-maximized="1"
   inkscape:current-layer="Layer_1"><inkscape:grid
     type="xygrid"
     id="grid1796"
     originx="-60.39"
     originy="-170.91" /></sodipodi:namedview>
<style
   type="text/css"
   id="style2">
	.st0{fill:#ED2224;stroke:#ED2224;stroke-width:0.5;stroke-miterlimit:10;}
	.st1{fill:#ED2224;}
	.st2{fill:#FFFFFF;}
	.st3{fill:#010101;}
</style>
<g
   id="g150"
   transform="translate(-60.39,-170.91)">
	<g
   id="g12">
		<path
   class="st0"
   d="m 700.67,286.27 h 16.67 v 4.93 h -9.54 v 37.28 h 9.54 v 4.93 h -16.67 z"
   id="path4"
   inkscape:connector-curvature="0"
   style="fill:#ed2224;stroke:#ed2224;stroke-width:0.5;stroke-miterlimit:10" />
		<path
   class="st0"
   d="m 725,289.45 h 24.23 v 7.89 h -14.8 v 5.59 h 12.61 v 7.89 h -12.61 v 6.36 h 15.35 v 7.89 H 725 Z"
   id="path6"
   inkscape:connector-curvature="0"
   style="fill:#ed2224;stroke:#ed2224;stroke-width:0.5;stroke-miterlimit:10" />
		<path
   class="st0"
   d="m 758.11,311.27 v -21.82 h 9.43 v 22.91 c 0,3.07 0.93,5.26 3.95,5.26 3.01,0 4.06,-2.19 4.06,-5.26 v -22.91 h 9.1 v 21.82 c 0,8.88 -3.84,14.47 -13.16,14.47 -9.33,0 -13.38,-5.59 -13.38,-14.47 z"
   id="path8"
   inkscape:connector-curvature="0"
   style="fill:#ed2224;stroke:#ed2224;stroke-width:0.5;stroke-miterlimit:10" />
		<path
   class="st0"
   d="m 882.95,328.48 h 9.54 V 291.2 h -9.54 v -4.93 h 16.66 v 47.14 h -16.66 z"
   id="path10"
   inkscape:connector-curvature="0"
   style="fill:#ed2224;stroke:#ed2224;stroke-width:0.5;stroke-miterlimit:10" />
	</g>
	<g
   id="g48">
		<g
   id="g16">
			<polygon
   class="st1"
   points="202.22,199.27 173.85,227.64 145.49,199.27 60.39,199.27 60.39,256.01 88.75,284.38 60.39,312.74 60.39,369.09 145.49,369.09 173.85,340.73 202.22,369.09 287.32,369.09 287.32,312.74 258.96,284.38 287.32,256.01 287.32,199.27 "
   id="polygon14"
   style="fill:#ed2224" />
		</g>
		<g
   id="g28">
			<g
   id="g20">
				<polygon
   class="st2"
   points="171.62,335.32 94.16,335.32 94.16,286.61 124.76,256.01 94.16,225.4 94.16,176.31 171.62,176.31 202.22,206.92 232.83,176.31 310.29,176.31 310.29,225.4 279.68,256.01 310.29,286.61 310.29,335.32 232.83,335.32 202.22,304.72 "
   id="polygon18"
   style="fill:#ffffff" />
			</g>
			<g
   id="g26">
				<g
   id="g24">
					<path
   class="st1"
   d="m 304.88,181.71 v 41.45 l -25.2,25.2 -7.64,7.64 7.64,7.64 25.2,25.2 v 41.07 h -69.82 l -25.2,-25.2 -7.64,-7.64 -7.64,7.64 -25.2,25.2 H 99.56 v -41.07 l 25.2,-25.2 7.64,-7.64 -7.64,-7.64 -25.2,-25.2 v -41.45 h 69.82 l 25.2,25.2 7.64,7.64 7.64,-7.64 25.2,-25.2 h 69.82 m 10.81,-10.8 h -85.1 l -28.37,28.37 -28.37,-28.37 h -85.1 v 56.73 l 28.37,28.37 -28.37,28.37 v 56.35 h 85.1 l 28.37,-28.37 28.37,28.37 h 85.1 v -56.35 l -28.37,-28.37 28.37,-28.37 z"
   id="path22"
   inkscape:connector-curvature="0"
   style="fill:#ed2224" />
				</g>
			</g>
		</g>
		<g
   id="g42">
			<g
   id="g32">
				<rect
   x="154.33"
   y="248.07001"
   class="st3"
   width="15.48"
   height="15.48"
   id="rect30"
   style="fill:#010101" />
			</g>
			<g
   id="g36">
				<rect
   x="194.48"
   y="248.07001"
   class="st3"
   width="15.48"
   height="15.48"
   id="rect34"
   style="fill:#010101" />
			</g>
			<g
   id="g40">
				<rect
   x="234.63"
   y="248.07001"
   class="st3"
   width="15.48"
   height="15.48"
   id="rect38"
   style="fill:#010101" />
			</g>
		</g>
		<g
   id="g46">
			<rect
   x="234.63"
   y="248.07001"
   class="st3"
   width="15.48"
   height="15.48"
   id="rect44"
   style="fill:#010101" />
		</g>
	</g>
	<g
   id="g136">
		<g
   id="g126">
			<g
   id="g52">
				<path
   class="st3"
   d="m 371.6,217.93 c 0,-15.37 10.01,-24.1 22.41,-24.1 5.92,0 10.85,2.82 14.1,5.92 l -6.62,7.47 c -2.12,-1.83 -4.37,-2.96 -7.47,-2.96 -5.64,0 -10.01,4.93 -10.01,13.25 0,8.6 4.37,13.39 10.57,13.39 2.96,0 5.5,-1.55 7.47,-3.67 l 6.62,7.33 c -3.81,4.51 -9.16,6.77 -15.37,6.77 -11.41,0 -21.7,-7.75 -21.7,-23.4 z"
   id="path50"
   inkscape:connector-curvature="0"
   style="fill:#010101" />
			</g>
			<g
   id="g56">
				<path
   class="st3"
   d="m 423.75,225.97 v -25.09 h -10.57 v -9.44 h 22.69 v 34.96 c 0,4.09 2.82,5.22 5.29,5.22 1.48,0 3.03,-0.28 5.07,-0.99 l 2.61,8.88 c -3.81,1.13 -6.34,1.83 -10.92,1.83 -9.38,-0.01 -14.17,-6.21 -14.17,-15.37 z"
   id="path54"
   inkscape:connector-curvature="0"
   style="fill:#010101" />
			</g>
			<g
   id="g60">
				<path
   class="st3"
   d="m 455.6,222.86 c 0,-11.7 8.88,-18.47 18.18,-18.47 9.3,0 18.18,6.77 18.18,18.47 0,11.7 -8.88,18.47 -18.18,18.47 -9.3,0 -18.18,-6.77 -18.18,-18.47 z m 23.97,0 c 0,-5.36 -1.69,-8.74 -5.78,-8.74 -4.09,0 -5.78,3.38 -5.78,8.74 0,5.36 1.69,8.74 5.78,8.74 4.08,0 5.78,-3.38 5.78,-8.74 z"
   id="path58"
   inkscape:connector-curvature="0"
   style="fill:#010101" />
			</g>
			<g
   id="g64">
				<path
   class="st3"
   d="M 498.87,226.95 V 205.24 H 511 v 20.16 c 0,3.95 0.85,5.64 4.02,5.64 2.04,0 3.45,-0.56 5.29,-3.1 v -22.7 h 12.12 v 35.24 h -9.87 l -0.85,-4.65 h -0.28 c -2.96,3.38 -6.48,5.5 -11.42,5.5 -7.89,0 -11.14,-5.64 -11.14,-14.38 z"
   id="path62"
   inkscape:connector-curvature="0"
   style="fill:#010101" />
			</g>
			<g
   id="g68">
				<path
   class="st3"
   d="m 540.17,222.86 c 0,-11.56 7.33,-18.47 14.73,-18.47 3.74,0 6.13,1.27 8.25,3.52 h 0.28 l -0.56,-5.07 v -11.42 h 12.12 v 49.06 h -9.87 l -0.85,-3.24 h -0.28 c -2.47,2.4 -5.92,4.09 -9.09,4.09 -8.95,0 -14.73,-7.05 -14.73,-18.47 z m 22.7,6.07 v -12.97 c -1.41,-1.27 -2.96,-1.69 -4.65,-1.69 -2.96,0 -5.64,2.26 -5.64,8.46 0,6.34 2.04,8.74 5.5,8.74 1.97,-0.01 3.45,-0.57 4.79,-2.54 z"
   id="path66"
   inkscape:connector-curvature="0"
   style="fill:#010101" />
			</g>
			<g
   id="g72">
				<path
   class="st3"
   d="m 583.72,243.87 h 33.83 v 8.88 h -33.83 z"
   id="path70"
   inkscape:connector-curvature="0"
   style="fill:#010101" />
			</g>
			<g
   id="g76">
				<path
   class="st3"
   d="m 626.01,194.67 h 12.26 l 7.68,20.44 3.74,10.29 h 0.28 c -0.56,-4.93 -1.69,-11.84 -1.69,-17.48 v -13.25 h 11.56 v 45.81 h -12.26 l -7.68,-20.51 -3.74,-10.22 h -0.28 c 0.56,5.22 1.69,11.84 1.69,17.48 v 13.25 h -11.56 z"
   id="path74"
   inkscape:connector-curvature="0"
   style="fill:#010101" />
			</g>
			<g
   id="g80">
				<path
   class="st3"
   d="m 667.87,230.48 c 0,-7.89 6.2,-11.98 22.27,-12.83 -0.42,-2.54 -2.82,-3.67 -6.77,-3.67 -2.96,0 -5.92,0.99 -10.15,2.96 l -4.23,-7.89 c 5.36,-2.96 10.85,-4.65 16.78,-4.65 10.01,0 16.49,4.93 16.49,16.49 v 19.59 h -9.87 l -0.85,-3.67 h -0.28 c -3.45,2.54 -7.61,4.51 -11.98,4.51 -7.32,0.01 -11.41,-5.06 -11.41,-10.84 z m 22.28,-1.13 v -4.51 c -8.6,0.28 -10.71,2.26 -10.71,4.65 0,1.62 1.27,2.54 3.81,2.54 2.81,0 4.99,-1.27 6.9,-2.68 z"
   id="path78"
   inkscape:connector-curvature="0"
   style="fill:#010101" />
			</g>
			<g
   id="g84">
				<path
   class="st3"
   d="m 717.77,225.54 v -10.85 h -8.46 v -9.02 l 9.02,-0.42 1.55,-10.57 h 10.01 v 10.57 h 13.95 v 9.44 h -13.95 v 10.64 c 0,5 2.32,6.56 6.84,6.56 2.4,0 4.51,-0.49 6.41,-1.13 l 2.12,8.74 c -3.1,0.85 -6.91,1.83 -11.7,1.83 -11.56,0 -15.79,-6.34 -15.79,-15.79 z"
   id="path82"
   inkscape:connector-curvature="0"
   style="fill:#010101" />
			</g>
			<g
   id="g88">
				<path
   class="st3"
   d="m 767.24,214.69 h -13.39 v -9.44 h 25.51 v 35.24 h -12.12 z"
   id="path86"
   inkscape:connector-curvature="0"
   style="fill:#010101" />
			</g>
			<g
   id="g92">
				<path
   class="st3"
   d="m 792.61,205.24 h 12.12 l 4.58,15.37 c 1.06,3.52 1.9,7.19 2.89,11 h 0.28 c 0.99,-3.81 1.83,-7.47 2.89,-11 l 4.58,-15.37 h 11.56 l -12.26,35.24 H 805.3 Z"
   id="path90"
   inkscape:connector-curvature="0"
   style="fill:#010101" />
			</g>
			<g
   id="g96">
				<path
   class="st3"
   d="m 836.73,222.86 c 0,-11.56 9.02,-18.47 18.47,-18.47 11.14,0 16.77,7.61 16.77,17.06 0,2.11 -0.35,4.23 -0.49,5.07 H 845.9 v -7.89 h 17.2 l -1.69,2.11 c 0,-4.65 -1.83,-7.19 -5.78,-7.19 -4.65,0 -7.19,2.96 -7.19,9.3 0,6.63 3.24,9.3 9.73,9.3 2.82,0 5.36,-0.7 8.46,-2.11 l 3.95,7.19 c -4.23,2.68 -9.73,4.09 -14.1,4.09 -11.15,0.01 -19.75,-6.76 -19.75,-18.46 z"
   id="path94"
   inkscape:connector-curvature="0"
   style="fill:#010101" />
			</g>
			<g
   id="g100">
				<path
   class="st3"
   d="m 372.16,279.24 h 17.06 c 9.87,0 18.33,3.38 18.33,14.8 0,11.07 -8.46,15.65 -18.33,15.65 h -4.93 v 15.37 h -12.12 v -45.82 z m 16.21,20.86 c 4.79,0 7.33,-2.11 7.33,-6.06 0,-3.95 -2.54,-5.22 -7.33,-5.22 h -4.09 v 11.28 z m 6.84,-1.62 14.87,26.57 h -13.53 l -9.51,-18.54 z"
   id="path98"
   inkscape:connector-curvature="0"
   style="fill:#010101" />
			</g>
			<g
   id="g104">
				<path
   class="st3"
   d="m 413.88,307.43 c 0,-11.56 9.02,-18.47 18.47,-18.47 11.14,0 16.78,7.61 16.78,17.06 0,2.11 -0.35,4.23 -0.49,5.07 h -25.58 v -7.89 h 17.2 l -1.69,2.11 c 0,-4.65 -1.83,-7.19 -5.78,-7.19 -4.65,0 -7.19,2.96 -7.19,9.3 0,6.63 3.24,9.3 9.73,9.3 2.82,0 5.36,-0.7 8.46,-2.11 l 3.95,7.19 c -4.23,2.68 -9.73,4.09 -14.1,4.09 -11.16,0.01 -19.76,-6.76 -19.76,-18.46 z"
   id="path102"
   inkscape:connector-curvature="0"
   style="fill:#010101" />
			</g>
			<g
   id="g108">
				<path
   class="st3"
   d="m 455.25,335.91 3.45,-8.6 c 2.96,1.27 5.01,1.55 6.84,1.55 4.3,0 5.71,-1.83 5.71,-6.63 v -22.98 h -13.39 v -9.44 h 25.51 v 32 c 0,8.6 -3.67,16.49 -16.99,16.49 -4.57,0.01 -8.03,-0.98 -11.13,-2.39 z"
   id="path106"
   inkscape:connector-curvature="0"
   style="fill:#010101" />
			</g>
			<g
   id="g112">
				<path
   class="st3"
   d="m 498.45,307.43 c 0,-11.56 9.02,-18.47 18.47,-18.47 11.14,0 16.78,7.61 16.78,17.06 0,2.11 -0.35,4.23 -0.49,5.07 h -25.58 v -7.89 h 17.2 l -1.69,2.11 c 0,-4.65 -1.83,-7.19 -5.78,-7.19 -4.65,0 -7.19,2.96 -7.19,9.3 0,6.63 3.24,9.3 9.73,9.3 2.82,0 5.36,-0.7 8.46,-2.11 l 3.95,7.19 c -4.23,2.68 -9.73,4.09 -14.1,4.09 -11.16,0.01 -19.76,-6.76 -19.76,-18.46 z"
   id="path110"
   inkscape:connector-curvature="0"
   style="fill:#010101" />
			</g>
			<g
   id="g116">
				<path
   class="st3"
   d="m 541.72,276 h 12.12 v 26.36 h 0.28 l 10.71,-12.55 h 13.11 l -24.11,26.64 v 8.6 H 541.71 V 276 Z m 15.08,34.11 6.91,-7.47 15.08,22.41 h -13.11 z"
   id="path114"
   inkscape:connector-curvature="0"
   style="fill:#010101" />
			</g>
			<g
   id="g120">
				<path
   class="st3"
   d="m 590.91,310.11 v -10.85 h -8.46 v -9.02 l 9.02,-0.42 1.55,-10.57 h 10.01 v 10.57 h 13.95 v 9.44 h -13.95 v 10.64 c 0,5 2.32,6.56 6.84,6.56 2.4,0 4.51,-0.49 6.41,-1.13 l 2.12,8.74 c -3.1,0.85 -6.91,1.83 -11.7,1.83 -11.56,0 -15.79,-6.34 -15.79,-15.79 z"
   id="path118"
   inkscape:connector-curvature="0"
   style="fill:#010101" />
			</g>
			<g
   id="g124">
				<path
   class="st3"
   d="m 625.02,320.54 5.07,-7.47 c 4.44,2.61 9.3,3.95 13.81,3.95 3.1,0 4.37,-0.85 4.37,-2.11 0,-1.69 -1.83,-1.97 -7.75,-3.24 -9.73,-2.11 -13.25,-5.78 -13.25,-11.28 0,-6.91 6.55,-11.42 16.77,-11.42 6.62,0 11.91,2.61 15.65,4.93 l -5.36,7.19 c -3.67,-2.11 -7.75,-3.24 -11.42,-3.24 -2.26,0 -3.67,0.7 -3.67,1.97 0,1.55 1.83,1.69 7.33,2.96 10.57,2.4 13.67,5.57 13.67,11.42 0,6.63 -6.27,11.7 -18.04,11.7 -6.04,0 -12.66,-2.4 -17.18,-5.36 z"
   id="path122"
   inkscape:connector-curvature="0"
   style="fill:#010101" />
			</g>
		</g>
		<g
   id="g130">
			<rect
   x="470.20999"
   y="270.48001"
   class="st3"
   width="13.16"
   height="13.16"
   id="rect128"
   style="fill:#010101" />
		</g>
		<g
   id="g134">
			<rect
   x="766.21002"
   y="185.91"
   class="st3"
   width="13.16"
   height="13.16"
   id="rect132"
   style="fill:#010101" />
		</g>
	</g>
	<g
   id="g140">
		<rect
   x="794.51001"
   y="289.26001"
   class="st1"
   width="13.16"
   height="13.16"
   id="rect138"
   style="fill:#ed2224" />
	</g>
	<g
   id="g148">
		<g
   id="g146">
			<path
   class="st1"
   d="m 814.96,320 c 9.39,-7.67 16.28,-13.56 16.28,-18.34 0,-3.17 -2,-4.67 -5.11,-4.67 -2.61,0 -4.67,1.67 -6.56,3.33 l -5.06,-5.11 c 3.83,-3.89 7.39,-5.67 12.95,-5.67 7.56,0 12.84,4.56 12.84,11.56 0,5.67 -5.89,11.89 -11.67,16.78 1.95,-0.22 4.61,-0.44 6.34,-0.44 h 7.11 v 8 h -27.12 z"
   id="path142"
   inkscape:connector-curvature="0"
   style="fill:#ed2224" />
			<path
   class="st1"
   d="m 848.19,307.67 c 0,-12.06 5.61,-18.12 13.89,-18.12 8.28,0 13.89,6.06 13.89,18.12 0,12.06 -5.61,18.45 -13.89,18.45 -8.28,0 -13.89,-6.39 -13.89,-18.45 z m 19.34,0 c 0,-8.78 -2.5,-10.78 -5.45,-10.78 -2.95,0 -5.45,2 -5.45,10.78 0,8.78 2.5,11.11 5.45,11.11 2.95,0 5.45,-2.33 5.45,-11.11 z m -9.89,0 c 0,-2.67 1.89,-4.45 4.45,-4.45 2.56,0 4.45,1.78 4.45,4.45 0,2.67 -1.89,4.45 -4.45,4.45 -2.56,0 -4.45,-1.79 -4.45,-4.45 z"
   id="path144"
   inkscape:connector-curvature="0"
   style="fill:#ed2224" />
		</g>
	</g>
</g>
</svg>