<?xml version="1.0" encoding="utf-8"?>
<!-- Generator: Adobe Illustrator 25.4.1, SVG Export Plug-In . SVG Version: 6.00 Build 0)  -->
<svg version="1.1" id="Layer_1" xmlns="http://www.w3.org/2000/svg" xmlns:xlink="http://www.w3.org/1999/xlink" x="0px" y="0px"
	 viewBox="0 0 622.5 185.8" style="enable-background:new 0 0 622.5 185.8;" xml:space="preserve">
<style type="text/css">
	.st0{fill:#FF0000;}
	.st1{fill:#FFFFFF;}
	.st2{font-family:'OpenSans-Bold';}
	.st3{font-size:34.229px;}
</style>
<g>
	<path class="st0" d="M456.3,103.7h11v3.2H461v24.5h6.3v3.2h-11V103.7z"/>
	<path class="st0" d="M576.1,131.4h6.3v-24.5h-6.3v-3.2h11v31h-11V131.4z"/>
	<polygon class="st0" points="183.4,83.5 183.4,46.2 127.5,46.2 108.8,64.8 90.2,46.2 34.3,46.2 34.3,83.5 52.9,102.1 34.3,120.7 
		34.3,157.8 90.2,157.8 108.8,139.1 127.5,157.8 183.4,157.8 183.4,120.7 164.7,102.1 	"/>
	<polygon class="st1" points="147.6,135.6 127.5,115.5 107.4,135.6 56.5,135.6 56.5,103.6 76.6,83.5 56.5,63.4 56.5,31.1 
		107.4,31.1 127.5,51.2 147.6,31.1 198.5,31.1 198.5,63.4 178.4,83.5 198.5,103.6 198.5,135.6 	"/>
	<path class="st0" d="M194.9,34.7v27.2l-16.6,16.6l-5.1,5l5.1,5.1l16.6,16.5v27H149l-16.6-16.6l-5-5.1l-5.1,5.1L105.9,132H60v-27
		l16.6-16.6l5-5.1l-5-5L60,61.9V34.7h45.9l16.6,16.6l5.1,5l5-5l16.5-16.6L194.9,34.7 M202,27.6h-55.9l-18.6,18.6l-18.6-18.6h-56
		v37.3l18.6,18.6l-18.6,18.6v37h55.9l18.6-18.6l18.6,18.6h56v-37l-18.6-18.6L202,64.8V27.6z"/>
	<rect x="96" y="78.3" width="10.2" height="10.2"/>
	<rect x="122.4" y="78.3" width="10.2" height="10.2"/>
	<rect x="148.8" y="78.3" width="10.2" height="10.2"/>
	<rect x="148.8" y="78.3" width="10.2" height="10.2"/>
	<path d="M238.8,58.5c0-10.1,6.6-15.8,14.7-15.8c3.5,0.1,6.8,1.5,9.3,3.9l-4.4,4.9c-1.3-1.3-3.1-2-4.9-1.9c-3.7,0-6.6,3.2-6.6,8.7
		c0,5.7,2.9,8.8,6.9,8.8c1.9-0.1,3.7-0.9,4.9-2.4l4.4,4.8c-2.5,2.9-6.2,4.6-10.1,4.5C245.5,73.8,238.8,68.7,238.8,58.5z"/>
	<path d="M273,63.7V47.2h-6.9V41H281v23c-0.2,1.7,1.1,3.3,2.8,3.4c0.2,0,0.4,0,0.6,0c1.1,0,2.3-0.2,3.3-0.6l1.7,5.8
		c-2.3,0.8-4.7,1.2-7.2,1.2C276.2,73.8,273,69.8,273,63.7z"/>
	<path d="M294,61.7c0-6.6,5.3-12,11.9-12s12,5.3,12,11.9l0,0c0,6.6-5.3,12-11.9,12S294,68.3,294,61.7L294,61.7z M309.7,61.7
		c0-3.5-1.1-5.8-3.8-5.8c-2.7,0-3.8,2.2-3.8,5.8c0,3.5,1.1,5.7,3.8,5.7S309.7,65.2,309.7,61.7z"/>
	<path d="M322.4,64.4V50.1h8v13.2c0,2.6,0.6,3.7,2.6,3.7c1.3,0,2.3-0.4,3.5-2V50.1h8v23.2H338l-0.6-3h-0.2c-1.8,2.3-4.6,3.6-7.5,3.6
		C324.5,73.8,322.4,70.2,322.4,64.4z"/>
	<path d="M349.5,61.7c0-7.6,4.8-12.2,9.7-12.2c2.1-0.1,4.1,0.8,5.4,2.4h0.2l-0.4-3.3v-7.5h8v32.2h-6.5l-0.6-2.1h-0.2
		c-1.6,1.6-3.7,2.6-6,2.7C353.3,73.8,349.5,69.2,349.5,61.7z M364.5,65.7v-8.5c-0.8-0.7-1.9-1.1-3-1.1c-1.9,0-3.7,1.5-3.7,5.5
		s1.3,5.8,3.6,5.8C362.6,67.4,363.8,66.8,364.5,65.7z"/>
	<path d="M378.2,75.5h22.2v5.8h-22.2V75.5z"/>
	<path d="M405.9,43.2h8.1l5.1,13.4l2.5,6.8h0.2c-0.6-3.8-1-7.6-1.1-11.5v-8.7h7.6v30.1h-8.1L415,59.8l-2.4-6.7h-0.2
		c0.6,3.8,0.9,7.6,1.1,11.5v8.7H406L405.9,43.2z"/>
	<path d="M433.5,66.7c0-5.2,4.1-7.9,14.6-8.4c-0.3-1.7-1.8-2.4-4.4-2.4c-1.9,0-3.9,0.6-6.7,1.9l-2.8-5.2c3.3-1.9,7.1-3,11-3
		c6.6,0,10.8,3.2,10.8,10.8v12.9h-6.5l-0.5-2.4h-0.2c-2.2,1.8-5,2.8-7.9,3C436.1,73.8,433.5,70.5,433.5,66.7z M448.1,66v-3
		c-5.7,0.2-7,1.5-7,3c0,1,0.8,1.7,2.5,1.7C445.2,67.6,446.8,67,448.1,66z"/>
	<path d="M466.2,63.5v-7.1h-5.6v-6l5.9-0.3l1-6.9h6.6v6.9h9.1v6.2h-9.1v7c0,3.3,1.5,4.3,4.5,4.3c1.4,0,2.9-0.3,4.2-0.7l1.4,5.7
		c-2.5,0.8-5.1,1.2-7.7,1.2C469,73.8,466.2,69.7,466.2,63.5z"/>
	<path d="M498.8,56.3H490v-6.2h16.8v23.2h-8V56.3z"/>
	<path d="M515.4,50.1h8l3,10.1c0.7,2.3,1.2,4.7,1.9,7.2h0.2c0.6-2.5,1.2-4.9,1.9-7.2l3-10.1h7.6l-8,23.2h-9.1L515.4,50.1z"/>
	<path d="M544.4,61.7c-0.2-6.6,5-12,11.6-12.2c0.2,0,0.4,0,0.6,0c7.3,0,11,5,11,11.2c0,1.1-0.1,2.2-0.3,3.3h-16.9v-5.2h11.4
		l-1.1,1.4c0-3-1.2-4.7-3.8-4.7c-3,0-4.7,1.9-4.7,6.1c0,4.4,2.1,6.1,6.4,6.1c1.9,0,3.8-0.5,5.6-1.4l2.5,4.8c-2.8,1.7-6,2.6-9.3,2.7
		C550.1,73.8,544.4,69.4,544.4,61.7z"/>
	<path d="M239.2,98.7h11.2c6.5,0,12,2.2,12,9.7c0,7.3-5.6,10.3-12,10.3h-3.2v10.1h-7.9V98.7H239.2z M249.8,112.5
		c3.2,0,4.8-1.4,4.8-4s-1.7-3.4-4.8-3.4h-2.7v7.4H249.8z M254.3,111.4l9.8,17.5h-8.9l-6.3-12.2L254.3,111.4z"/>
	<path d="M266.6,117.3c-0.2-6.6,5-12,11.6-12.2c0.2,0,0.4,0,0.6,0c7.3,0,11,5,11,11.2c0,1.1-0.1,2.2-0.3,3.3h-16.9v-5.1h11.3
		l-1.1,1.4c0-3-1.2-4.7-3.8-4.7c-3,0-4.7,1.9-4.7,6.1c0,4.4,2.1,6.1,6.4,6.1c1.9,0,3.8-0.5,5.6-1.4l2.6,4.7c-2.8,1.7-6,2.6-9.3,2.7
		C272.2,129.4,266.6,124.9,266.6,117.3z"/>
	<path d="M293.7,136l2.3-5.7c1.4,0.7,2.9,1,4.5,1c2.8,0,3.7-1.2,3.7-4.4v-15.1h-8.8v-6.2h16.8v21.1c0,5.7-2.4,10.8-11.2,10.8
		C298.5,137.6,296,137,293.7,136z"/>
	<path d="M322.1,117.3c-0.2-6.6,5-12,11.6-12.2c0.2,0,0.4,0,0.6,0c7.3,0,11,5,11,11.2c0,1.1-0.1,2.2-0.3,3.3h-16.8v-5.1h11.3
		l-1.1,1.4c0-3-1.2-4.7-3.8-4.7c-3,0-4.7,1.9-4.7,6.1c0,4.4,2.1,6.1,6.4,6.1c1.9,0,3.8-0.5,5.6-1.4l2.6,4.7c-2.8,1.7-6,2.6-9.3,2.7
		C327.8,129.4,322.1,124.9,322.1,117.3z"/>
	<path d="M350.6,96.6h8v17.3h0.2l7-8.3h8.6l-15.8,17.5v5.7h-8L350.6,96.6z M360.5,119l4.5-4.9l9.9,14.7h-8.6L360.5,119z"/>
	<path d="M382.9,119v-7.1h-5.6v-6l5.9-0.3l1-6.9h6.6v6.9h9.1v6.2h-9.1v7c0,3.3,1.5,4.3,4.5,4.3c1.4,0,2.9-0.3,4.2-0.7l1.4,5.7
		c-2.5,0.8-5.1,1.2-7.7,1.2C385.7,129.4,382.9,125.2,382.9,119z"/>
	<path d="M405.3,125.9l3.3-4.9c2.8,1.7,5.9,2.5,9.1,2.6c2,0,2.9-0.5,2.9-1.4c0-1.1-1.2-1.3-5.1-2.1c-6.4-1.4-8.7-3.8-8.7-7.4
		c0-4.5,4.3-7.5,11-7.5c3.7,0.1,7.2,1.2,10.3,3.2l-3.5,4.7c-2.3-1.3-4.9-2.1-7.5-2.1c-1.5,0-2.4,0.5-2.4,1.3c0,1,1.2,1.1,4.8,1.9
		c6.9,1.6,9,3.7,9,7.5c0,4.4-4.1,7.7-11.9,7.7C412.6,129.3,408.7,128.1,405.3,125.9z"/>
	<rect x="303.6" y="93" width="8.6" height="8.6"/>
	<rect x="498.1" y="37.4" width="8.6" height="8.6"/>
	<rect x="517.3" y="105.7" class="st0" width="8.6" height="8.6"/>
	<g>
		<path class="st0" d="M532.5,126.2c6.6-5.5,11-9.4,11-12.7c0-2.2-1.4-3.4-3.8-3.4c-1.8,0-3.3,1.1-4.6,2.3l-2.9-2.9
			c2.4-2.4,4.7-3.6,8.2-3.6c4.8,0,8.1,2.9,8.1,7.3c0,3.9-4,8-8.4,11.9c1.3-0.1,3-0.3,4.2-0.3h5.4v4.5h-17.3L532.5,126.2L532.5,126.2
			z"/>
		<g>
			<path class="st0" d="M553.6,125.9c6.6-5.5,11-9.4,11-12.7c0-2.2-1.4-3.4-3.8-3.4c-1.8,0-3.3,1.1-4.6,2.3l-2.9-2.9
				c2.4-2.4,4.7-3.6,8.2-3.6c4.8,0,8.1,2.9,8.1,7.3c0,3.9-4,8-8.4,11.9c1.3-0.1,3-0.3,4.2-0.3h5.4v4.5h-17.3L553.6,125.9
				L553.6,125.9z"/>
		</g>
	</g>
	<text transform="matrix(1 0 0 1 470.3574 129.8193)" class="st0 st2 st3">EU</text>
</g>
</svg>
