<svg width="766" height="333" viewBox="0 0 766 333" fill="none" xmlns="http://www.w3.org/2000/svg">
<path d="M759.745 166.5H765.355V161.897H759.745V166.5ZM759.745 157.495H765.355V152.892H759.745V157.495ZM759.745 148.289H765.355V143.686H759.745V148.289Z" fill="#2E2D2D"/>
<path d="M0.74353 166.5H6.35352V165.499H0.74353V166.5ZM0.74353 161.097H6.35352V156.494H0.74353V161.097ZM0.74353 151.891H6.35352V147.288H0.74353V151.891ZM0.74353 142.686H6.35352V138.083H0.74353V142.686Z" fill="#2E2D2D"/>
<path d="M11.4961 163.098H17.3398V158.495H11.7298V163.098H11.4961ZM11.4961 154.092H17.3398V149.49H11.7298V154.092H11.4961ZM11.4961 144.887H17.3398V140.284H11.7298V144.887H11.4961ZM11.4961 135.681H17.3398V131.079H11.7298V135.681H11.4961ZM11.4961 126.476H17.3398V122.073H11.7298V126.476H11.4961ZM11.4961 117.47H17.3398V112.868H11.7298V117.47H11.4961Z" fill="#2E2D2D"/>
<path d="M22.7157 164.299H28.3259V159.696H22.7157V164.299ZM22.7157 155.293H28.3259V150.691H22.7157V155.293ZM22.7157 146.088H28.3259V141.485H22.7157V146.088ZM22.7157 136.882H28.3259V132.279H22.7157V136.882ZM22.7157 127.677H28.3259V123.074H22.7157V127.677Z" fill="#2E2D2D"/>
<path d="M33.4692 166.5H39.0793V166.1H33.4692V166.5ZM33.4692 161.497H39.0793V156.894H33.4692V161.497ZM33.4692 152.292H39.0793V147.689H33.4692V152.292ZM33.4692 143.086H39.0793V138.483H33.4692V143.086ZM33.4692 134.081H39.0793V129.478H33.4692V134.081ZM33.4692 124.875H39.0793V120.272H33.4692V124.875ZM33.4692 115.67H39.0793V111.067H33.4692V115.67ZM33.4692 106.664H39.0793V102.061H33.4692V106.664Z" fill="#2E2D2D"/>
<path d="M44.6892 162.898H50.2993V158.295H44.6892V162.898ZM44.6892 153.692H50.2993V149.09H44.6892V153.692ZM44.6892 144.687H50.2993V140.084H44.6892V144.687ZM44.6892 135.481H50.2993V130.879H44.6892V135.481ZM44.6892 126.276H50.2993V121.673H44.6892V126.276Z" fill="#2E2D2D"/>
<path d="M55.6761 165.499H61.2861V160.897H55.6761V165.499ZM55.6761 156.294H61.2861V151.691H55.6761V156.294ZM55.6761 147.088H61.2861V142.486H55.6761V147.088ZM55.6761 137.883H61.2861V133.28H55.6761V137.883ZM55.6761 128.877H61.2861V124.275H55.6761V128.877ZM55.6761 119.672H61.2861V115.069H55.6761V119.672ZM55.6761 110.466H61.2861V106.064H55.6761V110.466ZM55.6761 101.461H61.2861V96.8583H55.6761V101.461ZM55.6761 92.2555H61.2861V87.6527H55.6761V92.2555Z" fill="#2E2D2D"/>
<path d="M66.6626 166.5H72.2727V162.097H66.6626V166.5ZM66.6626 157.495H72.2727V152.892H66.6626V157.495ZM66.6626 148.289H72.2727V143.686H66.6626V148.289ZM66.6626 139.084H72.2727V134.481H66.6626V139.084ZM66.6626 130.078H72.2727V125.475H66.6626V130.078ZM66.6626 120.873H72.2727V116.27H66.6626V120.873ZM66.6626 111.667H72.2727V107.064H66.6626V111.667Z" fill="#2E2D2D"/>
<path d="M77.6491 166.5H83.2593V165.499H77.6491V166.5ZM77.6491 160.897H83.2593V156.294H77.6491V160.897ZM77.6491 151.891H83.2593V147.288H77.6491V151.891ZM77.6491 142.686H83.2593V138.083H77.6491V142.686ZM77.6491 133.48H83.2593V128.877H77.6491V133.48ZM77.6491 124.475H83.2593V119.872H77.6491V124.475ZM77.6491 115.269H83.2593V110.666H77.6491V115.269ZM77.6491 106.064H83.2593V101.461H77.6491V106.064ZM77.6491 97.0583H83.2593V92.4555H77.6491V97.0583ZM77.6491 87.8528H83.2593V83.25H77.6491V87.8528Z" fill="#2E2D2D"/>
<path d="M88.6351 162.298H94.479V157.695H88.8688V162.298H88.6351ZM88.6351 153.292H94.479V148.689H88.8688V153.292H88.6351ZM88.6351 144.087H94.479V139.484H88.8688V144.087H88.6351ZM88.6351 134.881H94.479V130.278H88.8688V134.881H88.6351ZM88.6351 125.876H94.479V121.273H88.8688V125.876H88.6351ZM88.6351 116.67H94.479V112.067H88.8688V116.67H88.6351ZM88.6351 107.465H94.479V102.862H88.8688V107.465H88.6351ZM88.6351 98.4591H94.479V93.8564H88.8688V98.4591H88.6351ZM88.6351 89.2536H94.479V84.6508H88.8688V89.2536H88.6351ZM88.6351 80.0481H94.479V75.4453H88.8688V80.0481H88.6351ZM88.6351 71.0427H94.479V66.4399H88.8688V71.0427H88.6351ZM88.6351 61.8371H94.479V57.2344H88.8688V61.8371H88.6351Z" fill="#2E2D2D"/>
<path d="M99.6219 166.5H105.232V164.699H99.6219V166.5ZM99.6219 160.096H105.232V155.493H99.6219V160.096ZM99.6219 150.891H105.232V146.288H99.6219V150.891ZM99.6219 141.885H105.232V137.282H99.6219V141.885ZM99.6219 132.68H105.232V128.077H99.6219V132.68ZM99.6219 123.474H105.232V118.871H99.6219V123.474ZM99.6219 114.469H105.232V109.866H99.6219V114.469ZM99.6219 105.263H105.232V100.66H99.6219V105.263ZM99.6219 96.0577H105.232V91.4549H99.6219V96.0577ZM99.6219 87.0523H105.232V82.4495H99.6219V87.0523ZM99.6219 77.8467H105.232V73.244H99.6219V77.8467Z" fill="#2E2D2D"/>
<path d="M110.608 166.5H116.218V163.698H110.608V166.5ZM110.608 159.096H116.218V154.493H110.608V159.096ZM110.608 150.09H116.218V145.487H110.608V150.09ZM110.608 140.885H116.218V136.282H110.608V140.885ZM110.608 131.679H116.218V127.076H110.608V131.679ZM110.608 122.674H116.218V118.071H110.608V122.674ZM110.608 113.468H116.218V108.865H110.608V113.468ZM110.608 104.263H116.218V99.6598H110.608V104.263ZM110.608 95.0571H116.218V90.4543H110.608V95.0571Z" fill="#2E2D2D"/>
<path d="M121.595 163.899H127.205V159.296H121.595V163.899ZM121.595 154.693H127.205V150.09H121.595V154.693ZM121.595 145.688H127.205V141.085H121.595V145.688ZM121.595 136.482H127.205V131.879H121.595V136.482ZM121.595 127.277H127.205V122.674H121.595V127.277ZM121.595 118.271H127.205V113.668H121.595V118.271ZM121.595 109.066H127.205V104.463H121.595V109.066ZM121.595 99.8601H127.205V95.2573H121.595V99.8601ZM121.595 90.8546H127.205V86.2519H121.595V90.8546ZM121.595 81.6491H127.205V77.0463H121.595V81.6491ZM121.595 72.4436H127.205V67.8408H121.595V72.4436Z" fill="#2E2D2D"/>
<path d="M132.581 166.3H138.191V161.697H132.581V166.3ZM132.581 157.295H138.191V152.692H132.581V157.295ZM132.581 148.089H138.191V143.486H132.581V148.089ZM132.581 138.884H138.191V134.281H132.581V138.884ZM132.581 129.878H138.191V125.275H132.581V129.878ZM132.581 120.673H138.191V116.07H132.581V120.673ZM132.581 111.467H138.191V106.864H132.581V111.467ZM132.581 102.262H138.191V97.6588H132.581V102.262Z" fill="#2E2D2D"/>
<path d="M143.567 166.5H149.177V166.3H143.567V166.5ZM143.567 161.697H149.177V157.094H143.567V161.697ZM143.567 152.492H149.177V148.089H143.567V152.492ZM143.567 143.486H149.177V138.883H143.567V143.486ZM143.567 134.281H149.177V129.678H143.567V134.281ZM143.567 125.075H149.177V120.472H143.567V125.075ZM143.567 116.07H149.177V111.467H143.567V116.07Z" fill="#2E2D2D"/>
<path d="M154.554 163.098H160.164V158.495H154.554V163.098ZM154.554 154.092H160.164V149.49H154.554V154.092ZM154.554 144.887H160.164V140.284H154.554V144.887ZM154.554 135.681H160.164V131.079H154.554V135.681ZM154.554 126.476H160.164V122.073H154.554V126.476ZM154.554 117.47H160.164V112.868H154.554V117.47Z" fill="#2E2D2D"/>
<path d="M165.541 163.098H171.151V158.495H165.541V163.098ZM165.541 154.093H171.151V149.49H165.541V154.093ZM165.541 144.887H171.151V140.284H165.541V144.887ZM165.541 135.681H171.151V131.079H165.541V135.681ZM165.541 126.676H171.151V122.073H165.541V126.676ZM165.541 117.471H171.151V112.868H165.541V117.471ZM165.541 108.265H171.151V103.662H165.541V108.265ZM165.541 99.0595H171.151V94.4567H165.541V99.0595ZM165.541 90.0541H171.151V85.4513H165.541V90.0541ZM165.541 80.8486H171.151V76.2458H165.541V80.8486Z" fill="#2E2D2D"/>
<path d="M176.761 166.5H182.371V162.898H176.761V166.5ZM176.761 158.295H182.371V153.692H176.761V158.295ZM176.761 149.29H182.371V144.687H176.761V149.29ZM176.761 140.084H182.371V135.481H176.761V140.084ZM176.761 130.879H182.371V126.276H176.761V130.879ZM176.761 121.673H182.371V117.07H176.761V121.673ZM176.761 112.668H182.371V108.065H176.761V112.668ZM176.761 103.462H182.371V98.8594H176.761V103.462ZM176.761 94.2566H182.371V89.6539H176.761V94.2566ZM176.761 85.2512H182.371V80.6484H176.761V85.2512ZM176.761 76.0457H182.371V71.4429H176.761V76.0457ZM176.761 66.8401H182.371V62.2374H176.761V66.8401ZM176.761 57.8347H182.371V53.232H176.761V57.8347Z" fill="#2E2D2D"/>
<path d="M187.514 166.5H193.124V162.698H187.514V166.5ZM187.514 158.095H193.124V153.492H187.514V158.095ZM187.514 148.89H193.124V144.287H187.514V148.89ZM187.514 139.884H193.124V135.281H187.514V139.884ZM187.514 130.679H193.124V126.076H187.514V130.679ZM187.514 121.473H193.124V116.87H187.514V121.473ZM187.514 112.468H193.124V107.865H187.514V112.468ZM187.514 103.262H193.124V98.6593H187.514V103.262ZM187.514 94.0566H193.124V89.4538H187.514V94.0566ZM187.514 85.0512H193.124V80.4484H187.514V85.0512ZM187.514 75.8456H193.124V71.2429H187.514V75.8456ZM187.514 66.6401H193.124V62.0373H187.514V66.6401ZM187.514 57.6347H193.124V53.0319H187.514V57.6347ZM187.514 48.4292H193.124V43.8264H187.514V48.4292ZM187.514 39.2236H193.124V34.6209H187.514V39.2236Z" fill="#2E2D2D"/>
<path d="M198.733 166.5H204.344V164.499H198.733V166.5ZM198.733 160.096H204.344V155.493H198.733V160.096ZM198.733 150.891H204.344V146.288H198.733V150.891ZM198.733 141.685H204.344V137.082H198.733V141.685ZM198.733 132.68H204.344V128.077H198.733V132.68ZM198.733 123.474H204.344V118.871H198.733V123.474ZM198.733 114.269H204.344V109.666H198.733V114.269ZM198.733 105.063H204.344V100.46H198.733V105.063ZM198.733 96.0577H204.344V91.4549H198.733V96.0577ZM198.733 86.8522H204.344V82.2494H198.733V86.8522ZM198.733 77.6467H204.344V73.0439H198.733V77.6467ZM198.733 68.6412H204.344V64.0385H198.733V68.6412ZM198.733 59.4357H204.344V54.8329H198.733V59.4357ZM198.733 50.2302H204.344V45.6274H198.733V50.2302ZM198.733 41.2248H204.344V36.622H198.733V41.2248ZM198.733 32.0192H204.344V27.4165H198.733V32.0192ZM198.733 22.8137H204.344V18.2109H198.733V22.8137ZM198.733 13.8083H204.344V9.20553H198.733V13.8083ZM198.733 4.60277H204.344V0H198.733V4.60277Z" fill="#2E2D2D"/>
<path d="M209.487 166.5H215.097V162.698H209.487V166.5ZM209.487 158.095H215.097V153.492H209.487V158.095ZM209.487 148.89H215.097V144.287H209.487V148.89ZM209.487 139.884H215.097V135.281H209.487V139.884ZM209.487 130.679H215.097V126.076H209.487V130.679ZM209.487 121.473H215.097V116.87H209.487V121.473ZM209.487 112.468H215.097V107.865H209.487V112.468ZM209.487 103.262H215.097V98.6593H209.487V103.262ZM209.487 94.0566H215.097V89.4538H209.487V94.0566ZM209.487 85.0512H215.097V80.4484H209.487V85.0512ZM209.487 75.8456H215.097V71.2429H209.487V75.8456ZM209.487 66.6401H215.097V62.0373H209.487V66.6401ZM209.487 57.6347H215.097V53.0319H209.487V57.6347ZM209.487 48.4292H215.097V43.8264H209.487V48.4292ZM209.487 39.2236H215.097V34.6209H209.487V39.2236Z" fill="#2E2D2D"/>
<path d="M220.707 163.098H226.317V158.495H220.707V163.098ZM220.707 153.892H226.317V149.29H220.707V153.892ZM220.707 144.887H226.317V140.284H220.707V144.887ZM220.707 135.682H226.317V131.079H220.707V135.682ZM220.707 126.476H226.317V122.073H220.707V126.476ZM220.707 117.471H226.317V112.868H220.707V117.471ZM220.707 108.265H226.317V103.662H220.707V108.265ZM220.707 99.0595H226.317V94.4568H220.707V99.0595ZM220.707 90.0541H226.317V85.4514H220.707V90.0541ZM220.707 80.8486H226.317V76.2458H220.707V80.8486ZM220.707 71.6431H226.317V67.0403H220.707V71.6431ZM220.707 62.6376H226.317V58.0349H220.707V62.6376Z" fill="#2E2D2D"/>
<path d="M231.459 163.498H237.069V158.896H231.459V163.498ZM231.459 154.293H237.069V149.69H231.459V154.293ZM231.459 145.287H237.069V140.685H231.459V145.287ZM231.459 136.082H237.069V131.479H231.459V136.082ZM231.459 126.876H237.069V122.274H231.459V126.876ZM231.459 117.871H237.069V113.268H231.459V117.871Z" fill="#2E2D2D"/>
<path d="M242.68 162.498H248.29V157.895H242.68V162.498ZM242.68 153.292H248.29V148.689H242.68V153.292ZM242.68 144.087H248.29V139.484H242.68V144.087ZM242.68 135.081H248.29V130.479H242.68V135.081ZM242.68 125.876H248.29V121.273H242.68V125.876ZM242.68 116.67H248.29V112.067H242.68V116.67ZM242.68 107.665H248.29V103.062H242.68V107.665ZM242.68 98.4593H248.29V93.8565H242.68V98.4593ZM242.68 89.2537H248.29V84.651H242.68V89.2537Z" fill="#2E2D2D"/>
<path d="M253.432 164.299H259.042V159.696H253.432V164.299ZM253.432 155.293H259.042V150.691H253.432V155.293ZM253.432 146.088H259.042V141.485H253.432V146.088ZM253.432 136.882H259.042V132.279H253.432V136.882ZM253.432 127.677H259.042V123.074H253.432V127.677Z" fill="#2E2D2D"/>
<path d="M264.653 166.5H270.263V162.898H264.653V166.5ZM264.653 158.495H270.263V153.892H264.653V158.495ZM264.653 149.29H270.263V144.687H264.653V149.29ZM264.653 140.084H270.263V135.481H264.653V140.084ZM264.653 130.879H270.263V126.276H264.653V130.879ZM264.653 121.873H270.263V117.271H264.653V121.873ZM264.653 112.668H270.263V108.065H264.653V112.668ZM264.653 103.462H270.263V98.8595H264.653V103.462Z" fill="#2E2D2D"/>
<path d="M275.639 163.098H281.249V158.495H275.639V163.098ZM275.639 154.092H281.249V149.49H275.639V154.092ZM275.639 144.887H281.249V140.284H275.639V144.887ZM275.639 135.681H281.249V131.079H275.639V135.681ZM275.639 126.476H281.249V122.073H275.639V126.476ZM275.639 117.47H281.249V112.868H275.639V117.47Z" fill="#2E2D2D"/>
<path d="M286.625 166.5H292.235V162.498H286.625V166.5ZM286.625 157.895H292.235V153.292H286.625V157.895ZM286.625 148.889H292.235V144.287H286.625V148.889ZM286.625 139.684H292.235V135.081H286.625V139.684Z" fill="#2E2D2D"/>
<path d="M297.611 163.698H303.222V159.096H297.611V163.698ZM297.611 154.693H303.222V150.09H297.611V154.693ZM297.611 145.487H303.222V140.885H297.611V145.487ZM297.611 136.282H303.222V131.679H297.611V136.282ZM297.611 127.276H303.222V122.674H297.611V127.276ZM297.611 118.071H303.222V113.468H297.611V118.071ZM297.611 108.865H303.222V104.263H297.611V108.865ZM297.611 99.6599H303.222V95.0571H297.611V99.6599ZM297.611 90.6545H303.222V86.0517H297.611V90.6545Z" fill="#2E2D2D"/>
<path d="M308.599 166.5H314.209V163.898H308.599V166.5ZM308.599 159.296H314.209V154.693H308.599V159.296ZM308.599 150.09H314.209V145.487H308.599V150.09ZM308.599 141.085H314.209V136.482H308.599V141.085ZM308.599 131.879H314.209V127.276H308.599V131.879ZM308.599 122.674H314.209V118.071H308.599V122.674Z" fill="#2E2D2D"/>
<path d="M319.585 166.1H325.195V161.497H319.585V166.1ZM319.585 157.094H325.195V152.492H319.585V157.094ZM319.585 147.889H325.195V143.286H319.585V147.889ZM319.585 138.683H325.195V134.08H319.585V138.683ZM319.585 129.478H325.195V124.875H319.585V129.478ZM319.585 120.472H325.195V115.87H319.585V120.472ZM319.585 111.267H325.195V106.664H319.585V111.267ZM319.585 102.061H325.195V97.4585H319.585V102.061Z" fill="#2E2D2D"/>
<path d="M330.571 166.5H336.182V165.299H330.571V166.5ZM330.571 160.696H336.182V156.094H330.571V160.696ZM330.571 151.491H336.182V146.888H330.571V151.491ZM330.571 142.486H336.182V137.883H330.571V142.486ZM330.571 133.28H336.182V128.677H330.571V133.28ZM330.571 124.074H336.182V119.472H330.571V124.074ZM330.571 115.069H336.182V110.466H330.571V115.069ZM330.571 105.864H336.182V101.261H330.571V105.864ZM330.571 96.658H336.182V92.0553H330.571V96.658ZM330.571 87.4525H336.182V82.8497H330.571V87.4525ZM330.571 78.4471H336.182V73.8443H330.571V78.4471ZM330.571 69.2415H336.182V64.6388H330.571V69.2415ZM330.571 60.036H336.182V55.4333H330.571V60.036Z" fill="#2E2D2D"/>
<path d="M341.558 166.5H347.168V162.297H341.558V166.5ZM341.558 157.695H347.168V153.092H341.558V157.695ZM341.558 148.689H347.168V144.087H341.558V148.689ZM341.558 139.484H347.168V134.881H341.558V139.484ZM341.558 130.278H347.168V125.675H341.558V130.278ZM341.558 121.273H347.168V116.67H341.558V121.273ZM341.558 112.067H347.168V107.465H341.558V112.067ZM341.558 102.862H347.168V98.259H341.558V102.862ZM341.558 93.8563H347.168V89.2536H341.558V93.8563ZM341.558 84.6508H347.168V80.048H341.558V84.6508ZM341.558 75.4453H347.168V70.8425H341.558V75.4453ZM341.558 66.2397H347.168V61.637H341.558V66.2397ZM341.558 57.2343H347.168V52.6316H341.558V57.2343ZM341.558 48.0288H347.168V43.426H341.558V48.0288Z" fill="#2E2D2D"/>
<path d="M352.545 164.699H358.155V160.096H352.545V164.699ZM352.545 155.493H358.155V150.891H352.545V155.493ZM352.545 146.288H358.155V141.685H352.545V146.288ZM352.545 137.282H358.155V132.68H352.545V137.282ZM352.545 128.077H358.155V123.474H352.545V128.077ZM352.545 118.871H358.155V114.269H352.545V118.871ZM352.545 109.666H358.155V105.063H352.545V109.666ZM352.545 100.66H358.155V96.0576H352.545V100.66ZM352.545 91.4549H358.155V86.8521H352.545V91.4549ZM352.545 82.2493H358.155V77.6466H352.545V82.2493ZM352.545 73.2439H358.155V68.6412H352.545V73.2439ZM352.545 64.0384H358.155V59.4356H352.545V64.0384Z" fill="#2E2D2D"/>
<path d="M363.531 164.299H369.141V159.696H363.531V164.299ZM363.531 155.093H369.141V150.49H363.531V155.093ZM363.531 146.088H369.141V141.485H363.531V146.088ZM363.531 136.882H369.141V132.279H363.531V136.882ZM363.531 127.677H369.141V123.074H363.531V127.677ZM363.531 118.671H369.141V114.068H363.531V118.671ZM363.531 109.466H369.141V104.863H363.531V109.466Z" fill="#2E2D2D"/>
<path d="M374.517 162.297H380.127V157.695H374.517V162.297ZM374.517 153.092H380.127V148.489H374.517V153.092ZM374.517 144.087H380.127V139.484H374.517V144.087Z" fill="#2E2D2D"/>
<path d="M385.738 165.9H391.348V161.297H385.738V165.9ZM385.738 156.694H391.348V152.092H385.738V156.694ZM385.738 147.489H391.348V142.886H385.738V147.489ZM385.738 138.483H391.348V133.881H385.738V138.483ZM385.738 129.278H391.348V124.675H385.738V129.278Z" fill="#2E2D2D"/>
<path d="M396.49 164.699H402.101V160.096H396.49V164.699ZM396.49 155.493H402.101V150.891H396.49V155.493ZM396.49 146.288H402.101V141.685H396.49V146.288ZM396.49 137.282H402.101V132.68H396.49V137.282ZM396.49 128.077H402.101V123.474H396.49V128.077ZM396.49 118.871H402.101V114.269H396.49V118.871ZM396.49 109.866H402.101V105.263H396.49V109.866ZM396.49 100.66H402.101V96.0577H396.49V100.66Z" fill="#2E2D2D"/>
<path d="M407.71 166.5H413.32V165.499H407.71V166.5ZM407.71 161.097H413.32V156.494H407.71V161.097ZM407.71 151.891H413.32V147.288H407.71V151.891ZM407.71 142.686H413.32V138.083H407.71V142.686ZM407.71 133.68H413.32V129.077H407.71V133.68ZM407.71 124.475H413.32V119.872H407.71V124.475Z" fill="#2E2D2D"/>
<path d="M418.697 166.5H424.307V164.699H418.697V166.5ZM418.697 160.096H424.307V155.493H418.697V160.096ZM418.697 150.891H424.307V146.288H418.697V150.891ZM418.697 141.885H424.307V137.282H418.697V141.885ZM418.697 132.68H424.307V128.077H418.697V132.68ZM418.697 123.474H424.307V118.871H418.697V123.474ZM418.697 114.469H424.307V109.866H418.697V114.469ZM418.697 105.263H424.307V100.66H418.697V105.263ZM418.697 96.0577H424.307V91.4549H418.697V96.0577ZM418.697 87.0523H424.307V82.4495H418.697V87.0523ZM418.697 77.8467H424.307V73.244H418.697V77.8467Z" fill="#2E2D2D"/>
<path d="M429.683 164.699H435.293V160.096H429.683V164.699ZM429.683 155.493H435.293V150.891H429.683V155.493ZM429.683 146.288H435.293V141.685H429.683V146.288ZM429.683 137.282H435.293V132.68H429.683V137.282ZM429.683 128.077H435.293V123.474H429.683V128.077ZM429.683 118.871H435.293V114.269H429.683V118.871ZM429.683 109.866H435.293V105.263H429.683V109.866ZM429.683 100.66H435.293V96.0577H429.683V100.66Z" fill="#2E2D2D"/>
<path d="M440.67 162.298H446.28V157.695H440.67V162.298ZM440.67 153.092H446.28V148.489H440.67V153.092ZM440.67 144.087H446.28V139.484H440.67V144.087ZM440.67 134.881H446.28V130.278H440.67V134.881ZM440.67 125.675H446.28V121.073H440.67V125.675ZM440.67 116.67H446.28V112.067H440.67V116.67ZM440.67 107.465H446.28V102.862H440.67V107.465ZM440.67 98.259H446.28V93.6563H440.67V98.259ZM440.67 89.0535H446.28V84.4507H440.67V89.0535ZM440.67 80.0481H446.28V75.4453H440.67V80.0481ZM440.67 70.8426H446.28V66.2398H440.67V70.8426ZM440.67 61.637H446.28V57.0343H440.67V61.637ZM440.67 52.6316H446.28V48.0288H440.67V52.6316Z" fill="#2E2D2D"/>
<path d="M451.656 166.3H457.266V161.697H451.656V166.3ZM451.656 157.094H457.266V152.491H451.656V157.094ZM451.656 148.089H457.266V143.486H451.656V148.089ZM451.656 138.883H457.266V134.281H451.656V138.883ZM451.656 129.678H457.266V125.075H451.656V129.678ZM451.656 120.672H457.266V116.07H451.656V120.672ZM451.656 111.467H457.266V106.864H451.656V111.467Z" fill="#2E2D2D"/>
<path d="M462.643 166.1H468.253V161.497H462.643V166.1ZM462.643 156.894H468.253V152.292H462.643V156.894ZM462.643 147.689H468.253V143.086H462.643V147.689Z" fill="#2E2D2D"/>
<path d="M473.629 166.1H479.239V161.497H473.629V166.1ZM473.629 157.094H479.239V152.492H473.629V157.094ZM473.629 147.889H479.239V143.286H473.629V147.889ZM473.629 138.683H479.239V134.08H473.629V138.683ZM473.629 129.478H479.239V124.875H473.629V129.478ZM473.629 120.472H479.239V115.87H473.629V120.472ZM473.629 111.267H479.239V106.664H473.629V111.267ZM473.629 102.061H479.239V97.4585H473.629V102.061Z" fill="#2E2D2D"/>
<path d="M484.616 166.5H490.226V163.898H484.616V166.5ZM484.616 159.296H490.226V154.693H484.616V159.296ZM484.616 150.09H490.226V145.487H484.616V150.09ZM484.616 141.085H490.226V136.482H484.616V141.085ZM484.616 131.879H490.226V127.276H484.616V131.879ZM484.616 122.674H490.226V118.071H484.616V122.674Z" fill="#2E2D2D"/>
<path d="M495.603 166.5H501.213V164.699H495.603V166.5ZM495.603 160.096H501.213V155.493H495.603V160.096ZM495.603 150.891H501.213V146.288H495.603V150.891ZM495.603 141.885H501.213V137.282H495.603V141.885ZM495.603 132.68H501.213V128.077H495.603V132.68ZM495.603 123.474H501.213V118.871H495.603V123.474ZM495.603 114.469H501.213V109.866H495.603V114.469ZM495.603 105.263H501.213V100.66H495.603V105.263ZM495.603 96.0577H501.213V91.4549H495.603V96.0577ZM495.603 87.0523H501.213V82.4495H495.603V87.0523ZM495.603 77.8467H501.213V73.244H495.603V77.8467Z" fill="#2E2D2D"/>
<path d="M506.589 166.5H512.199V166.1H506.589V166.5ZM506.589 161.497H512.199V156.894H506.589V161.497ZM506.589 152.292H512.199V147.689H506.589V152.292ZM506.589 143.086H512.199V138.483H506.589V143.086ZM506.589 134.081H512.199V129.478H506.589V134.081ZM506.589 124.875H512.199V120.272H506.589V124.875ZM506.589 115.67H512.199V111.067H506.589V115.67ZM506.589 106.664H512.199V102.061H506.589V106.664Z" fill="#2E2D2D"/>
<path d="M517.575 163.498H523.185V158.895H517.575V163.498ZM517.575 154.293H523.185V149.69H517.575V154.293ZM517.575 145.287H523.185V140.685H517.575V145.287ZM517.575 136.082H523.185V131.479H517.575V136.082Z" fill="#2E2D2D"/>
<path d="M528.562 163.898H534.172V159.296H528.562V163.898ZM528.562 154.893H534.172V150.29H528.562V154.893ZM528.562 145.687H534.172V141.085H528.562V145.687ZM528.562 136.482H534.172V132.079H528.562V136.482ZM528.562 127.477H534.172V122.874H528.562V127.477ZM528.562 118.271H534.172V113.668H528.562V118.271ZM528.562 109.065H534.172V104.463H528.562V109.065ZM528.562 100.06H534.172V95.4573H528.562V100.06ZM528.562 90.8545H534.172V86.2518H528.562V90.8545ZM528.562 81.649H534.172V77.0462H528.562V81.649ZM528.562 72.6436H534.172V68.0408H528.562V72.6436ZM528.562 63.438H534.172V58.8353H528.562V63.438ZM528.562 54.2325H534.172V49.6297H528.562V54.2325ZM528.562 45.027H534.172V40.4242H528.562V45.027ZM528.562 36.0216H534.172V31.4188H528.562V36.0216Z" fill="#2E2D2D"/>
<path d="M539.782 164.299H545.392V159.696H539.782V164.299ZM539.782 155.093H545.392V150.49H539.782V155.093ZM539.782 145.888H545.392V141.285H539.782V145.888ZM539.782 136.882H545.392V132.279H539.782V136.882ZM539.782 127.677H545.392V123.074H539.782V127.677ZM539.782 118.471H545.392V113.868H539.782V118.471Z" fill="#2E2D2D"/>
<path d="M550.535 165.499H556.145V160.897H550.535V165.499ZM550.535 156.494H556.145V151.891H550.535V156.494ZM550.535 147.289H556.145V142.686H550.535V147.289ZM550.535 138.083H556.145V133.48H550.535V138.083ZM550.535 129.078H556.145V124.475H550.535V129.078ZM550.535 119.872H556.145V115.269H550.535V119.872ZM550.535 110.667H556.145V106.064H550.535V110.667ZM550.535 101.661H556.145V97.0584H550.535V101.661ZM550.535 92.4556H556.145V87.8528H550.535V92.4556ZM550.535 83.2501H556.145V78.6473H550.535V83.2501Z" fill="#2E2D2D"/>
<path d="M561.755 166.5H567.365V162.298H561.755V166.5ZM561.755 157.895H567.365V153.292H561.755V157.895ZM561.755 148.689H567.365V144.087H561.755V148.689ZM561.755 139.484H567.365V134.881H561.755V139.484ZM561.755 130.479H567.365V125.876H561.755V130.479ZM561.755 121.273H567.365V116.67H561.755V121.273ZM561.755 112.067H567.365V107.465H561.755V112.067ZM561.755 103.062H567.365V98.4593H561.755V103.062ZM561.755 93.8565H567.365V89.2537H561.755V93.8565ZM561.755 84.651H567.365V80.0482H561.755V84.651ZM561.755 75.6455H567.365V71.0428H561.755V75.6455ZM561.755 66.44H567.365V61.8372H561.755V66.44ZM561.755 57.2345H567.365V52.6317H561.755V57.2345Z" fill="#2E2D2D"/>
<path d="M572.507 166.5H578.351V164.499H572.741V166.5H572.507ZM572.507 159.896H578.351V155.293H572.741V159.896H572.507ZM572.507 150.69H578.351V146.088H572.741V150.69H572.507ZM572.507 141.685H578.351V137.082H572.741V141.685H572.507ZM572.507 132.48H578.351V127.877H572.741V132.48H572.507ZM572.507 123.274H578.351V118.671H572.741V123.274H572.507ZM572.507 114.269H578.351V109.666H572.741V114.269H572.507ZM572.507 105.063H578.351V100.46H572.741V105.063H572.507Z" fill="#2E2D2D"/>
<path d="M583.728 166.5H589.338V164.099H583.728V166.5ZM583.728 159.496H589.338V154.893H583.728V159.496ZM583.728 150.491H589.338V145.888H583.728V150.491ZM583.728 141.285H589.338V136.682H583.728V141.285ZM583.728 132.079H589.338V127.477H583.728V132.079ZM583.728 122.874H589.338V118.271H583.728V122.874ZM583.728 113.869H589.338V109.266H583.728V113.869ZM583.728 104.663H589.338V100.06H583.728V104.663ZM583.728 95.4574H589.338V90.8547H583.728V95.4574ZM583.728 86.452H589.338V81.8493H583.728V86.452ZM583.728 77.2465H589.338V72.6437H583.728V77.2465Z" fill="#2E2D2D"/>
<path d="M594.48 163.098H600.091V158.495H594.48V163.098ZM594.48 154.093H600.091V149.49H594.48V154.093ZM594.48 144.887H600.091V140.284H594.48V144.887ZM594.48 135.682H600.091V131.079H594.48V135.682ZM594.48 126.476H600.091V122.073H594.48V126.476Z" fill="#2E2D2D"/>
<path d="M605.701 164.299H611.311V159.696H605.701V164.299ZM605.701 155.093H611.311V150.49H605.701V155.093ZM605.701 146.088H611.311V141.485H605.701V146.088ZM605.701 136.882H611.311V132.279H605.701V136.882ZM605.701 127.677H611.311V123.074H605.701V127.677ZM605.701 118.671H611.311V114.068H605.701V118.671ZM605.701 109.466H611.311V104.863H605.701V109.466Z" fill="#2E2D2D"/>
<path d="M616.453 164.099H622.063V159.496H616.453V164.099ZM616.453 155.093H622.063V150.49H616.453V155.093ZM616.453 145.888H622.063V141.285H616.453V145.888ZM616.453 136.682H622.063V132.079H616.453V136.682ZM616.453 127.677H622.063V123.074H616.453V127.677ZM616.453 118.471H622.063V113.868H616.453V118.471ZM616.453 109.266H622.063V104.663H616.453V109.266ZM616.453 100.06H622.063V95.4574H616.453V100.06ZM616.453 91.0547H622.063V86.4519H616.453V91.0547ZM616.453 81.8492H622.063V77.2464H616.453V81.8492ZM616.453 72.6436H622.063V68.0409H616.453V72.6436Z" fill="#2E2D2D"/>
<path d="M627.673 166.5H633.283V162.297H627.673V166.5ZM627.673 157.695H633.283V153.092H627.673V157.695ZM627.673 148.689H633.283V144.087H627.673V148.689ZM627.673 139.484H633.283V134.881H627.673V139.484ZM627.673 130.278H633.283V125.675H627.673V130.278ZM627.673 121.273H633.283V116.67H627.673V121.273ZM627.673 112.067H633.283V107.465H627.673V112.067ZM627.673 102.862H633.283V98.259H627.673V102.862ZM627.673 93.8563H633.283V89.2536H627.673V93.8563ZM627.673 84.6508H633.283V80.048H627.673V84.6508ZM627.673 75.4453H633.283V70.8425H627.673V75.4453ZM627.673 66.2397H633.283V61.637H627.673V66.2397ZM627.673 57.2343H633.283V52.6316H627.673V57.2343ZM627.673 48.0288H633.283V43.426H627.673V48.0288Z" fill="#2E2D2D"/>
<path d="M638.66 166.5H644.271V164.699H638.66V166.5ZM638.66 160.096H644.271V155.493H638.66V160.096ZM638.66 151.091H644.271V146.488H638.66V151.091ZM638.66 141.885H644.271V137.282H638.66V141.885ZM638.66 132.68H644.271V128.077H638.66V132.68ZM638.66 123.674H644.271V119.071H638.66V123.674ZM638.66 114.469H644.271V109.866H638.66V114.469ZM638.66 105.263H644.271V100.66H638.66V105.263ZM638.66 96.0577H644.271V91.4549H638.66V96.0577Z" fill="#2E2D2D"/>
<path d="M649.646 164.299H655.49V159.696H649.88V164.299H649.646ZM649.646 155.093H655.49V150.49H649.88V155.093H649.646ZM649.646 145.888H655.49V141.285H649.88V145.888H649.646ZM649.646 136.882H655.49V132.279H649.88V136.882H649.646ZM649.646 127.677H655.49V123.074H649.88V127.677H649.646ZM649.646 118.471H655.49V113.868H649.88V118.471H649.646Z" fill="#2E2D2D"/>
<path d="M660.633 163.899H666.243V159.296H660.633V163.899ZM660.633 154.693H666.243V150.09H660.633V154.693ZM660.633 145.487H666.243V140.885H660.633V145.487ZM660.633 136.482H666.243V131.879H660.633V136.482ZM660.633 127.276H666.243V122.674H660.633V127.276ZM660.633 118.071H666.243V113.468H660.633V118.071ZM660.633 109.066H666.243V104.463H660.633V109.066ZM660.633 99.86H666.243V95.2572H660.633V99.86ZM660.633 90.6545H666.243V86.0517H660.633V90.6545ZM660.633 81.6491H666.243V77.0463H660.633V81.6491Z" fill="#2E2D2D"/>
<path d="M671.62 166.5H677.23V162.298H671.62V166.5ZM671.62 157.895H677.23V153.292H671.62V157.895ZM671.62 148.689H677.23V144.087H671.62V148.689ZM671.62 139.484H677.23V134.881H671.62V139.484ZM671.62 130.479H677.23V125.876H671.62V130.479ZM671.62 121.273H677.23V116.67H671.62V121.273ZM671.62 112.067H677.23V107.465H671.62V112.067ZM671.62 103.062H677.23V98.4593H671.62V103.062ZM671.62 93.8565H677.23V89.2537H671.62V93.8565ZM671.62 84.651H677.23V80.0482H671.62V84.651ZM671.62 75.6455H677.23V71.0428H671.62V75.6455ZM671.62 66.44H677.23V61.8372H671.62V66.44ZM671.62 57.2345H677.23V52.6317H671.62V57.2345Z" fill="#2E2D2D"/>
<path d="M682.607 166.5H688.217V165.099H682.607V166.5ZM682.607 160.496H688.217V155.894H682.607V160.496ZM682.607 151.491H688.217V146.888H682.607V151.491ZM682.607 142.286H688.217V137.683H682.607V142.286ZM682.607 133.08H688.217V128.477H682.607V133.08ZM682.607 123.874H688.217V119.272H682.607V123.874ZM682.607 114.869H688.217V110.266H682.607V114.869ZM682.607 105.664H688.217V101.061H682.607V105.664ZM682.607 96.458H688.217V92.0553H682.607V96.458ZM682.607 87.4526H688.217V82.8498H682.607V87.4526ZM682.607 78.2471H688.217V73.6443H682.607V78.2471ZM682.607 69.0415H688.217V64.4388H682.607V69.0415ZM682.607 60.0361H688.217V55.4334H682.607V60.0361ZM682.607 50.8306H688.217V46.2278H682.607V50.8306ZM682.607 41.6251H688.217V37.0223H682.607V41.6251ZM682.607 32.6197H688.217V28.0169H682.607V32.6197ZM682.607 23.4141H688.217V18.8114H682.607V23.4141Z" fill="#2E2D2D"/>
<path d="M693.593 163.298H699.203V158.695H693.593V163.298ZM693.593 154.093H699.203V149.49H693.593V154.093ZM693.593 144.887H699.203V140.284H693.593V144.887ZM693.593 135.682H699.203V131.079H693.593V135.682ZM693.593 126.676H699.203V122.073H693.593V126.676ZM693.593 117.471H699.203V112.868H693.593V117.471ZM693.593 108.265H699.203V103.662H693.593V108.265ZM693.593 99.2597H699.203V94.6569H693.593V99.2597Z" fill="#2E2D2D"/>
<path d="M704.579 162.898H710.189V158.295H704.579V162.898ZM704.579 153.692H710.189V149.09H704.579V153.692ZM704.579 144.487H710.189V140.084H704.579V144.487ZM704.579 135.481H710.189V130.879H704.579V135.481ZM704.579 126.276H710.189V121.673H704.579V126.276ZM704.579 117.07H710.189V112.467H704.579V117.07Z" fill="#2E2D2D"/>
<path d="M715.565 164.099H721.176V159.496H715.565V164.099ZM715.565 155.093H721.176V150.49H715.565V155.093ZM715.565 145.888H721.176V141.285H715.565V145.888ZM715.565 136.682H721.176V132.079H715.565V136.682ZM715.565 127.677H721.176V123.074H715.565V127.677ZM715.565 118.471H721.176V113.868H715.565V118.471ZM715.565 109.266H721.176V104.663H715.565V109.266ZM715.565 100.06H721.176V95.4574H715.565V100.06ZM715.565 91.0547H721.176V86.4519H715.565V91.0547ZM715.565 81.8492H721.176V77.2464H715.565V81.8492ZM715.565 72.6436H721.176V68.0409H715.565V72.6436Z" fill="#2E2D2D"/>
<path d="M726.552 164.299H732.162V159.696H726.552V164.299ZM726.552 155.293H732.162V150.691H726.552V155.293ZM726.552 146.088H732.162V141.485H726.552V146.088ZM726.552 136.882H732.162V132.279H726.552V136.882ZM726.552 127.677H732.162V123.074H726.552V127.677Z" fill="#2E2D2D"/>
<path d="M737.539 163.298H743.383V158.695H737.773V163.298H737.539ZM737.539 154.093H743.383V149.49H737.773V154.093H737.539ZM737.539 144.887H743.383V140.284H737.773V144.887H737.539ZM737.539 135.682H743.383V131.079H737.773V135.682H737.539ZM737.539 126.676H743.383V122.073H737.773V126.676H737.539ZM737.539 117.471H743.383V112.868H737.773V117.471H737.539ZM737.539 108.265H743.383V103.662H737.773V108.265H737.539ZM737.539 99.2597H743.383V94.6569H737.773V99.2597H737.539Z" fill="#2E2D2D"/>
<path d="M748.525 166.5H754.369V163.698H748.759V166.5H748.525ZM748.525 159.096H754.369V154.493H748.759V159.096H748.525ZM748.525 150.09H754.369V145.487H748.759V150.09H748.525ZM748.525 140.885H754.369V136.282H748.759V140.885H748.525ZM748.525 131.679H754.369V127.076H748.759V131.679H748.525Z" fill="#2E2D2D"/>
<path d="M759.745 189.314H765.355V184.711H759.745V189.314ZM759.745 180.308H765.355V175.706H759.745V180.308ZM759.745 171.103H765.355V166.5H759.745V171.103Z" fill="#2E2D2D"/>
<path d="M0.74353 194.917H6.35352V190.314H0.74353V194.917ZM0.74353 185.712H6.35352V181.109H0.74353V185.712ZM0.74353 176.506H6.35352V172.103H0.74353V176.506ZM0.74353 167.501H6.35352V166.5H0.74353V167.501Z" fill="#2E2D2D"/>
<path d="M11.4961 220.132H17.3398V215.529H11.7298V220.132H11.4961ZM11.4961 211.127H17.3398V206.524H11.7298V211.127H11.4961ZM11.4961 201.921H17.3398V197.318H11.7298V201.921H11.4961ZM11.4961 192.716H17.3398V188.113H11.7298V192.716H11.4961ZM11.4961 183.71H17.3398V179.107H11.7298V183.71H11.4961ZM11.4961 174.505H17.3398V169.902H11.7298V174.505H11.4961Z" fill="#2E2D2D"/>
<path d="M22.7157 209.926H28.3259V205.323H22.7157V209.926ZM22.7157 200.721H28.3259V196.118H22.7157V200.721ZM22.7157 191.515H28.3259V186.912H22.7157V191.515ZM22.7157 182.51H28.3259V177.907H22.7157V182.51ZM22.7157 173.304H28.3259V168.701H22.7157V173.304Z" fill="#2E2D2D"/>
<path d="M33.4692 231.139H39.0793V226.536H33.4692V231.139ZM33.4692 221.933H39.0793V217.331H33.4692V221.933ZM33.4692 212.728H39.0793V208.125H33.4692V212.728ZM33.4692 203.522H39.0793V198.919H33.4692V203.522ZM33.4692 194.517H39.0793V189.914H33.4692V194.517ZM33.4692 185.311H39.0793V180.709H33.4692V185.311ZM33.4692 176.106H39.0793V171.503H33.4692V176.106ZM33.4692 167.1H39.0793V166.5H33.4692V167.1Z" fill="#2E2D2D"/>
<path d="M44.6887 211.327H50.2988V206.724H44.6887V211.327ZM44.6887 202.121H50.2988V197.519H44.6887V202.121ZM44.6887 193.116H50.2988V188.513H44.6887V193.116ZM44.6887 183.911H50.2988V179.308H44.6887V183.911ZM44.6887 174.705H50.2988V170.102H44.6887V174.705Z" fill="#2E2D2D"/>
<path d="M55.6752 245.347H61.2852V240.745H55.6752V245.347ZM55.6752 236.342H61.2852V231.739H55.6752V236.342ZM55.6752 227.137H61.2852V222.534H55.6752V227.137ZM55.6752 217.931H61.2852V213.328H55.6752V217.931ZM55.6752 208.725H61.2852V204.123H55.6752V208.725ZM55.6752 199.72H61.2852V195.117H55.6752V199.72ZM55.6752 190.515H61.2852V185.912H55.6752V190.515ZM55.6752 181.309H61.2852V176.706H55.6752V181.309ZM55.6752 172.304H61.2852V167.701H55.6752V172.304Z" fill="#2E2D2D"/>
<path d="M66.6621 225.936H72.2722V221.333H66.6621V225.936ZM66.6621 216.73H72.2722V212.127H66.6621V216.73ZM66.6621 207.525H72.2722V202.922H66.6621V207.525ZM66.6621 198.519H72.2722V193.916H66.6621V198.519ZM66.6621 189.314H72.2722V184.711H66.6621V189.314ZM66.6621 180.108H72.2722V175.505H66.6621V180.108ZM66.6621 171.103H72.2722V166.5H66.6621V171.103Z" fill="#2E2D2D"/>
<path d="M77.6483 249.75H83.2585V245.147H77.6483V249.75ZM77.6483 240.745H83.2585V236.142H77.6483V240.745ZM77.6483 231.539H83.2585V226.936H77.6483V231.539ZM77.6483 222.334H83.2585V217.731H77.6483V222.334ZM77.6483 213.328H83.2585V208.725H77.6483V213.328ZM77.6483 204.123H83.2585V199.52H77.6483V204.123ZM77.6483 194.917H83.2585V190.314H77.6483V194.917ZM77.6483 185.712H83.2585V181.109H77.6483V185.712ZM77.6483 176.706H83.2585V172.103H77.6483V176.706ZM77.6483 167.501H83.2585V166.5H77.6483V167.501Z" fill="#2E2D2D"/>
<path d="M88.6348 275.766H94.4788V271.163H88.8686V275.766H88.6348ZM88.6348 266.76H94.4788V262.158H88.8686V266.76H88.6348ZM88.6348 257.555H94.4788V252.952H88.8686V257.555H88.6348ZM88.6348 248.349H94.4788V243.747H88.8686V248.349H88.6348ZM88.6348 239.344H94.4788V234.741H88.8686V239.344H88.6348ZM88.6348 230.138H94.4788V225.536H88.8686V230.138H88.6348ZM88.6348 220.933H94.4788V216.33H88.8686V220.933H88.6348ZM88.6348 211.927H94.4788V207.325H88.8686V211.927H88.6348ZM88.6348 202.722H94.4788V198.119H88.8686V202.722H88.6348ZM88.6348 193.516H94.4788V188.914H88.8686V193.516H88.6348ZM88.6348 184.511H94.4788V179.908H88.8686V184.511H88.6348ZM88.6348 175.305H94.4788V170.703H88.8686V175.305H88.6348Z" fill="#2E2D2D"/>
<path d="M99.6216 259.756H105.232V255.153H99.6216V259.756ZM99.6216 250.751H105.232V246.148H99.6216V250.751ZM99.6216 241.545H105.232V236.942H99.6216V241.545ZM99.6216 232.34H105.232V227.737H99.6216V232.34ZM99.6216 223.334H105.232V218.732H99.6216V223.334ZM99.6216 214.129H105.232V209.526H99.6216V214.129ZM99.6216 204.923H105.232V200.32H99.6216V204.923ZM99.6216 195.918H105.232V191.315H99.6216V195.918ZM99.6216 186.712H105.232V182.11H99.6216V186.712ZM99.6216 177.507H105.232V172.904H99.6216V177.507ZM99.6216 168.501H105.232V166.7H99.6216V168.501Z" fill="#2E2D2D"/>
<path d="M110.608 242.546H116.218V237.943H110.608V242.546ZM110.608 233.34H116.218V228.737H110.608V233.34ZM110.608 224.135H116.218V219.532H110.608V224.135ZM110.608 215.129H116.218V210.526H110.608V215.129ZM110.608 205.924H116.218V201.321H110.608V205.924ZM110.608 196.718H116.218V192.115H110.608V196.718ZM110.608 187.713H116.218V183.11H110.608V187.713ZM110.608 178.507H116.218V173.904H110.608V178.507ZM110.608 169.302H116.218V166.5H110.608V169.302Z" fill="#2E2D2D"/>
<path d="M121.595 265.159H127.205V260.557H121.595V265.159ZM121.595 255.954H127.205V251.351H121.595V255.954ZM121.595 246.948H127.205V242.346H121.595V246.948ZM121.595 237.743H127.205V233.14H121.595V237.743ZM121.595 228.537H127.205V223.935H121.595V228.537ZM121.595 219.532H127.205V214.929H121.595V219.532ZM121.595 210.326H127.205V205.724H121.595V210.326ZM121.595 201.121H127.205V196.518H121.595V201.121ZM121.595 191.915H127.205V187.313H121.595V191.915ZM121.595 182.91H127.205V178.307H121.595V182.91ZM121.595 173.704H127.205V169.102H121.595V173.704Z" fill="#2E2D2D"/>
<path d="M132.581 235.341H138.191V230.739H132.581V235.341ZM132.581 226.136H138.191V221.533H132.581V226.136ZM132.581 216.93H138.191V212.328H132.581V216.93ZM132.581 207.925H138.191V203.322H132.581V207.925ZM132.581 198.72H138.191V194.117H132.581V198.72ZM132.581 189.514H138.191V184.911H132.581V189.514ZM132.581 180.509H138.191V175.906H132.581V180.509ZM132.581 171.303H138.191V166.7H132.581V171.303Z" fill="#2E2D2D"/>
<path d="M143.567 221.733H149.177V217.131H143.567V221.733ZM143.567 212.528H149.177V207.925H143.567V212.528ZM143.567 203.322H149.177V198.719H143.567V203.322ZM143.567 194.317H149.177V189.714H143.567V194.317ZM143.567 185.111H149.177V180.509H143.567V185.111ZM143.567 175.906H149.177V171.303H143.567V175.906ZM143.567 166.9H149.177V166.7H143.567V166.9Z" fill="#2E2D2D"/>
<path d="M154.554 220.132H160.164V215.529H154.554V220.132ZM154.554 211.127H160.164V206.524H154.554V211.127ZM154.554 201.921H160.164V197.318H154.554V201.921ZM154.554 192.716H160.164V188.113H154.554V192.716ZM154.554 183.71H160.164V179.107H154.554V183.71ZM154.554 174.505H160.164V169.902H154.554V174.505Z" fill="#2E2D2D"/>
<path d="M165.54 256.754H171.15V252.151H165.54V256.754ZM165.54 247.549H171.15V242.946H165.54V247.549ZM165.54 238.543H171.15V233.94H165.54V238.543ZM165.54 229.338H171.15V224.735H165.54V229.338ZM165.54 220.132H171.15V215.529H165.54V220.132ZM165.54 211.127H171.15V206.524H165.54V211.127ZM165.54 201.921H171.15V197.318H165.54V201.921ZM165.54 192.716H171.15V188.113H165.54V192.716ZM165.54 183.71H171.15V179.107H165.54V183.71ZM165.54 174.505H171.15V169.902H165.54V174.505Z" fill="#2E2D2D"/>
<path d="M176.761 279.968H182.371V275.365H176.761V279.968ZM176.761 270.763H182.371V266.16H176.761V270.763ZM176.761 261.557H182.371V256.954H176.761V261.557ZM176.761 252.552H182.371V247.949H176.761V252.552ZM176.761 243.346H182.371V238.743H176.761V243.346ZM176.761 234.141H182.371V229.538H176.761V234.141ZM176.761 225.135H182.371V220.532H176.761V225.135ZM176.761 215.93H182.371V211.327H176.761V215.93ZM176.761 206.724H182.371V202.121H176.761V206.724ZM176.761 197.519H182.371V192.916H176.761V197.519ZM176.761 188.513H182.371V183.91H176.761V188.513ZM176.761 179.308H182.371V174.705H176.761V179.308ZM176.761 170.102H182.371V166.5H176.761V170.102Z" fill="#2E2D2D"/>
<path d="M187.513 298.379H193.123V293.776H187.513V298.379ZM187.513 289.174H193.123V284.571H187.513V289.174ZM187.513 280.168H193.123V275.566H187.513V280.168ZM187.513 270.963H193.123V266.36H187.513V270.963ZM187.513 261.757H193.123V257.154H187.513V261.757ZM187.513 252.752H193.123V248.149H187.513V252.752ZM187.513 243.546H193.123V238.944H187.513V243.546ZM187.513 234.341H193.123V229.738H187.513V234.341ZM187.513 225.335H193.123V220.733H187.513V225.335ZM187.513 216.13H193.123V211.527H187.513V216.13ZM187.513 206.924H193.123V202.322H187.513V206.924ZM187.513 197.719H193.123V193.116H187.513V197.719ZM187.513 188.713H193.123V184.111H187.513V188.713ZM187.513 179.508H193.123V174.905H187.513V179.508ZM187.513 170.302H193.123V166.5H187.513V170.302Z" fill="#2E2D2D"/>
<path d="M198.733 333H204.343V328.397H198.733V333ZM198.733 323.995H204.343V319.392H198.733V323.995ZM198.733 314.789H204.343V310.186H198.733V314.789ZM198.733 305.584H204.343V300.981H198.733V305.584ZM198.733 296.578H204.343V291.975H198.733V296.578ZM198.733 287.373H204.343V282.77H198.733V287.373ZM198.733 278.167H204.343V273.564H198.733V278.167ZM198.733 269.162H204.343V264.559H198.733V269.162ZM198.733 259.956H204.343V255.353H198.733V259.956ZM198.733 250.751H204.343V246.148H198.733V250.751ZM198.733 241.745H204.343V237.142H198.733V241.745ZM198.733 232.54H204.343V227.937H198.733V232.54ZM198.733 223.334H204.343V218.731H198.733V223.334ZM198.733 214.129H204.343V209.526H198.733V214.129ZM198.733 205.123H204.343V200.52H198.733V205.123ZM198.733 195.918H204.343V191.315H198.733V195.918ZM198.733 186.712H204.343V182.109H198.733V186.712ZM198.733 177.707H204.343V173.104H198.733V177.707ZM198.733 168.501H204.343V166.5H198.733V168.501Z" fill="#2E2D2D"/>
<path d="M209.487 298.379H215.097V293.776H209.487V298.379ZM209.487 289.174H215.097V284.571H209.487V289.174ZM209.487 280.168H215.097V275.566H209.487V280.168ZM209.487 270.963H215.097V266.36H209.487V270.963ZM209.487 261.757H215.097V257.154H209.487V261.757ZM209.487 252.752H215.097V248.149H209.487V252.752ZM209.487 243.546H215.097V238.944H209.487V243.546ZM209.487 234.341H215.097V229.738H209.487V234.341ZM209.487 225.335H215.097V220.733H209.487V225.335ZM209.487 216.13H215.097V211.527H209.487V216.13ZM209.487 206.924H215.097V202.322H209.487V206.924ZM209.487 197.719H215.097V193.116H209.487V197.719ZM209.487 188.713H215.097V184.111H209.487V188.713ZM209.487 179.508H215.097V174.905H209.487V179.508ZM209.487 170.302H215.097V166.5H209.487V170.302Z" fill="#2E2D2D"/>
<path d="M220.706 275.165H226.316V270.562H220.706V275.165ZM220.706 265.96H226.316V261.357H220.706V265.96ZM220.706 256.754H226.316V252.151H220.706V256.754ZM220.706 247.749H226.316V243.146H220.706V247.749ZM220.706 238.543H226.316V233.94H220.706V238.543ZM220.706 229.338H226.316V224.735H220.706V229.338ZM220.706 220.332H226.316V215.729H220.706V220.332ZM220.706 211.127H226.316V206.524H220.706V211.127ZM220.706 201.921H226.316V197.318H220.706V201.921ZM220.706 192.916H226.316V188.313H220.706V192.916ZM220.706 183.71H226.316V179.107H220.706V183.71ZM220.706 174.505H226.316V169.902H220.706V174.505Z" fill="#2E2D2D"/>
<path d="M231.459 219.932H237.069V215.329H231.459V219.932ZM231.459 210.727H237.069V206.124H231.459V210.727ZM231.459 201.521H237.069V196.918H231.459V201.521ZM231.459 192.516H237.069V187.913H231.459V192.516ZM231.459 183.31H237.069V178.707H231.459V183.31ZM231.459 174.105H237.069V169.502H231.459V174.105Z" fill="#2E2D2D"/>
<path d="M242.679 248.349H248.289V243.746H242.679V248.349ZM242.679 239.144H248.289V234.541H242.679V239.144ZM242.679 230.138H248.289V225.535H242.679V230.138ZM242.679 220.933H248.289V216.33H242.679V220.933ZM242.679 211.727H248.289V207.124H242.679V211.727ZM242.679 202.722H248.289V198.119H242.679V202.722ZM242.679 193.516H248.289V188.913H242.679V193.516ZM242.679 184.311H248.289V179.708H242.679V184.311ZM242.679 175.105H248.289V170.502H242.679V175.105Z" fill="#2E2D2D"/>
<path d="M253.432 209.926H259.042V205.323H253.432V209.926ZM253.432 200.721H259.042V196.118H253.432V200.721ZM253.432 191.515H259.042V186.912H253.432V191.515ZM253.432 182.51H259.042V177.907H253.432V182.51ZM253.432 173.304H259.042V168.701H253.432V173.304Z" fill="#2E2D2D"/>
<path d="M264.653 234.141H270.263V229.538H264.653V234.141ZM264.653 224.935H270.263V220.332H264.653V224.935ZM264.653 215.73H270.263V211.127H264.653V215.73ZM264.653 206.724H270.263V202.121H264.653V206.724ZM264.653 197.519H270.263V192.916H264.653V197.519ZM264.653 188.313H270.263V183.71H264.653V188.313ZM264.653 179.308H270.263V174.705H264.653V179.308ZM264.653 170.102H270.263V166.5H264.653V170.102Z" fill="#2E2D2D"/>
<path d="M275.639 220.132H281.249V215.529H275.639V220.132ZM275.639 211.127H281.249V206.524H275.639V211.127ZM275.639 201.921H281.249V197.318H275.639V201.921ZM275.639 192.716H281.249V188.113H275.639V192.716ZM275.639 183.71H281.249V179.107H275.639V183.71ZM275.639 174.505H281.249V169.902H275.639V174.505Z" fill="#2E2D2D"/>
<path d="M286.625 197.919H292.235V193.316H286.625V197.919ZM286.625 188.913H292.235V184.311H286.625V188.913ZM286.625 179.708H292.235V175.105H286.625V179.708ZM286.625 170.502H292.235V166.5H286.625V170.502Z" fill="#2E2D2D"/>
<path d="M297.611 247.148H303.222V242.546H297.611V247.148ZM297.611 237.943H303.222V233.34H297.611V237.943ZM297.611 228.737H303.222V224.134H297.611V228.737ZM297.611 219.532H303.222V214.929H297.611V219.532ZM297.611 210.526H303.222V205.924H297.611V210.526ZM297.611 201.321H303.222V196.718H297.611V201.321ZM297.611 192.115H303.222V187.512H297.611V192.115ZM297.611 183.11H303.222V178.507H297.611V183.11ZM297.611 173.904H303.222V169.302H297.611V173.904Z" fill="#2E2D2D"/>
<path d="M308.598 214.929H314.208V210.326H308.598V214.929ZM308.598 205.724H314.208V201.121H308.598V205.724ZM308.598 196.718H314.208V192.116H308.598V196.718ZM308.598 187.513H314.208V182.91H308.598V187.513ZM308.598 178.307H314.208V173.704H308.598V178.307ZM308.598 169.302H314.208V166.7H308.598V169.302Z" fill="#2E2D2D"/>
<path d="M319.585 235.541H325.195V230.939H319.585V235.541ZM319.585 226.336H325.195V221.733H319.585V226.336ZM319.585 217.13H325.195V212.528H319.585V217.13ZM319.585 208.125H325.195V203.522H319.585V208.125ZM319.585 198.919H325.195V194.317H319.585V198.919ZM319.585 189.714H325.195V185.111H319.585V189.714ZM319.585 180.708H325.195V176.106H319.585V180.708ZM319.585 171.503H325.195V166.9H319.585V171.503Z" fill="#2E2D2D"/>
<path d="M330.571 277.567H336.181V272.964H330.571V277.567ZM330.571 268.361H336.181V263.759H330.571V268.361ZM330.571 259.156H336.181V254.553H330.571V259.156ZM330.571 250.15H336.181V245.548H330.571V250.15ZM330.571 240.945H336.181V236.342H330.571V240.945ZM330.571 231.739H336.181V227.137H330.571V231.739ZM330.571 222.734H336.181V218.131H330.571V222.734ZM330.571 213.528H336.181V208.926H330.571V213.528ZM330.571 204.323H336.181V199.72H330.571V204.323ZM330.571 195.317H336.181V190.715H330.571V195.317ZM330.571 186.112H336.181V181.509H330.571V186.112ZM330.571 176.906H336.181V172.304H330.571V176.906ZM330.571 167.901H336.181V166.7H330.571V167.901Z" fill="#2E2D2D"/>
<path d="M341.557 289.574H347.167V284.971H341.557V289.574ZM341.557 280.368H347.167V275.766H341.557V280.368ZM341.557 271.363H347.167V266.76H341.557V271.363ZM341.557 262.157H347.167V257.555H341.557V262.157ZM341.557 252.952H347.167V248.349H341.557V252.952ZM341.557 243.947H347.167V239.344H341.557V243.947ZM341.557 234.741H347.167V230.138H341.557V234.741ZM341.557 225.535H347.167V220.933H341.557V225.535ZM341.557 216.53H347.167V211.927H341.557V216.53ZM341.557 207.325H347.167V202.722H341.557V207.325ZM341.557 198.119H347.167V193.516H341.557V198.119ZM341.557 189.114H347.167V184.511H341.557V189.114ZM341.557 179.908H347.167V175.305H341.557V179.908ZM341.557 170.703H347.167V166.5H341.557V170.703Z" fill="#2E2D2D"/>
<path d="M352.544 273.564H358.154V268.962H352.544V273.564ZM352.544 264.559H358.154V259.956H352.544V264.559ZM352.544 255.353H358.154V250.751H352.544V255.353ZM352.544 246.148H358.154V241.545H352.544V246.148ZM352.544 236.942H358.154V232.34H352.544V236.942ZM352.544 227.937H358.154V223.334H352.544V227.937ZM352.544 218.731H358.154V214.129H352.544V218.731ZM352.544 209.526H358.154V204.923H352.544V209.526ZM352.544 200.52H358.154V195.918H352.544V200.52ZM352.544 191.315H358.154V186.712H352.544V191.315ZM352.544 182.109H358.154V177.507H352.544V182.109ZM352.544 173.104H358.154V168.501H352.544V173.104Z" fill="#2E2D2D"/>
<path d="M363.53 228.137H369.14V223.534H363.53V228.137ZM363.53 219.132H369.14V214.529H363.53V219.132ZM363.53 209.926H369.14V205.323H363.53V209.926ZM363.53 200.721H369.14V196.118H363.53V200.721ZM363.53 191.715H369.14V187.112H363.53V191.715ZM363.53 182.51H369.14V177.907H363.53V182.51ZM363.53 173.304H369.14V168.701H363.53V173.304Z" fill="#2E2D2D"/>
<path d="M374.517 193.717H380.127V189.114H374.517V193.717ZM374.517 184.511H380.127V179.908H374.517V184.511ZM374.517 175.305H380.127V170.703H374.517V175.305Z" fill="#2E2D2D"/>
<path d="M385.737 208.325H391.347V203.722H385.737V208.325ZM385.737 199.32H391.347V194.717H385.737V199.32ZM385.737 190.114H391.347V185.511H385.737V190.114ZM385.737 180.908H391.347V176.306H385.737V180.908ZM385.737 171.903H391.347V167.3H385.737V171.903Z" fill="#2E2D2D"/>
<path d="M396.49 236.942H402.1V232.339H396.49V236.942ZM396.49 227.937H402.1V223.334H396.49V227.937ZM396.49 218.731H402.1V214.128H396.49V218.731ZM396.49 209.526H402.1V204.923H396.49V209.526ZM396.49 200.52H402.1V195.918H396.49V200.52ZM396.49 191.315H402.1V186.712H396.49V191.315ZM396.49 182.109H402.1V177.506H396.49V182.109ZM396.49 172.904H402.1V168.301H396.49V172.904Z" fill="#2E2D2D"/>
<path d="M407.71 213.128H413.32V208.525H407.71V213.128ZM407.71 204.123H413.32V199.52H407.71V204.123ZM407.71 194.917H413.32V190.314H407.71V194.917ZM407.71 185.712H413.32V181.109H407.71V185.712ZM407.71 176.706H413.32V172.103H407.71V176.706ZM407.71 167.501H413.32V166.5H407.71V167.501Z" fill="#2E2D2D"/>
<path d="M418.697 259.756H424.307V255.153H418.697V259.756ZM418.697 250.751H424.307V246.148H418.697V250.751ZM418.697 241.545H424.307V236.942H418.697V241.545ZM418.697 232.34H424.307V227.737H418.697V232.34ZM418.697 223.334H424.307V218.732H418.697V223.334ZM418.697 214.129H424.307V209.526H418.697V214.129ZM418.697 204.923H424.307V200.32H418.697V204.923ZM418.697 195.918H424.307V191.315H418.697V195.918ZM418.697 186.712H424.307V182.11H418.697V186.712ZM418.697 177.507H424.307V172.904H418.697V177.507ZM418.697 168.501H424.307V166.7H418.697V168.501Z" fill="#2E2D2D"/>
<path d="M429.683 236.942H435.293V232.339H429.683V236.942ZM429.683 227.937H435.293V223.334H429.683V227.937ZM429.683 218.731H435.293V214.128H429.683V218.731ZM429.683 209.526H435.293V204.923H429.683V209.526ZM429.683 200.52H435.293V195.918H429.683V200.52ZM429.683 191.315H435.293V186.712H429.683V191.315ZM429.683 182.109H435.293V177.506H429.683V182.109ZM429.683 172.904H435.293V168.301H429.683V172.904Z" fill="#2E2D2D"/>
<path d="M440.67 285.171H446.28V280.569H440.67V285.171ZM440.67 275.966H446.28V271.363H440.67V275.966ZM440.67 266.76H446.28V262.158H440.67V266.76ZM440.67 257.555H446.28V252.952H440.67V257.555ZM440.67 248.549H446.28V243.947H440.67V248.549ZM440.67 239.344H446.28V234.741H440.67V239.344ZM440.67 230.138H446.28V225.536H440.67V230.138ZM440.67 221.133H446.28V216.53H440.67V221.133ZM440.67 211.927H446.28V207.325H440.67V211.927ZM440.67 202.722H446.28V198.119H440.67V202.722ZM440.67 193.717H446.28V189.114H440.67V193.717ZM440.67 184.511H446.28V179.908H440.67V184.511ZM440.67 175.305H446.28V170.703H440.67V175.305Z" fill="#2E2D2D"/>
<path d="M451.657 226.136H457.267V221.533H451.657V226.136ZM451.657 217.131H457.267V212.528H451.657V217.131ZM451.657 207.925H457.267V203.322H451.657V207.925ZM451.657 198.72H457.267V194.117H451.657V198.72ZM451.657 189.514H457.267V184.911H451.657V189.514ZM451.657 180.509H457.267V175.906H451.657V180.509ZM451.657 171.303H457.267V166.7H451.657V171.303Z" fill="#2E2D2D"/>
<path d="M462.643 189.914H468.253V185.311H462.643V189.914ZM462.643 180.709H468.253V176.106H462.643V180.709ZM462.643 171.703H468.253V167.1H462.643V171.703Z" fill="#2E2D2D"/>
<path d="M473.629 235.541H479.239V230.939H473.629V235.541ZM473.629 226.336H479.239V221.733H473.629V226.336ZM473.629 217.13H479.239V212.528H473.629V217.13ZM473.629 208.125H479.239V203.522H473.629V208.125ZM473.629 198.919H479.239V194.317H473.629V198.919ZM473.629 189.714H479.239V185.111H473.629V189.714ZM473.629 180.708H479.239V176.106H473.629V180.708ZM473.629 171.503H479.239V166.9H473.629V171.503Z" fill="#2E2D2D"/>
<path d="M484.615 214.929H490.226V210.326H484.615V214.929ZM484.615 205.724H490.226V201.121H484.615V205.724ZM484.615 196.718H490.226V192.116H484.615V196.718ZM484.615 187.513H490.226V182.91H484.615V187.513ZM484.615 178.307H490.226V173.704H484.615V178.307ZM484.615 169.302H490.226V166.7H484.615V169.302Z" fill="#2E2D2D"/>
<path d="M495.602 259.756H501.212V255.153H495.602V259.756ZM495.602 250.751H501.212V246.148H495.602V250.751ZM495.602 241.545H501.212V236.942H495.602V241.545ZM495.602 232.34H501.212V227.737H495.602V232.34ZM495.602 223.334H501.212V218.732H495.602V223.334ZM495.602 214.129H501.212V209.526H495.602V214.129ZM495.602 204.923H501.212V200.32H495.602V204.923ZM495.602 195.918H501.212V191.315H495.602V195.918ZM495.602 186.712H501.212V182.11H495.602V186.712ZM495.602 177.507H501.212V172.904H495.602V177.507ZM495.602 168.501H501.212V166.7H495.602V168.501Z" fill="#2E2D2D"/>
<path d="M506.588 231.139H512.198V226.536H506.588V231.139ZM506.588 221.933H512.198V217.331H506.588V221.933ZM506.588 212.728H512.198V208.125H506.588V212.728ZM506.588 203.522H512.198V198.919H506.588V203.522ZM506.588 194.517H512.198V189.914H506.588V194.517ZM506.588 185.311H512.198V180.709H506.588V185.311ZM506.588 176.106H512.198V171.503H506.588V176.106ZM506.588 167.1H512.198V166.5H506.588V167.1Z" fill="#2E2D2D"/>
<path d="M517.574 201.521H523.185V196.918H517.574V201.521ZM517.574 192.516H523.185V187.913H517.574V192.516ZM517.574 183.31H523.185V178.707H517.574V183.31ZM517.574 174.105H523.185V169.502H517.574V174.105Z" fill="#2E2D2D"/>
<path d="M528.562 301.781H534.172V297.179H528.562V301.781ZM528.562 292.576H534.172V287.973H528.562V292.576ZM528.562 283.37H534.172V278.768H528.562V283.37ZM528.562 274.165H534.172V269.562H528.562V274.165ZM528.562 265.159H534.172V260.557H528.562V265.159ZM528.562 255.954H534.172V251.351H528.562V255.954ZM528.562 246.748H534.172V242.146H528.562V246.748ZM528.562 237.743H534.172V233.14H528.562V237.743ZM528.562 228.537H534.172V223.935H528.562V228.537ZM528.562 219.332H534.172V214.729H528.562V219.332ZM528.562 210.326H534.172V205.724H528.562V210.326ZM528.562 201.121H534.172V196.518H528.562V201.121ZM528.562 191.915H534.172V187.313H528.562V191.915ZM528.562 182.91H534.172V178.307H528.562V182.91ZM528.562 173.704H534.172V169.102H528.562V173.704Z" fill="#2E2D2D"/>
<path d="M539.782 219.132H545.392V214.529H539.782V219.132ZM539.782 209.926H545.392V205.323H539.782V209.926ZM539.782 200.921H545.392V196.318H539.782V200.921ZM539.782 191.715H545.392V187.112H539.782V191.715ZM539.782 182.509H545.392V177.907H539.782V182.509ZM539.782 173.504H545.392V168.901H539.782V173.504Z" fill="#2E2D2D"/>
<path d="M550.534 254.353H556.145V249.75H550.534V254.353ZM550.534 245.147H556.145V240.544H550.534V245.147ZM550.534 236.142H556.145V231.539H550.534V236.142ZM550.534 226.936H556.145V222.334H550.534V226.936ZM550.534 217.731H556.145V213.128H550.534V217.731ZM550.534 208.725H556.145V204.123H550.534V208.725ZM550.534 199.52H556.145V194.917H550.534V199.52ZM550.534 190.314H556.145V185.712H550.534V190.314ZM550.534 181.309H556.145V176.706H550.534V181.309ZM550.534 172.103H556.145V167.501H550.534V172.103Z" fill="#2E2D2D"/>
<path d="M561.755 280.368H567.365V275.766H561.755V280.368ZM561.755 271.163H567.365V266.56H561.755V271.163ZM561.755 262.157H567.365V257.555H561.755V262.157ZM561.755 252.952H567.365V248.349H561.755V252.952ZM561.755 243.746H567.365V239.144H561.755V243.746ZM561.755 234.741H567.365V230.138H561.755V234.741ZM561.755 225.535H567.365V220.933H561.755V225.535ZM561.755 216.33H567.365V211.727H561.755V216.33ZM561.755 207.325H567.365V202.722H561.755V207.325ZM561.755 198.119H567.365V193.516H561.755V198.119ZM561.755 188.913H567.365V184.311H561.755V188.913ZM561.755 179.708H567.365V175.105H561.755V179.708ZM561.755 170.703H567.365V166.5H561.755V170.703Z" fill="#2E2D2D"/>
<path d="M572.507 232.54H578.351V227.937H572.741V232.54H572.507ZM572.507 223.534H578.351V218.932H572.741V223.534H572.507ZM572.507 214.329H578.351V209.726H572.741V214.329H572.507ZM572.507 205.123H578.351V200.52H572.741V205.123H572.507ZM572.507 196.118H578.351V191.515H572.741V196.118H572.507ZM572.507 186.912H578.351V182.309H572.741V186.912H572.507ZM572.507 177.707H578.351V173.104H572.741V177.707H572.507ZM572.507 168.501H578.351V166.5H572.741V168.501H572.507Z" fill="#2E2D2D"/>
<path d="M583.728 260.356H589.338V255.754H583.728V260.356ZM583.728 251.351H589.338V246.748H583.728V251.351ZM583.728 242.145H589.338V237.543H583.728V242.145ZM583.728 232.94H589.338V228.337H583.728V232.94ZM583.728 223.935H589.338V219.332H583.728V223.935ZM583.728 214.729H589.338V210.126H583.728V214.729ZM583.728 205.523H589.338V200.921H583.728V205.523ZM583.728 196.318H589.338V191.715H583.728V196.318ZM583.728 187.313H589.338V182.71H583.728V187.313ZM583.728 178.107H589.338V173.504H583.728V178.107ZM583.728 168.901H589.338V166.5H583.728V168.901Z" fill="#2E2D2D"/>
<path d="M594.48 211.127H600.09V206.524H594.48V211.127ZM594.48 201.921H600.09V197.318H594.48V201.921ZM594.48 192.716H600.09V188.113H594.48V192.716ZM594.48 183.71H600.09V179.107H594.48V183.71ZM594.48 174.505H600.09V169.902H594.48V174.505Z" fill="#2E2D2D"/>
<path d="M605.701 228.137H611.311V223.534H605.701V228.137ZM605.701 219.132H611.311V214.529H605.701V219.132ZM605.701 209.926H611.311V205.323H605.701V209.926ZM605.701 200.721H611.311V196.118H605.701V200.721ZM605.701 191.715H611.311V187.112H605.701V191.715ZM605.701 182.51H611.311V177.907H605.701V182.51ZM605.701 173.304H611.311V168.701H605.701V173.304Z" fill="#2E2D2D"/>
<path d="M616.453 264.959H622.063V260.356H616.453V264.959ZM616.453 255.754H622.063V251.151H616.453V255.754ZM616.453 246.748H622.063V242.145H616.453V246.748ZM616.453 237.543H622.063V232.94H616.453V237.543ZM616.453 228.337H622.063V223.734H616.453V228.337ZM616.453 219.132H622.063V214.529H616.453V219.132ZM616.453 210.126H622.063V205.523H616.453V210.126ZM616.453 200.921H622.063V196.318H616.453V200.921ZM616.453 191.715H622.063V187.112H616.453V191.715ZM616.453 182.71H622.063V178.107H616.453V182.71ZM616.453 173.504H622.063V168.901H616.453V173.504Z" fill="#2E2D2D"/>
<path d="M627.673 289.574H633.283V284.971H627.673V289.574ZM627.673 280.368H633.283V275.766H627.673V280.368ZM627.673 271.363H633.283V266.76H627.673V271.363ZM627.673 262.157H633.283V257.555H627.673V262.157ZM627.673 252.952H633.283V248.349H627.673V252.952ZM627.673 243.947H633.283V239.344H627.673V243.947ZM627.673 234.741H633.283V230.138H627.673V234.741ZM627.673 225.535H633.283V220.933H627.673V225.535ZM627.673 216.53H633.283V211.927H627.673V216.53ZM627.673 207.325H633.283V202.722H627.673V207.325ZM627.673 198.119H633.283V193.516H627.673V198.119ZM627.673 189.114H633.283V184.511H627.673V189.114ZM627.673 179.908H633.283V175.305H627.673V179.908ZM627.673 170.703H633.283V166.5H627.673V170.703Z" fill="#2E2D2D"/>
<path d="M638.66 241.545H644.271V236.942H638.66V241.545ZM638.66 232.34H644.271V227.737H638.66V232.34ZM638.66 223.134H644.271V218.531H638.66V223.134ZM638.66 214.129H644.271V209.526H638.66V214.129ZM638.66 204.923H644.271V200.32H638.66V204.923ZM638.66 195.718H644.271V191.115H638.66V195.718ZM638.66 186.712H644.271V182.109H638.66V186.712ZM638.66 177.507H644.271V172.904H638.66V177.507ZM638.66 168.301H644.271V166.5H638.66V168.301Z" fill="#2E2D2D"/>
<path d="M649.646 219.132H655.49V214.529H649.88V219.132H649.646ZM649.646 209.926H655.49V205.323H649.88V209.926H649.646ZM649.646 200.921H655.49V196.318H649.88V200.921H649.646ZM649.646 191.715H655.49V187.112H649.88V191.715H649.646ZM649.646 182.509H655.49V177.907H649.88V182.509H649.646ZM649.646 173.504H655.49V168.901H649.88V173.504H649.646Z" fill="#2E2D2D"/>
<path d="M660.633 256.154H666.243V251.551H660.633V256.154ZM660.633 246.948H666.243V242.346H660.633V246.948ZM660.633 237.743H666.243V233.14H660.633V237.743ZM660.633 228.737H666.243V224.135H660.633V228.737ZM660.633 219.532H666.243V214.929H660.633V219.532ZM660.633 210.326H666.243V205.724H660.633V210.326ZM660.633 201.321H666.243V196.718H660.633V201.321ZM660.633 192.115H666.243V187.513H660.633V192.115ZM660.633 182.91H666.243V178.307H660.633V182.91ZM660.633 173.704H666.243V169.102H660.633V173.704Z" fill="#2E2D2D"/>
<path d="M671.619 280.368H677.229V275.766H671.619V280.368ZM671.619 271.163H677.229V266.56H671.619V271.163ZM671.619 262.157H677.229V257.555H671.619V262.157ZM671.619 252.952H677.229V248.349H671.619V252.952ZM671.619 243.746H677.229V239.144H671.619V243.746ZM671.619 234.741H677.229V230.138H671.619V234.741ZM671.619 225.535H677.229V220.933H671.619V225.535ZM671.619 216.33H677.229V211.727H671.619V216.33ZM671.619 207.325H677.229V202.722H671.619V207.325ZM671.619 198.119H677.229V193.516H671.619V198.119ZM671.619 188.913H677.229V184.311H671.619V188.913ZM671.619 179.708H677.229V175.105H671.619V179.708ZM671.619 170.703H677.229V166.5H671.619V170.703Z" fill="#2E2D2D"/>
<path d="M682.606 314.189H688.216V309.586H682.606V314.189ZM682.606 305.183H688.216V300.581H682.606V305.183ZM682.606 295.978H688.216V291.375H682.606V295.978ZM682.606 286.772H688.216V282.17H682.606V286.772ZM682.606 277.767H688.216V273.164H682.606V277.767ZM682.606 268.561H688.216V263.959H682.606V268.561ZM682.606 259.356H688.216V254.753H682.606V259.356ZM682.606 250.35H688.216V245.748H682.606V250.35ZM682.606 241.145H688.216V236.542H682.606V241.145ZM682.606 231.939H688.216V227.337H682.606V231.939ZM682.606 222.734H688.216V218.131H682.606V222.734ZM682.606 213.728H688.216V209.126H682.606V213.728ZM682.606 204.523H688.216V199.92H682.606V204.523ZM682.606 195.317H688.216V190.715H682.606V195.317ZM682.606 186.312H688.216V181.709H682.606V186.312ZM682.606 177.106H688.216V172.504H682.606V177.106ZM682.606 167.901H688.216V166.5H682.606V167.901Z" fill="#2E2D2D"/>
<path d="M693.592 238.543H699.202V233.94H693.592V238.543ZM693.592 229.338H699.202V224.735H693.592V229.338ZM693.592 220.132H699.202V215.529H693.592V220.132ZM693.592 210.927H699.202V206.324H693.592V210.927ZM693.592 201.921H699.202V197.318H693.592V201.921ZM693.592 192.716H699.202V188.113H693.592V192.716ZM693.592 183.51H699.202V178.907H693.592V183.51ZM693.592 174.505H699.202V169.902H693.592V174.505Z" fill="#2E2D2D"/>
<path d="M704.579 220.533H710.189V215.93H704.579V220.533ZM704.579 211.327H710.189V206.724H704.579V211.327ZM704.579 202.322H710.189V197.719H704.579V202.322ZM704.579 193.116H710.189V188.513H704.579V193.116ZM704.579 183.911H710.189V179.308H704.579V183.911ZM704.579 174.705H710.189V170.102H704.579V174.705Z" fill="#2E2D2D"/>
<path d="M715.565 264.959H721.175V260.356H715.565V264.959ZM715.565 255.754H721.175V251.151H715.565V255.754ZM715.565 246.748H721.175V242.145H715.565V246.748ZM715.565 237.543H721.175V232.94H715.565V237.543ZM715.565 228.337H721.175V223.734H715.565V228.337ZM715.565 219.132H721.175V214.529H715.565V219.132ZM715.565 210.126H721.175V205.523H715.565V210.126ZM715.565 200.921H721.175V196.318H715.565V200.921ZM715.565 191.715H721.175V187.112H715.565V191.715ZM715.565 182.71H721.175V178.107H715.565V182.71ZM715.565 173.504H721.175V168.901H715.565V173.504Z" fill="#2E2D2D"/>
<path d="M726.552 209.926H732.162V205.323H726.552V209.926ZM726.552 200.721H732.162V196.118H726.552V200.721ZM726.552 191.515H732.162V186.912H726.552V191.515ZM726.552 182.51H732.162V177.907H726.552V182.51ZM726.552 173.304H732.162V168.701H726.552V173.304Z" fill="#2E2D2D"/>
<path d="M737.538 238.543H743.382V233.94H737.772V238.543H737.538ZM737.538 229.338H743.382V224.735H737.772V229.338H737.538ZM737.538 220.132H743.382V215.529H737.772V220.132H737.538ZM737.538 210.927H743.382V206.324H737.772V210.927H737.538ZM737.538 201.921H743.382V197.318H737.772V201.921H737.538ZM737.538 192.716H743.382V188.113H737.772V192.716H737.538ZM737.538 183.51H743.382V178.907H737.772V183.51H737.538ZM737.538 174.505H743.382V169.902H737.772V174.505H737.538Z" fill="#2E2D2D"/>
<path d="M748.524 205.924H754.368V201.321H748.758V205.924H748.524ZM748.524 196.718H754.368V192.115H748.758V196.718H748.524ZM748.524 187.713H754.368V183.11H748.758V187.713H748.524ZM748.524 178.507H754.368V173.904H748.758V178.507H748.524ZM748.524 169.302H754.368V166.5H748.758V169.302H748.524Z" fill="#2E2D2D"/>
</svg>
