<svg width="232" height="50" viewBox="0 0 232 50" fill="none" xmlns="http://www.w3.org/2000/svg">
<path d="M64.4115 0H42.9423L35.7833 7.1551L28.6282 0H7.1551V7.1551H0V21.4692L7.1551 28.6282L0 35.7833V50H21.4692L28.6282 42.8449L35.7833 50H57.2564V42.8449H64.4115V28.6282L57.2564 21.4692L64.4115 14.3141V0ZM61.685 13.1845L55.3283 19.5412L53.3808 21.4692L55.3283 23.4167L61.685 29.7577V40.1184H44.0718L37.7113 33.7618L35.7833 31.8143L33.8358 33.7618L27.4986 40.1184H9.88159V29.7577L16.2421 23.3972L18.1701 21.4497L16.2421 19.5412L9.88159 13.1845V2.72649H27.4986L33.8553 9.08312L35.8028 11.0111L37.7308 9.08312L44.0718 2.72649H61.685V13.1845Z" fill="#FF0000"/>
<path d="M27.6078 19.4711H23.7012V23.3777H27.6078V19.4711Z" fill="white"/>
<path d="M37.7387 19.4711H33.832V23.3777H37.7387V19.4711Z" fill="white"/>
<path d="M47.8693 19.4711H43.9626V23.3777H47.8693V19.4711Z" fill="white"/>
<path d="M78.5188 11.8642C78.5188 7.98864 81.0428 5.78407 84.1704 5.78407C85.5031 5.80754 86.776 6.34151 87.7266 7.27585L86.0556 9.16103C85.5468 8.67862 84.8716 8.41079 84.1704 8.41319C82.7488 8.41319 81.6465 9.65959 81.6465 11.759C81.6465 13.9285 82.7488 15.1359 84.3145 15.1359C84.6756 15.1212 85.0297 15.0315 85.3542 14.8726C85.6787 14.7137 85.9667 14.489 86.1997 14.2128L87.8707 16.0591C87.3941 16.6163 86.7984 17.0593 86.1276 17.3552C85.4568 17.6512 84.728 17.7926 83.9952 17.769C81.1129 17.769 78.5188 15.8098 78.5188 11.8642Z" fill="white"/>
<path d="M91.6764 13.8896V7.5602H89.0083V5.17647H94.7339V13.9986C94.7167 14.1771 94.7394 14.3573 94.8005 14.5259C94.8616 14.6945 94.9595 14.8475 95.087 14.9735C95.2146 15.0996 95.3686 15.1957 95.538 15.2548C95.7073 15.3139 95.8877 15.3345 96.066 15.3151C96.5042 15.3047 96.9374 15.2204 97.3475 15.0659L98.0057 17.3055C97.1189 17.6133 96.1868 17.77 95.2481 17.769C92.8838 17.769 91.6764 16.2032 91.6764 13.8896Z" fill="white"/>
<path d="M99.7117 13.1105C99.7117 11.8937 100.195 10.7266 101.056 9.86613C101.916 9.00566 103.083 8.52225 104.3 8.52225C105.517 8.52225 106.684 9.00566 107.544 9.86613C108.405 10.7266 108.888 11.8937 108.888 13.1105C108.888 14.3274 108.405 15.4945 107.544 16.355C106.684 17.2154 105.517 17.6988 104.3 17.6988C103.083 17.6988 101.916 17.2154 101.056 16.355C100.195 15.4945 99.7117 14.3274 99.7117 13.1105ZM105.757 13.1105C105.757 11.759 105.332 10.9021 104.3 10.9021C103.268 10.9021 102.828 11.759 102.828 13.1105C102.828 14.4621 103.252 15.3151 104.284 15.3151C105.317 15.3151 105.757 14.4582 105.757 13.1105Z" fill="white"/>
<path d="M110.618 14.1388V8.66246H113.675V13.7493C113.675 14.7464 113.889 15.171 114.688 15.171C115.206 15.171 115.56 15.0308 116.024 14.392V8.66246H119.081V17.5547H116.593L116.378 16.3862H116.308C115.965 16.8212 115.527 17.1722 115.027 17.4125C114.528 17.6528 113.98 17.776 113.426 17.7728C111.447 17.769 110.618 16.359 110.618 14.1388Z" fill="white"/>
<path d="M121.048 13.1106C121.048 10.1932 122.898 8.43658 124.764 8.43658C125.157 8.42255 125.548 8.4972 125.908 8.65499C126.268 8.81277 126.588 9.04964 126.844 9.34801H126.914L126.774 8.06656V5.18427H129.832V17.5548H127.343L127.128 16.7368H127.058C126.448 17.3529 125.63 17.7206 124.764 17.769C122.505 17.769 121.048 15.989 121.048 13.1106ZM126.774 14.6374V11.3656C126.454 11.078 126.035 10.9258 125.605 10.9411C124.858 10.9411 124.18 11.5097 124.18 13.0716C124.18 14.6335 124.698 15.2801 125.567 15.2801C125.807 15.2947 126.048 15.2425 126.261 15.129C126.474 15.0156 126.652 14.8455 126.774 14.6374Z" fill="white"/>
<path d="M132.04 18.4077H140.57V20.6434H132.04V18.4077Z" fill="white"/>
<path d="M142.705 5.99437H145.797L147.745 11.1513L148.687 13.7493H148.757C148.536 12.2908 148.391 10.8217 148.325 9.34796V5.99437H151.239V17.5547H148.146L146.198 12.3783L145.283 9.79978H145.209C145.428 11.2623 145.571 12.7353 145.638 14.2128V17.5547H142.72L142.705 5.99437Z" fill="white"/>
<path d="M153.268 15.0308C153.268 13.0365 154.826 12.0044 158.884 11.794C158.779 11.1514 158.176 10.867 157.178 10.867C156.431 10.867 155.687 11.1163 154.619 11.6149L153.552 9.62452C154.838 8.87645 156.295 8.47389 157.782 8.45602C160.31 8.45602 161.946 9.70242 161.946 12.6198V17.5547H159.453L159.243 16.6277H159.169C158.307 17.3185 157.249 17.7181 156.146 17.7689C154.296 17.7689 153.268 16.4875 153.268 15.0308ZM158.884 14.7464V13.6052C156.715 13.6792 156.181 14.1739 156.181 14.7737C156.181 15.1632 156.505 15.4125 157.143 15.4125C157.782 15.39 158.394 15.1557 158.884 14.7464Z" fill="white"/>
<path d="M165.856 13.7844V11.0579H163.722V8.7715L165.997 8.66244L166.386 5.99437H168.91V8.66244H172.416V11.0462H168.91V13.7298C168.91 14.9918 169.498 15.3852 170.636 15.3852C171.186 15.3789 171.732 15.2829 172.252 15.1009L172.786 17.3054C171.824 17.5989 170.826 17.755 169.821 17.7689C166.924 17.7689 165.856 16.1681 165.856 13.7844Z" fill="white"/>
<path d="M178.336 11.0462H174.959V8.66246H181.397V17.5547H178.336V11.0462Z" fill="white"/>
<path d="M184.74 8.66246H187.797L188.966 12.5575C189.231 13.4494 189.445 14.3725 189.694 15.3346H189.764C190.014 14.3725 190.228 13.4494 190.493 12.5575L191.661 8.68194H194.578L191.482 17.5742H187.976L184.74 8.66246Z" fill="white"/>
<path d="M195.868 13.1106C195.853 12.4927 195.963 11.8782 196.193 11.3044C196.422 10.7305 196.766 10.2093 197.203 9.77228C197.64 9.33524 198.162 8.99151 198.735 8.76191C199.309 8.53231 199.924 8.42163 200.542 8.43658C203.354 8.43658 204.775 10.3568 204.775 12.7405C204.768 13.1703 204.726 13.5988 204.651 14.022H198.181V12.0433H202.54L202.111 12.577C202.111 11.4085 201.648 10.7619 200.654 10.7619C199.486 10.7619 198.839 11.5097 198.839 13.0989C198.839 14.7698 199.657 15.4359 201.293 15.4359C202.036 15.4212 202.766 15.2387 203.428 14.9023L204.405 16.7485C203.333 17.4022 202.105 17.7585 200.849 17.7807C198.037 17.769 195.868 16.0591 195.868 13.1106Z" fill="white"/>
<path d="M78.6787 27.3311H82.9632C85.4521 27.3311 87.5866 28.188 87.5866 31.0664C87.5866 33.8592 85.4521 35.016 82.9632 35.016H81.7168V38.8915H78.6787V27.3311ZM82.7685 32.5972C83.9798 32.5972 84.6186 32.0636 84.6186 31.0664C84.6186 30.0693 83.9798 29.7499 82.7685 29.7499H81.7168V32.5972H82.7685ZM84.4939 32.2077L88.2448 38.911H84.8328L82.4296 34.237L84.4939 32.2077Z" fill="white"/>
<path d="M89.1952 34.4473C89.1802 33.8294 89.2909 33.2149 89.5205 32.6411C89.7501 32.0673 90.0938 31.546 90.5309 31.109C90.9679 30.672 91.4892 30.3282 92.063 30.0986C92.6368 29.869 93.2513 29.7583 93.8692 29.7733C96.6775 29.7733 98.0991 31.6935 98.0991 34.0578C98.0915 34.4876 98.0499 34.9161 97.9745 35.3392H91.4971V33.3801H95.8361L95.4272 33.9137C95.4272 32.7452 94.9676 32.0986 93.9704 32.0986C92.8019 32.0986 92.1554 32.8464 92.1554 34.4356C92.1554 36.1065 92.9733 36.7726 94.6092 36.7726C95.3518 36.7579 96.0815 36.5755 96.7437 36.239L97.7408 38.054C96.6681 38.7078 95.4407 39.064 94.1847 39.0862C91.353 39.1057 89.1952 37.3919 89.1952 34.4473Z" fill="white"/>
<path d="M99.6221 41.6297L100.495 39.4602C101.035 39.7126 101.624 39.8454 102.22 39.8497C103.303 39.8497 103.657 39.3901 103.657 38.1787V32.383H100.28V29.9915H106.723V38.0736C106.723 40.2431 105.796 42.2334 102.438 42.2334C101.466 42.2445 100.504 42.0382 99.6221 41.6297Z" fill="white"/>
<path d="M110.52 34.4473C110.505 33.8294 110.616 33.2149 110.846 32.6411C111.075 32.0673 111.419 31.546 111.856 31.109C112.293 30.672 112.814 30.3282 113.388 30.0986C113.962 29.869 114.576 29.7583 115.194 29.7733C118.003 29.7733 119.424 31.6935 119.424 34.0578C119.417 34.4876 119.375 34.9161 119.3 35.3392H112.834V33.3801H117.173L116.745 33.9137C116.745 32.7452 116.285 32.0986 115.288 32.0986C114.119 32.0986 113.473 32.8464 113.473 34.4356C113.473 36.1065 114.291 36.7726 115.927 36.7726C116.669 36.7579 117.399 36.5755 118.061 36.239L119.058 38.054C117.986 38.7078 116.758 39.064 115.502 39.0862C112.69 39.1057 110.52 37.3919 110.52 34.4473Z" fill="white"/>
<path d="M121.438 26.5132H124.499V33.1659H124.57L127.273 29.9914H130.58L124.499 36.722V38.8915H121.438V26.5132ZM125.243 35.1211L126.977 33.236L130.782 38.8915H127.475L125.243 35.1211Z" fill="white"/>
<path d="M133.851 35.1211V32.3946H131.717V30.1083L133.988 29.9914L134.377 27.3234H136.901V29.9914H140.407V32.3752H136.901V35.0549C136.901 36.3169 137.489 36.7103 138.627 36.7103C139.177 36.704 139.723 36.608 140.243 36.426L140.777 38.6305C139.819 38.9229 138.825 39.079 137.824 39.094C134.919 39.1057 133.851 37.5049 133.851 35.1211Z" fill="white"/>
<path d="M142.456 37.7542L143.725 35.869C144.785 36.5049 145.995 36.8477 147.231 36.8622C148.01 36.8622 148.333 36.6519 148.333 36.3286C148.333 35.9041 147.87 35.834 146.386 35.5107C143.932 34.981 143.04 34.0539 143.04 32.6673C143.04 30.9263 144.695 29.785 147.274 29.785C148.681 29.8169 150.049 30.2493 151.219 31.0314L149.868 32.8465C148.994 32.3312 148.003 32.0495 146.989 32.0285C146.421 32.0285 146.062 32.2038 146.062 32.5232C146.062 32.9127 146.526 32.9517 147.912 33.2711C150.581 33.8748 151.363 34.6771 151.363 36.1533C151.363 37.8243 149.782 39.1057 146.81 39.1057C145.263 39.0611 143.757 38.5937 142.456 37.7542Z" fill="white"/>
<path d="M106.715 25.1227H103.396V28.4412H106.715V25.1227Z" fill="white"/>
<path d="M181.393 3.78592H178.075V7.10445H181.393V3.78592Z" fill="white"/>
<path d="M161.47 41.3134V29.1005H165.788V30.3786H163.317V40.0353H165.788V41.3134H161.47Z" fill="#FF0000"/>
<path d="M168.054 39.1548V29.9242H171.519C172.012 29.9242 172.48 29.9762 172.925 30.0804C173.38 30.175 173.772 30.3455 174.104 30.5916C174.445 30.8283 174.714 31.1454 174.913 31.5431C175.112 31.9312 175.212 32.4141 175.212 32.9916C175.212 33.5596 175.107 34.0472 174.899 34.4543C174.7 34.8614 174.43 35.1975 174.09 35.4626C173.749 35.7182 173.356 35.9123 172.911 36.0448C172.466 36.1679 172.002 36.2294 171.519 36.2294H170.497V39.1548H168.054ZM170.497 34.2981H171.406C171.888 34.2981 172.244 34.1845 172.471 33.9573C172.707 33.73 172.826 33.4081 172.826 32.9916C172.826 32.575 172.703 32.2815 172.457 32.1111C172.21 31.9407 171.86 31.8555 171.406 31.8555H170.497V34.2981Z" fill="#FF0000"/>
<path d="M179.779 39.3252C179.22 39.3252 178.709 39.2258 178.245 39.027C177.781 38.8187 177.383 38.5158 177.052 38.1182C176.721 37.7111 176.46 37.2093 176.271 36.6128C176.091 36.0069 176.001 35.3016 176.001 34.4969C176.001 33.7206 176.091 33.0389 176.271 32.4519C176.46 31.8555 176.721 31.3585 177.052 30.9608C177.383 30.5632 177.781 30.265 178.245 30.0662C178.709 29.8579 179.22 29.7537 179.779 29.7537C180.337 29.7537 180.849 29.8579 181.312 30.0662C181.776 30.265 182.174 30.5632 182.505 30.9608C182.837 31.3585 183.092 31.8555 183.272 32.4519C183.462 33.0389 183.556 33.7206 183.556 34.4969C183.556 35.3016 183.462 36.0069 183.272 36.6128C183.092 37.2093 182.837 37.7111 182.505 38.1182C182.174 38.5158 181.776 38.8187 181.312 39.027C180.849 39.2258 180.337 39.3252 179.779 39.3252ZM179.779 37.2235C180.176 37.2235 180.489 37.001 180.716 36.556C180.943 36.1111 181.057 35.4247 181.057 34.4969C181.057 33.607 180.943 32.9442 180.716 32.5087C180.489 32.0732 180.176 31.8555 179.779 31.8555C179.381 31.8555 179.069 32.0732 178.841 32.5087C178.614 32.9442 178.501 33.607 178.501 34.4969C178.501 35.4247 178.614 36.1111 178.841 36.556C179.069 37.001 179.381 37.2235 179.779 37.2235Z" fill="#FF0000"/>
<path d="M184.8 39.1548V29.9242H187.456C188.119 29.9242 188.725 30.0094 189.274 30.1798C189.823 30.3502 190.296 30.62 190.694 30.9892C191.091 31.3585 191.399 31.8318 191.617 32.4093C191.844 32.9868 191.958 33.6827 191.958 34.4969C191.958 35.3111 191.849 36.0117 191.631 36.5986C191.413 37.1856 191.106 37.6685 190.708 38.0472C190.32 38.4258 189.861 38.7051 189.33 38.885C188.8 39.0649 188.223 39.1548 187.598 39.1548H184.8ZM187.243 37.1951H187.328C187.622 37.1951 187.896 37.1572 188.152 37.0815C188.417 36.9963 188.644 36.8543 188.833 36.6554C189.023 36.4566 189.174 36.1821 189.288 35.8318C189.401 35.4815 189.458 35.0365 189.458 34.4969C189.458 33.9573 189.401 33.517 189.288 33.1762C189.174 32.8354 189.023 32.5703 188.833 32.3809C188.644 32.1916 188.417 32.0638 188.152 31.9975C187.896 31.9218 187.622 31.8839 187.328 31.8839H187.243V37.1951Z" fill="#FF0000"/>
<path d="M197.349 39.3252C196.771 39.3252 196.217 39.2306 195.687 39.0412C195.166 38.8424 194.702 38.5489 194.295 38.1608C193.898 37.7631 193.576 37.2708 193.33 36.6839C193.093 36.0874 192.975 35.3963 192.975 34.6105C192.975 33.8342 193.093 33.1478 193.33 32.5513C193.566 31.9454 193.888 31.4389 194.295 31.0318C194.702 30.6153 195.18 30.2981 195.73 30.0804C196.279 29.8626 196.866 29.7537 197.491 29.7537C198.087 29.7537 198.627 29.8768 199.109 30.123C199.592 30.3597 199.999 30.6342 200.331 30.9466L198.996 32.4519C198.778 32.2626 198.551 32.1158 198.314 32.0117C198.077 31.9076 197.803 31.8555 197.491 31.8555C197.206 31.8555 196.941 31.917 196.695 32.0401C196.449 32.1632 196.236 32.3383 196.056 32.5655C195.876 32.7928 195.734 33.0721 195.63 33.4034C195.526 33.7348 195.474 34.1087 195.474 34.5253C195.474 35.3963 195.673 36.0637 196.07 36.5276C196.468 36.9915 196.979 37.2235 197.604 37.2235C197.907 37.2235 198.182 37.1572 198.428 37.0247C198.683 36.8827 198.911 36.7028 199.109 36.485L200.444 37.9619C200.056 38.4164 199.597 38.7572 199.067 38.9844C198.546 39.2116 197.973 39.3252 197.349 39.3252Z" fill="#FF0000"/>
<path d="M204.174 34.6673L204.032 35.3063H205.679L205.537 34.6673C205.433 34.2223 205.319 33.7442 205.196 33.233C205.083 32.7123 204.974 32.2153 204.87 31.7419H204.813C204.709 32.2153 204.6 32.7123 204.486 33.233C204.382 33.7442 204.278 34.2223 204.174 34.6673ZM200.638 39.1548L203.421 29.9242H206.375L209.158 39.1548H206.574L206.119 37.1951H203.591L203.137 39.1548H200.638Z" fill="#FF0000"/>
<path d="M213.214 39.3252C212.608 39.3252 211.988 39.2211 211.354 39.0128C210.729 38.7951 210.156 38.459 209.636 38.0045L211.027 36.3288C211.378 36.5939 211.751 36.8117 212.149 36.9821C212.547 37.143 212.959 37.2235 213.385 37.2235C213.754 37.2235 214.014 37.1714 214.166 37.0673C214.327 36.9631 214.407 36.8353 214.407 36.6839C214.407 36.5513 214.374 36.4424 214.308 36.3572C214.251 36.2626 214.166 36.1821 214.052 36.1158C213.938 36.0401 213.796 35.9691 213.626 35.9028C213.465 35.8365 213.28 35.7608 213.072 35.6756L211.922 35.1927C211.657 35.0981 211.406 34.975 211.169 34.8235C210.933 34.6626 210.724 34.478 210.544 34.2697C210.374 34.0519 210.237 33.8058 210.133 33.5312C210.028 33.2567 209.976 32.9537 209.976 32.6224C209.976 32.2247 210.062 31.8555 210.232 31.5147C210.402 31.1644 210.639 30.8614 210.942 30.6058C211.254 30.3407 211.624 30.1324 212.05 29.981C212.485 29.8295 212.968 29.7537 213.498 29.7537C214.047 29.7537 214.596 29.8531 215.146 30.052C215.695 30.2508 216.196 30.5632 216.651 30.9892L215.43 32.5229C215.098 32.3052 214.776 32.1395 214.464 32.0259C214.161 31.9123 213.792 31.8555 213.356 31.8555C213.082 31.8555 212.859 31.9076 212.689 32.0117C212.528 32.1064 212.447 32.2626 212.447 32.4803C212.447 32.5845 212.48 32.6792 212.547 32.7644C212.613 32.8401 212.708 32.9111 212.831 32.9774C212.954 33.0436 213.105 33.1099 213.285 33.1762C213.465 33.2425 213.669 33.3182 213.896 33.4034L214.961 33.8436C215.586 34.0709 216.064 34.388 216.395 34.7951C216.736 35.2022 216.906 35.7276 216.906 36.3714C216.906 36.7596 216.826 37.1336 216.665 37.4933C216.504 37.8531 216.267 38.1702 215.955 38.4448C215.643 38.7099 215.254 38.9229 214.79 39.0838C214.336 39.2448 213.811 39.3252 213.214 39.3252Z" fill="#FF0000"/>
<path d="M220.423 39.1548V31.9691H217.767V29.9242H225.521V31.9691H222.865V39.1548H220.423Z" fill="#FF0000"/>
<path d="M227.262 41.3134V40.0353H229.733V30.3786H227.262V29.1005H231.579V41.3134H227.262Z" fill="#FF0000"/>
</svg>
