<svg xmlns="http://www.w3.org/2000/svg" viewBox="0 0 552.5 147.73"><g id="Layer_2" data-name="Layer 2"><g id="Capa_1" data-name="Capa 1"><path d="M301.2,57.73a56.11,56.11,0,0,0,94.49,40.91,10.16,10.16,0,0,0-13.91-14.82A35.77,35.77,0,1,1,382.1,32a10.21,10.21,0,0,0,7,2.85,10.18,10.18,0,0,0,7.06-17.5,56.11,56.11,0,0,0-95,40.43"/><path d="M426,57.73a37.35,37.35,0,1,1,37.35,37.34A37.39,37.39,0,0,1,426,57.73m-20.37,0A57.72,57.72,0,1,0,463.39,0a57.79,57.79,0,0,0-57.72,57.73"/><path d="M528,103.31a12.27,12.27,0,1,0,12.25-11.84A12,12,0,0,0,528,103.31"/><path d="M282.11,49.9a3.53,3.53,0,0,0,.3-1.2,2.76,2.76,0,0,0-2.85-2.85h-9.45a6.71,6.71,0,0,0-6,4l-13.06,29c-3,7-6,13.35-14.25,19.2-3,2.1-5.7,3.15-8,3.15-2.85,0-4.5-1.65-4.5-4.65a12.79,12.79,0,0,1,1.2-5.25c2.85-7.65,8.4-20,18-41.56a2.84,2.84,0,0,0-2.55-3.9h-9.45a6.92,6.92,0,0,0-6.15,4c-5.56,12.15-9.31,21-11.56,26.26-.45,1.06-.89,2.11-1.32,3.16-.06.09-.12.18-.18.29-4.8,8.4-11.1,16.65-17.55,20.1a9.44,9.44,0,0,1-4.95,1.35c-3.15,0-5.41-1.8-5.41-4.35a6.66,6.66,0,0,1,.3-1.95c3.46-9.15,9.16-22.2,19.36-44.86.75-1.95-.3-4-2.55-4h-9.45a7.09,7.09,0,0,0-6.15,4c-.91,2.1-1.36,3.3-1.51,3.45h-.3a23.37,23.37,0,0,0-2.4-3c-3.45-3.45-7.2-4.8-13.65-4.8-13.2-.3-31.36,12.6-38,31.81a47.75,47.75,0,0,0-2.85,15.45,1.34,1.34,0,0,0,0,.2,31.32,31.32,0,0,1-8.1,6.7,9.52,9.52,0,0,1-5.1,1.5,6.1,6.1,0,0,1-3.6-1.2,3.71,3.71,0,0,1-1.65-3.15,2.65,2.65,0,0,1,0-.27c-.06-1.65.54-3.9,2.34-7,.47-.8,1.47-2.66,2.13-3.9h0v0l.5-.94c2.28-4.53,4.75-9,6.64-13.66a53.39,53.39,0,0,0,3.73-13.9c.72-8.89-5-11-6.69-11.37A9.07,9.07,0,0,0,116,45.7a8.44,8.44,0,0,0-8.44,8.44,8.34,8.34,0,0,0,2.29,5.71c-1,5.86-3.79,14.77-13.16,27.77-4.29,5.87-9.26,11-17.12,11.52-3.61.24-6.36-1.64-7.18-4.33a6.62,6.62,0,0,1,.47-3.27c3.4-8.49,7.1-16.86,10.72-25.26.42-1,.85-2,1.29-2.94h0q1.35-3,2.82-6.28a2.79,2.79,0,0,0-2.53-3.89H75.83a6.41,6.41,0,0,0-6.09,3.89L67,63.13h0c-1.2,2.71-2.4,5.42-3.63,8.12C61,76.58,58.76,82.08,55.67,87,52,92.91,47,97.62,40.05,99.73c-2.16.66-4.65,1-5.86-1a8,8,0,0,1-.58-5.77,115.22,115.22,0,0,1,4.87-12.41c4.43-10.18,9-20.32,13.45-30.49,1.24-2.81.14-4.38-3-4.43-2.68,0-5.36,0-8,0-3.15,0-5.49,1.21-6.81,4.2-1.87,4.22-4,8.36-5.68,12.64-2,5-4,9.93-6,14.9Q20,83.1,18,88.62c-4.59,6.53-9,10.92-13.26,13.1a14.2,14.2,0,0,0-1.48.84,5.67,5.67,0,0,0,1.7,10.74l.15,0h0a4,4,0,0,0,1.14,0h0l.16,0h0a5.16,5.16,0,0,0,1.42-.4,1.56,1.56,0,0,0,.26-.11,10.68,10.68,0,0,0,1.34-.72,36.19,36.19,0,0,0,7.6-6.43,14.16,14.16,0,0,0,5.39,5.28,23.28,23.28,0,0,0,21.12.62c4.06-1.78,7.66-4.62,11.53-7a27.55,27.55,0,0,0,2.74,3.39c7.34,6.67,16,6.72,24.88,4.44A38.09,38.09,0,0,0,94.57,107c3.09,4,8.38,6.55,15.46,6.55,7.82,0,14.22-3.18,19.94-8.8,2.95,5.63,8.15,8.8,15.45,8.8s14.41-3.3,20.86-9.76a1.43,1.43,0,0,1,2.25.45c2.55,5.41,9.15,9.31,17.11,9.31,8.75,0,15.5-3.85,21.73-10.87,2,6.15,7.83,10.5,16.53,10.87.45,0,.45.45,0,.45-11.86,3.6-19.66,8.1-21.91,16.5a11.18,11.18,0,0,0-.6,3.9,12.25,12.25,0,0,0,3.6,9c3.15,2.85,7.2,4.35,12.45,4.35a32.11,32.11,0,0,0,21.61-8.86c3.38-3.37,6.75-8.53,10.13-15.37h0l.15-.31c.19-.38.37-.76.56-1.15.44-.92.88-1.86,1.32-2.84l.23-.51h.31c9.07,0,18.94-5.25,25.47-16.24a14.71,14.71,0,0,0,2.39-6.85c0-.14,0-.28,0-.41s0-.11,0-.16a4.08,4.08,0,0,0-6.07-3.55l-.27.16,0,0a3.17,3.17,0,0,0-.78.69l-.12.14-.09.13a4.45,4.45,0,0,0-.33.51,32.6,32.6,0,0,1-7.91,9.48,16.74,16.74,0,0,1-7.14,3.54l.25-.58,0,0,.78-1.74ZM172.88,79.16c-5.7,12.45-18.9,21-24.76,21q-5.4,0-5.4-6.75A31.61,31.61,0,0,1,145,82.61a41.58,41.58,0,0,1,15.31-20c4.05-2.55,7.65-3.9,11.1-3.9,4.2,0,6.75,2,6.75,6C178.13,67.3,176.33,72.11,172.88,79.16Zm58.67,44c-3.6,8.25-9,15.45-16.06,15.45-3,0-5.1-1.95-5.1-4.35,0-2.1,1.2-4.05,3.75-6,3.75-3,8.26-3.9,17.11-5.55C231.4,122.67,231.7,123,231.55,123.12Z"/></g></g></svg>