<svg width="468" height="143" viewBox="0 0 468 143" fill="none" xmlns="http://www.w3.org/2000/svg">
<path d="M163.189 61.192V20.4083H101.987L81.5892 40.7947L61.1919 20.4083H0V61.192L20.4083 81.5893L0 101.987V142.519H61.1919L81.5892 122.11L101.987 142.519H163.189V101.987L142.781 81.5893L163.189 61.192Z" fill="#FF0000"/>
<path d="M123.993 118.226L101.987 96.2088L79.9807 118.226H24.293V83.1978L46.288 61.1919L24.293 39.1861V3.8847H79.9807L101.987 25.8906L123.993 3.8847H179.691V39.1861L157.685 61.1919L179.691 83.1978V118.226H123.993Z" fill="white"/>
<path d="M175.807 7.76936V37.5774L157.685 55.6987L152.137 61.17L157.685 66.7508L175.807 84.8064V114.352H125.612L107.48 96.2197L102.009 90.6717L96.4605 96.2197L78.3722 114.341H28.1668V84.7955L46.288 66.6852L51.7594 61.1372L46.288 55.6658L28.1668 37.5774V7.76936H78.3722L96.4934 25.8906L102.041 31.362L107.513 25.8906L125.612 7.76936H175.807ZM183.576 0H122.384L101.987 20.3973L81.5893 0H20.3974V40.7946L40.7947 61.1919L20.3974 81.5892V122.077H81.5893L101.987 101.768L122.384 122.165H183.576V81.6768L163.189 61.1919L183.576 40.7946V0Z" fill="#FF0000"/>
<path d="M78.6894 55.4906H67.5496V66.6304H78.6894V55.4906Z" fill="black"/>
<path d="M107.567 55.4906H96.4275V66.6304H107.567V55.4906Z" fill="black"/>
<path d="M136.435 55.4906H125.295V66.6303H136.435V55.4906Z" fill="black"/>
<path d="M136.435 55.4906H125.295V66.6303H136.435V55.4906Z" fill="black"/>
<path d="M215 53.201H229.881C238.521 53.201 245.882 56.1935 245.882 66.1998C245.882 76.2061 238.468 79.9468 229.881 79.9468H225.547V93.4266H215V53.201ZM229.201 71.5303C233.414 71.5303 235.628 69.6733 235.628 66.1865C235.628 62.6996 233.414 61.6041 229.201 61.6041H225.547V71.5303H229.201ZM235.201 70.1943L248.228 93.5067H236.441L228.094 77.2482L235.201 70.1943Z" fill="black"/>
<path d="M254.379 77.9694C254.166 69.2055 261.073 61.9246 269.82 61.7108C269.82 61.7108 269.833 61.7108 269.847 61.7108H270.607C280.367 61.7108 285.274 68.3906 285.274 76.6067C285.247 78.103 285.101 79.5992 284.847 81.0688H262.38V74.2554H277.447L276.02 76.1124C276.02 72.1045 274.434 69.7933 270.967 69.7933C266.9 69.7933 264.66 72.4652 264.66 77.9293C264.66 83.7407 267.5 86.0653 273.18 86.0653C275.767 86.0118 278.327 85.3839 280.634 84.2083L284.101 90.514C280.381 92.7851 276.114 94.0276 271.753 94.1077C261.873 94.1745 254.379 88.2162 254.379 77.9694Z" fill="black"/>
<path d="M323.032 77.9694C322.819 69.2055 329.726 61.9246 338.473 61.7108C338.473 61.7108 338.486 61.7108 338.499 61.7108H339.233C348.98 61.7108 353.9 68.3906 353.9 76.6067C353.873 78.103 353.727 79.5992 353.473 81.0688H331.072V74.2554H346.14L344.646 76.1124C344.646 72.1045 343.06 69.7933 339.593 69.7933C335.592 69.7933 333.286 72.4652 333.286 77.9293C333.286 83.7407 336.126 86.0653 341.806 86.0653C344.38 86.0118 346.913 85.3706 349.22 84.2083L352.687 90.514C348.967 92.7985 344.7 94.0276 340.339 94.1077C330.566 94.1745 323.032 88.2162 323.032 77.9694Z" fill="black"/>
<path d="M361.627 50.3553H372.294V73.5073H372.534L381.868 62.459H393.362L372.254 85.8783V93.4264H361.587L361.627 50.3553ZM374.841 80.3074L380.855 73.7478L394.069 93.4264H382.575L374.841 80.3074Z" fill="black"/>
<path d="M406.161 80.3072V70.822H398.747V62.8062L406.628 62.3921L407.961 53.0404H416.722V62.3921H428.896V70.6884H416.722V80.04C416.722 84.4353 418.762 85.798 422.722 85.798C424.629 85.7847 426.535 85.4507 428.336 84.8094L430.189 92.4778C426.869 93.5065 423.415 94.0409 419.935 94.0943C409.868 94.1744 406.161 88.6035 406.161 80.3072Z" fill="black"/>
<path d="M436.102 89.472L440.516 82.9124C444.209 85.1301 448.423 86.3191 452.73 86.3592C455.396 86.3592 456.557 85.6244 456.557 84.5022C456.557 83.0193 454.943 82.7788 449.783 81.6566C441.262 79.813 438.169 76.58 438.169 71.7572C438.169 65.7053 443.916 61.7375 452.836 61.7375C457.717 61.8444 462.477 63.3407 466.53 66.066L461.837 72.3851C458.81 70.5949 455.37 69.6063 451.85 69.5395C449.876 69.5395 448.623 70.1541 448.623 71.2629C448.623 72.5989 450.236 72.7458 455.05 73.9348C464.317 76.0323 467.05 78.8244 467.05 83.9545C467.05 89.7659 461.557 94.228 451.236 94.228C445.849 94.0676 440.609 92.4244 436.102 89.472Z" fill="black"/>
<path d="M291.73 102.965L294.756 95.4036C296.636 96.2719 298.677 96.7262 300.743 96.7395C304.504 96.7395 305.744 95.1364 305.744 90.9281V70.7819H294.01V62.4589H316.438V90.514C316.438 98.0621 313.224 104.996 301.557 104.996C298.17 105.063 294.81 104.368 291.73 102.965Z" fill="black"/>
<path d="M316.358 45.519H304.837V57.0616H316.358V45.519Z" fill="black"/>
<path d="M321.943 27.6625H338.989V31.8976H321.943V27.6625Z" fill="black"/>
<path d="M215.007 15.2841C215.007 7.95442 220.054 3.77747 226.296 3.77747C228.964 3.83558 231.509 4.85984 233.409 6.63959L230.066 10.2063C229.051 9.29105 227.703 8.78255 226.296 8.78982C223.461 8.78982 221.257 11.1507 221.257 15.1243C221.257 19.0978 223.461 21.5096 226.586 21.5096C228.043 21.4515 229.407 20.8195 230.356 19.7661L233.692 23.2603C231.763 25.396 228.914 26.58 225.948 26.4929C220.184 26.4565 215 22.7518 215 15.2841H215.007Z" fill="black"/>
<path d="M241.297 19.1197V7.14088H235.924V2.62976H247.373V19.3376C247.242 20.5943 248.214 21.7057 249.533 21.8292C249.7 21.8438 249.867 21.8438 250.034 21.8292C250.904 21.8074 251.774 21.6476 252.586 21.3571L253.905 25.5921C252.136 26.1733 250.273 26.4711 248.395 26.4711C243.711 26.4566 241.29 23.4928 241.29 19.1197H241.297Z" fill="black"/>
<path d="M257.349 17.6452C256.885 12.8508 260.612 8.60847 265.68 8.17261C270.741 7.73676 275.222 11.2672 275.686 16.0616C275.736 16.5919 275.736 17.1222 275.686 17.6525C276.15 22.4469 272.423 26.6893 267.355 27.1251C262.294 27.561 257.813 24.0305 257.349 19.2361C257.299 18.7058 257.299 18.1755 257.349 17.6452ZM269.429 17.6452C269.429 15.0882 268.58 13.461 266.514 13.461C264.448 13.461 263.578 15.0882 263.578 17.6452C263.578 20.2023 264.419 21.8149 266.485 21.8149C268.551 21.8149 269.429 20.195 269.429 17.6452Z" fill="black"/>
<path d="M279.144 19.5847V9.22589H285.278V18.8511C285.278 20.7398 285.706 21.5388 287.301 21.5388C288.338 21.5388 289.041 21.2773 289.969 20.086V9.22589H296.103V26.05H291.129L290.701 23.8707H290.564C289.172 25.5415 287.047 26.5076 284.8 26.4931C280.79 26.4568 279.13 23.7908 279.13 19.5847H279.144Z" fill="black"/>
<path d="M299.982 17.645C299.982 12.1241 303.68 8.79707 307.406 8.79707C308.994 8.74622 310.531 9.37821 311.561 10.526H311.698L311.423 8.09243V2.64423H317.557V26.0497H312.583L312.155 24.5024H312.017C310.792 25.672 309.154 26.3694 307.413 26.4565C302.889 26.4565 299.975 23.0859 299.975 17.645H299.982ZM311.43 20.5507V14.3397C310.792 13.7949 309.951 13.5116 309.088 13.5406C307.595 13.5406 306.239 14.6158 306.239 17.5723C306.239 20.5289 307.276 21.7493 309.016 21.7493C309.995 21.8001 310.923 21.3279 311.423 20.5289V20.5507H311.43Z" fill="black"/>
<path d="M343.26 4.17694H349.437L353.323 13.9038L355.208 18.8217H355.346C354.904 16.0613 354.614 13.2863 354.483 10.4969V4.17694H360.298V26.0497H354.164L350.278 16.2574L348.444 11.3758H348.299C348.719 14.1435 348.995 16.9257 349.118 19.7152V26.0351H343.289L343.26 4.17694Z" fill="black"/>
<path d="M364.358 21.2772C364.358 17.4998 367.475 15.553 375.581 15.1534C375.364 13.933 374.16 13.3955 372.166 13.3955C370.68 13.3955 369.187 13.8676 367.055 14.812L364.923 11.0491C367.504 9.61804 370.426 8.85529 373.414 8.81897C378.46 8.81897 381.73 11.1799 381.73 16.7007V26.0498H376.712L376.292 24.2991H376.147C374.429 25.614 372.319 26.3767 370.107 26.4784C366.41 26.4566 364.351 24.0304 364.351 21.2772H364.358ZM375.581 20.7396V18.5604C371.246 18.6984 370.209 19.6355 370.209 20.7396C370.209 21.4661 370.854 21.9455 372.13 21.9455C373.392 21.9092 374.603 21.4879 375.581 20.7396Z" fill="black"/>
<path d="M389.532 18.9162V13.7585H385.268V9.43628L389.807 9.22561L390.576 4.17694H395.615V9.26193H402.619V13.773H395.615V18.858C395.615 21.248 396.789 21.9889 399.059 21.9889C400.161 21.9744 401.248 21.7928 402.285 21.4514L403.336 25.5775C401.415 26.1368 399.421 26.4274 397.413 26.4565C391.642 26.4565 389.524 23.4273 389.524 18.9162H389.532Z" fill="black"/>
<path d="M414.444 13.737H407.694V9.22589H420.556V26.05H414.423L414.444 13.737Z" fill="black"/>
<path d="M427.241 9.22589H433.375L435.674 16.5991C436.203 18.2844 436.631 20.0279 437.131 21.8512H437.269C437.769 20.0279 438.197 18.2844 438.726 16.5991L441.024 9.26221H446.854L440.669 26.0863H433.665L427.227 9.22589H427.241Z" fill="black"/>
<path d="M449.471 17.6451C449.362 12.8797 453.342 8.9352 458.367 8.81897H458.802C464.428 8.81897 467.241 12.4511 467.241 16.9622C467.227 17.7758 467.14 18.5894 466.995 19.3885H454.089V15.6256H462.797L461.934 16.6353C461.934 14.456 461.013 13.1993 459.027 13.1993C456.728 13.1993 455.401 14.6159 455.401 17.6233C455.401 20.7832 457.033 22.04 460.303 22.04C461.789 22.0109 463.246 21.6695 464.566 21.0302L466.523 24.5243C464.377 25.7593 461.927 26.4348 459.418 26.4784C453.792 26.4566 449.463 23.224 449.463 17.6451H449.471Z" fill="black"/>
<path d="M420.549 0H413.922V6.27633H420.549V0Z" fill="black"/>
<path d="M223 142.664V127.264H225.42L231.734 136.966C231.829 137.113 231.936 137.292 232.053 137.505C232.178 137.71 232.284 137.912 232.372 138.11C232.365 137.934 232.354 137.736 232.339 137.516C232.332 137.296 232.328 137.113 232.328 136.966V127.264H234.858V142.664H232.537L226.102 132.918C226.014 132.771 225.908 132.592 225.783 132.379C225.666 132.166 225.559 131.972 225.464 131.796C225.493 131.972 225.508 132.163 225.508 132.368C225.515 132.566 225.519 132.749 225.519 132.918V142.664H223Z" fill="#FF0000"/>
<path d="M244.9 142.928C243.682 142.928 242.648 142.697 241.798 142.235C240.947 141.766 240.261 141.146 239.741 140.376C239.22 139.599 238.839 138.741 238.597 137.802C238.362 136.863 238.245 135.917 238.245 134.964C238.245 134.011 238.362 133.065 238.597 132.126C238.839 131.187 239.22 130.333 239.741 129.563C240.261 128.786 240.947 128.166 241.798 127.704C242.648 127.235 243.682 127 244.9 127C246.132 127 247.169 127.235 248.013 127.704C248.863 128.166 249.549 128.786 250.07 129.563C250.59 130.333 250.968 131.187 251.203 132.126C251.437 133.065 251.555 134.011 251.555 134.964C251.555 135.917 251.437 136.863 251.203 137.802C250.968 138.741 250.59 139.599 250.07 140.376C249.549 141.146 248.863 141.766 248.013 142.235C247.169 142.697 246.132 142.928 244.9 142.928ZM244.9 140.497C245.648 140.497 246.275 140.328 246.781 139.991C247.294 139.654 247.708 139.21 248.024 138.66C248.339 138.103 248.566 137.501 248.706 136.856C248.845 136.211 248.915 135.58 248.915 134.964C248.915 134.297 248.845 133.637 248.706 132.984C248.574 132.331 248.35 131.734 248.035 131.191C247.727 130.648 247.316 130.216 246.803 129.893C246.289 129.57 245.655 129.409 244.9 129.409C244.152 129.409 243.521 129.581 243.008 129.926C242.494 130.263 242.08 130.707 241.765 131.257C241.449 131.807 241.222 132.408 241.083 133.061C240.943 133.714 240.874 134.348 240.874 134.964C240.874 135.624 240.943 136.28 241.083 136.933C241.229 137.586 241.457 138.183 241.765 138.726C242.08 139.261 242.494 139.69 243.008 140.013C243.521 140.336 244.152 140.497 244.9 140.497Z" fill="#FF0000"/>
<path d="M254.936 142.664V127.264H261.635C262.896 127.264 263.894 127.484 264.627 127.924C265.36 128.364 265.881 128.94 266.189 129.651C266.504 130.355 266.662 131.103 266.662 131.895C266.662 132.489 266.548 133.083 266.321 133.677C266.094 134.271 265.738 134.803 265.254 135.272C264.777 135.734 264.165 136.068 263.417 136.273L266.541 142.664H263.692L260.689 136.57H257.477V142.664H254.936ZM257.477 134.194H261.679C262.273 134.194 262.742 134.084 263.087 133.864C263.439 133.644 263.688 133.362 263.835 133.017C263.982 132.672 264.055 132.309 264.055 131.928C264.055 131.576 263.985 131.228 263.846 130.883C263.714 130.531 263.472 130.238 263.12 130.003C262.775 129.761 262.295 129.64 261.679 129.64H257.477V134.194Z" fill="#FF0000"/>
<path d="M273.217 142.664V129.695H268.872V127.264H280.103V129.695H275.758V142.664H273.217Z" fill="#FF0000"/>
<path d="M283.134 142.664V127.264H285.675V133.501H292.429V127.264H294.97V142.664H292.429V135.91H285.675V142.664H283.134Z" fill="#FF0000"/>
<path d="M302.669 142.664L308.4 127.264H310.798L316.529 142.664H313.834L312.591 139.232H306.618L305.397 142.664H302.669ZM307.432 136.933H311.755L310.061 132.28C310.017 132.155 309.965 132.009 309.907 131.84C309.848 131.671 309.789 131.506 309.731 131.345C309.672 131.176 309.628 131.026 309.599 130.894C309.562 131.026 309.514 131.176 309.456 131.345C309.404 131.506 309.349 131.671 309.291 131.84C309.232 132.009 309.181 132.155 309.137 132.28L307.432 136.933Z" fill="#FF0000"/>
<path d="M326.174 142.928L322.148 133.974C322.082 133.805 322.008 133.622 321.928 133.424C321.854 133.226 321.785 133.039 321.719 132.863C321.733 133.01 321.744 133.193 321.752 133.413C321.759 133.626 321.763 133.813 321.763 133.974V142.664H319.222V127.264H321.719L325.822 136.548C325.895 136.709 325.961 136.871 326.02 137.032C326.086 137.193 326.148 137.362 326.207 137.538C326.265 137.369 326.324 137.204 326.383 137.043C326.449 136.874 326.518 136.709 326.592 136.548L330.728 127.264H333.115V142.664H330.574V133.974C330.574 133.798 330.577 133.6 330.585 133.38C330.592 133.153 330.599 132.977 330.607 132.852C330.541 133.013 330.464 133.2 330.376 133.413C330.295 133.626 330.222 133.813 330.156 133.974L326.174 142.928Z" fill="#FF0000"/>
<path d="M337.145 142.664V127.264H347.133V129.662H339.686V133.512H344.251V135.91H339.686V140.244H347.595V142.664H337.145Z" fill="#FF0000"/>
<path d="M350.814 142.664V127.264H357.513C358.774 127.264 359.772 127.484 360.505 127.924C361.238 128.364 361.759 128.94 362.067 129.651C362.382 130.355 362.54 131.103 362.54 131.895C362.54 132.489 362.426 133.083 362.199 133.677C361.972 134.271 361.616 134.803 361.132 135.272C360.655 135.734 360.043 136.068 359.295 136.273L362.419 142.664H359.57L356.567 136.57H353.355V142.664H350.814ZM353.355 134.194H357.557C358.151 134.194 358.62 134.084 358.965 133.864C359.317 133.644 359.566 133.362 359.713 133.017C359.86 132.672 359.933 132.309 359.933 131.928C359.933 131.576 359.863 131.228 359.724 130.883C359.592 130.531 359.35 130.238 358.998 130.003C358.653 129.761 358.173 129.64 357.557 129.64H353.355V134.194Z" fill="#FF0000"/>
<path d="M366.03 142.664V127.264H368.571V142.664H366.03Z" fill="#FF0000"/>
<path d="M378.471 142.906C377.283 142.906 376.279 142.679 375.457 142.224C374.636 141.769 373.972 141.161 373.466 140.398C372.968 139.628 372.605 138.774 372.377 137.835C372.15 136.889 372.036 135.932 372.036 134.964C372.036 134.033 372.154 133.098 372.388 132.159C372.623 131.22 372.993 130.362 373.499 129.585C374.005 128.808 374.669 128.184 375.49 127.715C376.312 127.238 377.305 127 378.471 127C379.432 127 380.261 127.154 380.957 127.462C381.654 127.77 382.23 128.166 382.684 128.65C383.146 129.134 383.495 129.644 383.729 130.179L381.463 131.257C381.214 130.89 380.954 130.568 380.682 130.289C380.411 130.01 380.096 129.794 379.736 129.64C379.384 129.486 378.963 129.409 378.471 129.409C377.76 129.409 377.159 129.578 376.667 129.915C376.176 130.252 375.784 130.696 375.49 131.246C375.204 131.796 374.995 132.397 374.863 133.05C374.731 133.695 374.665 134.333 374.665 134.964C374.665 135.631 374.739 136.295 374.885 136.955C375.032 137.608 375.259 138.202 375.567 138.737C375.875 139.265 376.268 139.69 376.744 140.013C377.228 140.328 377.804 140.486 378.471 140.486C379.19 140.486 379.784 140.306 380.253 139.947C380.73 139.58 381.144 139.107 381.496 138.528L383.817 139.397C383.509 140.064 383.113 140.662 382.629 141.19C382.145 141.718 381.559 142.136 380.869 142.444C380.187 142.752 379.388 142.906 378.471 142.906Z" fill="#FF0000"/>
<path d="M385.5 142.664L391.231 127.264H393.629L399.36 142.664H396.665L395.422 139.232H389.449L388.228 142.664H385.5ZM390.263 136.933H394.586L392.892 132.28C392.848 132.155 392.797 132.009 392.738 131.84C392.68 131.671 392.621 131.506 392.562 131.345C392.504 131.176 392.46 131.026 392.43 130.894C392.394 131.026 392.346 131.176 392.287 131.345C392.236 131.506 392.181 131.671 392.122 131.84C392.064 132.009 392.012 132.155 391.968 132.28L390.263 136.933Z" fill="#FF0000"/>
<path d="M406.591 142.664C406.591 141.579 406.731 140.622 407.009 139.793C407.288 138.957 407.666 138.224 408.142 137.593C408.626 136.962 409.176 136.409 409.792 135.932C410.416 135.448 411.068 135.012 411.75 134.623C412.205 134.352 412.634 134.069 413.037 133.776C413.441 133.483 413.767 133.153 414.016 132.786C414.273 132.419 414.401 131.994 414.401 131.51C414.401 130.887 414.181 130.377 413.741 129.981C413.301 129.578 412.711 129.376 411.97 129.376C411.215 129.376 410.606 129.556 410.144 129.915C409.682 130.267 409.33 130.74 409.088 131.334L406.833 130.311C407.207 129.321 407.856 128.522 408.78 127.913C409.704 127.304 410.771 127 411.981 127C413.023 127 413.914 127.194 414.654 127.583C415.402 127.972 415.971 128.507 416.359 129.189C416.755 129.864 416.953 130.63 416.953 131.488C416.953 132.383 416.777 133.138 416.425 133.754C416.081 134.363 415.619 134.894 415.039 135.349C414.46 135.796 413.822 136.225 413.125 136.636C412.473 137.017 411.904 137.388 411.42 137.747C410.936 138.099 410.537 138.473 410.221 138.869C409.906 139.265 409.679 139.712 409.539 140.211H417.085V142.664H406.591Z" fill="#FF0000"/>
<path d="M425.97 142.928C424.899 142.928 424.004 142.697 423.286 142.235C422.567 141.766 421.999 141.146 421.581 140.376C421.163 139.599 420.862 138.741 420.679 137.802C420.503 136.856 420.415 135.91 420.415 134.964C420.415 134.238 420.466 133.501 420.569 132.753C420.679 131.998 420.858 131.279 421.108 130.597C421.357 129.908 421.694 129.295 422.12 128.76C422.545 128.217 423.073 127.788 423.704 127.473C424.342 127.158 425.097 127 425.97 127C427.048 127 427.942 127.231 428.654 127.693C429.372 128.155 429.941 128.775 430.359 129.552C430.784 130.322 431.085 131.176 431.261 132.115C431.444 133.054 431.536 134.003 431.536 134.964C431.536 135.683 431.481 136.42 431.371 137.175C431.261 137.923 431.077 138.642 430.821 139.331C430.571 140.013 430.234 140.625 429.809 141.168C429.383 141.711 428.855 142.14 428.225 142.455C427.594 142.77 426.842 142.928 425.97 142.928ZM425.97 140.53C426.564 140.53 427.055 140.369 427.444 140.046C427.832 139.716 428.133 139.28 428.346 138.737C428.566 138.194 428.72 137.597 428.808 136.944C428.896 136.284 428.94 135.624 428.94 134.964C428.94 134.275 428.892 133.6 428.797 132.94C428.709 132.273 428.555 131.671 428.335 131.136C428.115 130.601 427.81 130.175 427.422 129.86C427.04 129.537 426.556 129.376 425.97 129.376C425.376 129.376 424.881 129.541 424.485 129.871C424.096 130.201 423.792 130.637 423.572 131.18C423.352 131.723 423.194 132.324 423.099 132.984C423.011 133.644 422.967 134.304 422.967 134.964C422.967 135.653 423.014 136.332 423.11 136.999C423.205 137.659 423.363 138.257 423.583 138.792C423.81 139.32 424.118 139.742 424.507 140.057C424.895 140.372 425.383 140.53 425.97 140.53Z" fill="#FF0000"/>
<path d="M434.832 142.664C434.832 141.579 434.971 140.622 435.25 139.793C435.529 138.957 435.906 138.224 436.383 137.593C436.867 136.962 437.417 136.409 438.033 135.932C438.656 135.448 439.309 135.012 439.991 134.623C440.446 134.352 440.875 134.069 441.278 133.776C441.682 133.483 442.008 133.153 442.257 132.786C442.514 132.419 442.642 131.994 442.642 131.51C442.642 130.887 442.422 130.377 441.982 129.981C441.542 129.578 440.952 129.376 440.211 129.376C439.456 129.376 438.847 129.556 438.385 129.915C437.923 130.267 437.571 130.74 437.329 131.334L435.074 130.311C435.448 129.321 436.097 128.522 437.021 127.913C437.945 127.304 439.012 127 440.222 127C441.264 127 442.154 127.194 442.895 127.583C443.643 127.972 444.211 128.507 444.6 129.189C444.996 129.864 445.194 130.63 445.194 131.488C445.194 132.383 445.018 133.138 444.666 133.754C444.322 134.363 443.859 134.894 443.28 135.349C442.701 135.796 442.063 136.225 441.366 136.636C440.714 137.017 440.145 137.388 439.661 137.747C439.177 138.099 438.777 138.473 438.462 138.869C438.147 139.265 437.919 139.712 437.78 140.211H445.326V142.664H434.832Z" fill="#FF0000"/>
<path d="M453.297 142.928C452.505 142.928 451.794 142.844 451.163 142.675C450.533 142.514 449.986 142.312 449.524 142.07C449.07 141.821 448.699 141.564 448.413 141.3L449.81 139.331C450.089 139.544 450.393 139.745 450.723 139.936C451.053 140.119 451.427 140.27 451.845 140.387C452.263 140.504 452.744 140.563 453.286 140.563C453.924 140.563 454.489 140.438 454.98 140.189C455.472 139.94 455.853 139.595 456.124 139.155C456.403 138.708 456.542 138.191 456.542 137.604C456.542 137.076 456.44 136.61 456.234 136.207C456.036 135.796 455.743 135.477 455.354 135.25C454.973 135.023 454.518 134.909 453.99 134.909C453.345 134.909 452.799 135.023 452.351 135.25C451.904 135.477 451.526 135.76 451.218 136.097L448.908 135.074L449.568 127.264H458.126V129.673H451.856L451.471 133.237C451.838 133.01 452.245 132.83 452.692 132.698C453.14 132.566 453.613 132.5 454.111 132.5C455.167 132.5 456.066 132.727 456.806 133.182C457.554 133.629 458.126 134.234 458.522 134.997C458.918 135.76 459.116 136.61 459.116 137.549C459.116 138.59 458.871 139.518 458.379 140.332C457.895 141.139 457.213 141.773 456.333 142.235C455.461 142.697 454.449 142.928 453.297 142.928Z" fill="#FF0000"/>
</svg>
