<?xml version="1.0" encoding="utf-8"?>
<!-- Generator: Adobe Illustrator 27.0.1, SVG Export Plug-In . SVG Version: 6.00 Build 0)  -->
<svg version="1.1" id="Layer_1" xmlns="http://www.w3.org/2000/svg" xmlns:xlink="http://www.w3.org/1999/xlink" x="0px" y="0px"
	 viewBox="0 0 552.8 130.2" style="enable-background:new 0 0 552.8 130.2;" xml:space="preserve">
<style type="text/css">
	.st0{fill:#ED2829;}
	.st1{fill:#FFFFFF;}
</style>
<polygon class="st0" points="149.1,55.9 149.1,18.6 93.2,18.6 74.6,37.3 55.9,18.6 0,18.6 0,55.9 18.6,74.6 0,93.2 0,130.2 
	55.9,130.2 74.6,111.6 93.2,130.2 149.1,130.2 149.1,93.2 130.5,74.6 "/>
<polygon class="st1" points="113.3,108 93.2,87.9 73.1,108 22.2,108 22.2,76 42.3,55.9 22.2,35.8 22.2,3.5 73.1,3.5 93.2,23.7 
	113.3,3.5 164.2,3.5 164.2,35.8 144.1,55.9 164.2,76 164.2,108 "/>
<path class="st0" d="M160.7,7.1v27.2l-16.6,16.6l-5.1,5l5.1,5.1l16.6,16.5v27h-45.9L98.2,87.9l-5-5.1l-5.1,5.1l-16.5,16.6H25.7v-27
	l16.6-16.5l5-5.1l-5-5L25.7,34.3V7.1h45.9l16.6,16.6l5.1,5l5-5l16.5-16.6H160.7 M167.8,0h-55.9L93.2,18.6L74.6,0H18.6v37.3
	l18.6,18.6L18.6,74.6v37h55.9L93.2,93l18.6,18.6h55.9v-37l-18.6-18.7l18.6-18.6V0z"/>
<rect x="61.7" y="50.7" width="10.2" height="10.2"/>
<rect x="88.1" y="50.7" width="10.2" height="10.2"/>
<rect x="114.5" y="50.7" width="10.2" height="10.2"/>
<rect x="114.5" y="50.7" width="10.2" height="10.2"/>
<g>
	<path d="M204.9,30.9c0-10.1,7-15.8,15.6-15.8c3.7,0.1,7.2,1.5,9.8,3.9l-4.6,4.9c-1.4-1.3-3.3-2-5.2-2c-3.9,0-7,3.2-7,8.7
		c0,5.7,3,8.8,7.4,8.8c2-0.1,3.9-0.9,5.2-2.4l4.6,4.8c-2.7,2.9-6.6,4.6-10.7,4.5C212,46.3,204.9,41.2,204.9,30.9z"/>
	<path d="M241.1,36.2V19.7h-7.4v-6.2h15.8v23c-0.2,1.7,1.2,3.3,3,3.4c0.2,0,0.5,0,0.7,0c1.2,0,2.4-0.2,3.5-0.7l1.8,5.8
		c-2.4,0.8-5,1.2-7.6,1.2C244.5,46.3,241.1,42.2,241.1,36.2z"/>
	<path d="M263.3,34.2c-0.6-6.6,4.5-12.4,11.5-13s13.2,4.3,13.8,10.9c0.1,0.7,0.1,1.5,0,2.2l0,0c0.6,6.6-4.5,12.4-11.5,13
		c-7,0.6-13.2-4.3-13.8-10.9C263.2,35.6,263.2,34.9,263.3,34.2z M279.9,34.2c0-3.5-1.2-5.8-4-5.8c-2.8,0-4.1,2.2-4.1,5.8
		s1.2,5.7,4,5.7C278.7,39.9,279.9,37.7,279.9,34.2z"/>
	<path d="M293.3,36.8V22.6h8.5v13.3c0,2.6,0.6,3.7,2.8,3.7c1.4,0,2.4-0.4,3.7-2v-15h8.5v23.2h-6.9l-0.6-3h-0.2
		c-1.9,2.3-4.9,3.6-7.9,3.6C295.6,46.3,293.3,42.6,293.3,36.8z"/>
	<path d="M322.1,34.2c0-7.6,5.1-12.2,10.2-12.2c2.2-0.1,4.3,0.8,5.7,2.4h0.2l-0.4-3.4v-7.5h8.5v32.2h-6.9l-0.6-2.1h-0.2
		c-1.7,1.6-4,2.6-6.3,2.7C326.1,46.3,322.1,41.6,322.1,34.2z M337.9,38.2v-8.6c-0.9-0.7-2-1.1-3.2-1.1c-2.1,0-3.9,1.5-3.9,5.5
		s1.4,5.8,3.8,5.8C335.9,39.9,337.2,39.2,337.9,38.2L337.9,38.2z"/>
	<path d="M352.4,47.9h23.5v5.8h-23.5V47.9z"/>
	<path d="M381.8,15.6h8.5l5.4,13.4l2.6,6.8h0.2c-0.6-3.8-1-7.6-1.2-11.5v-8.7h8v30.1h-8.5l-5.4-13.5l-2.5-6.7h-0.2
		c0.6,3.8,1,7.6,1.1,11.5v8.7h-8L381.8,15.6z"/>
	<path d="M410.9,39.2c0-5.2,4.3-7.9,15.5-8.4c-0.3-1.7-2-2.4-4.7-2.4c-2.1,0-4.1,0.6-7,2l-2.9-5.2c3.6-2,7.6-3,11.7-3.1
		c7,0,11.5,3.2,11.5,10.8v12.9h-6.9l-0.6-2.4h-0.2c-2.4,1.8-5.3,2.9-8.3,3C413.7,46.3,410.9,42.9,410.9,39.2z M426.4,38.4v-3
		c-6,0.2-7.4,1.5-7.4,3c0,1,0.9,1.7,2.6,1.7C423.3,40,425,39.4,426.4,38.4z"/>
	<path d="M445.6,35.9v-7.1h-5.9v-5.9l6.3-0.3l1.1-6.9h7v7h9.7v6.2H454v7c0,3.3,1.6,4.3,4.8,4.3c1.5,0,3-0.3,4.5-0.7l1.4,5.7
		c-2.6,0.8-5.4,1.2-8.2,1.2C448.5,46.3,445.6,42.1,445.6,35.9z"/>
	<path d="M480,28.8h-9.3v-6.2h17.7v23.2h-8.5L480,28.8z"/>
	<path d="M497.6,22.6h8.5l3.2,10.1c0.7,2.3,1.3,4.7,2,7.2h0.2c0.7-2.5,1.3-4.9,2-7.2l3.2-10.1h8l-8.5,23.2h-9.7L497.6,22.6z"/>
	<path d="M528.3,34.2c-0.2-6.6,5.3-12,12.3-12.2h0.6c7.8,0,11.6,5,11.6,11.2c0,1.1-0.1,2.2-0.3,3.3h-17.8v-5.2h12l-1.2,1.4
		c0-3-1.3-4.7-4-4.7c-3.2,0-5,2-5,6.1c0,4.3,2.3,6.1,6.8,6.1c2,0,4.1-0.5,5.9-1.4l2.7,4.8c-3,1.7-6.3,2.6-9.8,2.7
		C534.2,46.3,528.3,41.8,528.3,34.2z"/>
	<rect x="479.2" y="9.9" width="9.1" height="8.6"/>
</g>
<g>
	<path d="M204.9,71.2h11.2c6.5,0,12,2.2,12,9.7c0,7.3-5.6,10.3-12,10.3h-3.2v10.1h-7.9V71.2z M215.6,84.9c3.2,0,4.8-1.4,4.8-4
		s-1.7-3.4-4.8-3.4h-2.7v7.4H215.6z M220.1,83.9l9.8,17.5H221l-6.3-12.2L220.1,83.9z"/>
	<path d="M232.3,89.7c-0.2-6.6,5-12,11.6-12.2c0,0,0,0,0,0h0.6c7.3,0,11,5,11,11.2c0,1.1-0.1,2.2-0.3,3.3h-16.9v-5.1h11.3l-1.1,1.4
		c0-3-1.2-4.7-3.8-4.7c-3.1,0-4.7,2-4.7,6.1c0,4.3,2.1,6.1,6.4,6.1c1.9,0,3.9-0.5,5.6-1.4l2.6,4.7c-2.8,1.7-6,2.6-9.3,2.7
		C237.9,101.8,232.3,97.4,232.3,89.7z"/>
	<path d="M259.5,108.4l2.3-5.7c1.4,0.7,2.9,1,4.5,1c2.8,0,3.8-1.2,3.8-4.3V84.3h-8.8v-6.2H278v21c0,5.7-2.4,10.8-11.2,10.8
		C264.3,110,261.8,109.5,259.5,108.4z"/>
	<path d="M287.9,89.7c-0.2-6.6,5-12,11.6-12.2c0,0,0,0,0,0h0.5c7.3,0,11,5,11,11.2c0,1.1-0.1,2.2-0.3,3.3h-16.8v-5.1h11.3l-1.1,1.4
		c0-3-1.2-4.7-3.8-4.7c-3,0-4.7,2-4.7,6.1c0,4.3,2.1,6.1,6.4,6.1c1.9,0,3.8-0.5,5.6-1.4l2.6,4.7c-2.8,1.7-6,2.6-9.3,2.7
		C293.5,101.8,287.9,97.4,287.9,89.7z"/>
	<path d="M316.3,69.1h8v17.3h0.2l7-8.3h8.6l-15.8,17.5v5.7h-8L316.3,69.1z M326.2,91.5l4.5-4.9l9.9,14.7H332L326.2,91.5z"/>
	<path d="M348.6,91.5v-7.1h-5.6v-6l5.9-0.3l1-7h6.6v7h9.1v6.2h-9.1v7c0,3.3,1.5,4.3,4.5,4.3c1.4,0,2.9-0.3,4.2-0.7l1.4,5.7
		c-2.5,0.8-5.1,1.2-7.7,1.2C351.4,101.8,348.6,97.7,348.6,91.5z"/>
	<path d="M371,98.3l3.3-4.9c2.8,1.7,5.9,2.6,9.2,2.6c2,0,2.9-0.6,2.9-1.4c0-1.1-1.2-1.3-5.1-2.1c-6.4-1.4-8.7-3.8-8.7-7.4
		c0-4.5,4.3-7.5,11-7.5c3.7,0.1,7.2,1.2,10.3,3.2l-3.5,4.7c-2.3-1.3-4.9-2.1-7.5-2.1c-1.5,0-2.4,0.5-2.4,1.3c0,1,1.2,1.1,4.8,2
		c7,1.6,9,3.7,9,7.5c0,4.3-4.1,7.7-11.9,7.7C378.3,101.8,374.4,100.5,371,98.3z"/>
	<rect x="269.3" y="65.4" width="8.6" height="8.6"/>
</g>
<g>
	<path class="st0" d="M420,76.2h11v3.2h-6.3v24.5h6.3v3.2h-11V76.2z"/>
	<path class="st0" d="M541.8,103.9h6.3V79.4h-6.3v-3.2h11v31h-11V103.9z"/>
	<rect x="483" y="78.1" class="st0" width="8.6" height="8.6"/>
	<g>
		<path class="st0" d="M498.3,98.2c6.6-5.4,11.1-9.3,11.1-12.5c0-2.2-1.4-3.4-3.8-3.4c-1.8,0-3.3,1.1-4.6,2.3l-2.9-2.8
			c2.4-2.4,4.7-3.6,8.2-3.6c4.9,0,8.2,2.8,8.2,7.2c0,3.8-4,7.9-8.5,11.7c1.3-0.1,3-0.3,4.2-0.3h5.5v4.4h-17.3V98.2z"/>
		<path class="st0" d="M519.5,98.5l2.5-3.3c1.5,1.3,3.5,2.3,5.6,2.3c2.5,0,4.3-1,4.3-2.7c0-2-1.6-3.2-7-3.2v-3.7
			c4.5,0,6.2-1.2,6.2-3c0-1.6-1.3-2.5-3.4-2.5c-1.8,0-3.3,0.7-4.9,2l-2.7-3.2c2.2-1.8,4.9-2.9,7.8-2.9c5,0,8.5,2.2,8.5,6.2
			c0,2.3-1.7,4-4.4,5v0.1c2.9,0.7,5.2,2.6,5.2,5.5c0,4.2-4.3,6.6-9.2,6.6C524.1,101.7,521.3,100.4,519.5,98.5z"/>
	</g>
	<g>
		<path class="st0" d="M435.2,78.2h17.5v4.4h-11.5v4.6h9.8v4.4h-9.8v5.3H453v4.4h-17.9V78.2z"/>
		<path class="st0" d="M458.3,92.4V78.2h6v14.7c0,2.8,1.2,4.3,3.6,4.3c2.5,0,3.7-1.5,3.7-4.3V78.2h5.8v14.1c0,6-3.1,9.3-9.5,9.3
			C461.5,101.7,458.3,98.4,458.3,92.4z"/>
	</g>
</g>
</svg>
