<svg width="468" height="143" viewBox="0 0 468 143" fill="none" xmlns="http://www.w3.org/2000/svg">
<path d="M163.189 61.192V20.4083H101.987L81.5892 40.7947L61.1919 20.4083H0V61.192L20.4083 81.5893L0 101.987V142.519H61.1919L81.5892 122.11L101.987 142.519H163.189V101.987L142.781 81.5893L163.189 61.192Z" fill="#FF0000"/>
<path d="M123.993 118.226L101.987 96.2087L79.9807 118.226H24.293V83.1978L46.288 61.1919L24.293 39.186V3.88464H79.9807L101.987 25.8905L123.993 3.88464H179.691V39.186L157.685 61.1919L179.691 83.1978V118.226H123.993Z" fill="white"/>
<path d="M175.807 7.76936V37.5774L157.685 55.6987L152.137 61.17L157.685 66.7508L175.807 84.8064V114.352H125.612L107.48 96.2197L102.009 90.6717L96.4605 96.2197L78.3722 114.341H28.1668V84.7955L46.288 66.6852L51.7594 61.1372L46.288 55.6658L28.1668 37.5774V7.76936H78.3722L96.4934 25.8906L102.041 31.362L107.513 25.8906L125.612 7.76936H175.807ZM183.576 0H122.384L101.987 20.3973L81.5893 0H20.3974V40.7946L40.7947 61.1919L20.3974 81.5892V122.077H81.5893L101.987 101.768L122.384 122.165H183.576V81.6768L163.19 61.1919L183.576 40.7946V0Z" fill="#FF0000"/>
<path d="M78.6894 55.4906H67.5496V66.6303H78.6894V55.4906Z" fill="black"/>
<path d="M107.567 55.4906H96.4275V66.6303H107.567V55.4906Z" fill="black"/>
<path d="M136.435 55.4906H125.295V66.6303H136.435V55.4906Z" fill="black"/>
<path d="M136.435 55.4906H125.295V66.6303H136.435V55.4906Z" fill="black"/>
<path d="M215 53.201H229.881C238.521 53.201 245.882 56.1936 245.882 66.1999C245.882 76.2062 238.468 79.9469 229.881 79.9469H225.547V93.4266H215V53.201ZM229.201 71.5303C233.414 71.5303 235.628 69.6734 235.628 66.1865C235.628 62.6997 233.414 61.6042 229.201 61.6042H225.547V71.5303H229.201ZM235.201 70.1944L248.228 93.5068H236.441L228.094 77.2482L235.201 70.1944Z" fill="black"/>
<path d="M254.379 77.9694C254.166 69.2055 261.073 61.9246 269.82 61.7108C269.82 61.7108 269.833 61.7108 269.847 61.7108H270.607C280.367 61.7108 285.274 68.3906 285.274 76.6067C285.247 78.103 285.101 79.5992 284.847 81.0688H262.38V74.2554H277.447L276.02 76.1124C276.02 72.1045 274.434 69.7933 270.967 69.7933C266.9 69.7933 264.66 72.4652 264.66 77.9293C264.66 83.7407 267.5 86.0653 273.18 86.0653C275.767 86.0118 278.327 85.3839 280.634 84.2083L284.101 90.514C280.381 92.7851 276.114 94.0276 271.753 94.1077C261.873 94.1745 254.379 88.2162 254.379 77.9694Z" fill="black"/>
<path d="M323.032 77.9694C322.819 69.2055 329.726 61.9246 338.473 61.7108C338.473 61.7108 338.486 61.7108 338.499 61.7108H339.233C348.98 61.7108 353.9 68.3906 353.9 76.6067C353.873 78.103 353.727 79.5992 353.473 81.0688H331.072V74.2554H346.14L344.646 76.1124C344.646 72.1045 343.06 69.7933 339.593 69.7933C335.592 69.7933 333.286 72.4652 333.286 77.9293C333.286 83.7407 336.126 86.0653 341.806 86.0653C344.38 86.0118 346.913 85.3706 349.22 84.2083L352.687 90.514C348.967 92.7985 344.7 94.0276 340.339 94.1077C330.566 94.1745 323.032 88.2162 323.032 77.9694Z" fill="black"/>
<path d="M361.627 50.3552H372.294V73.5073H372.534L381.868 62.459H393.362L372.254 85.8783V93.4264H361.587L361.627 50.3552ZM374.841 80.3073L380.855 73.7478L394.069 93.4264H382.575L374.841 80.3073Z" fill="black"/>
<path d="M406.161 80.3072V70.822H398.747V62.8062L406.628 62.3921L407.961 53.0404H416.722V62.3921H428.896V70.6884H416.722V80.04C416.722 84.4353 418.762 85.798 422.722 85.798C424.629 85.7847 426.535 85.4507 428.336 84.8094L430.189 92.4778C426.869 93.5065 423.415 94.0409 419.935 94.0943C409.868 94.1745 406.161 88.6035 406.161 80.3072Z" fill="black"/>
<path d="M436.102 89.472L440.516 82.9124C444.209 85.1301 448.423 86.3191 452.73 86.3592C455.396 86.3592 456.557 85.6244 456.557 84.5022C456.557 83.0193 454.943 82.7788 449.783 81.6566C441.262 79.813 438.169 76.58 438.169 71.7572C438.169 65.7053 443.916 61.7375 452.836 61.7375C457.717 61.8444 462.477 63.3407 466.53 66.066L461.837 72.3851C458.81 70.5949 455.37 69.6063 451.85 69.5395C449.876 69.5395 448.623 70.1541 448.623 71.2629C448.623 72.5989 450.236 72.7458 455.05 73.9348C464.317 76.0323 467.05 78.8244 467.05 83.9545C467.05 89.7659 461.557 94.228 451.236 94.228C445.849 94.0676 440.609 92.4244 436.102 89.472Z" fill="black"/>
<path d="M291.73 102.965L294.756 95.4036C296.636 96.272 298.677 96.7262 300.743 96.7396C304.504 96.7396 305.744 95.1364 305.744 90.9282V70.782H294.01V62.459H316.438V90.514C316.438 98.0622 313.224 104.996 301.557 104.996C298.17 105.063 294.81 104.368 291.73 102.965Z" fill="black"/>
<path d="M316.358 45.519H304.837V57.0617H316.358V45.519Z" fill="black"/>
<path d="M321.943 27.6626H338.989V31.8977H321.943V27.6626Z" fill="black"/>
<path d="M215.007 15.2841C215.007 7.95442 220.054 3.77747 226.296 3.77747C228.964 3.83558 231.509 4.85984 233.409 6.63959L230.066 10.2063C229.051 9.29105 227.703 8.78255 226.296 8.78982C223.461 8.78982 221.257 11.1507 221.257 15.1243C221.257 19.0978 223.461 21.5096 226.586 21.5096C228.043 21.4514 229.407 20.8195 230.356 19.7661L233.692 23.2603C231.763 25.396 228.914 26.58 225.948 26.4929C220.184 26.4565 215 22.7518 215 15.2841H215.007Z" fill="black"/>
<path d="M241.297 19.1197V7.14088H235.924V2.62976H247.373V19.3376C247.242 20.5943 248.214 21.7058 249.533 21.8292C249.7 21.8438 249.867 21.8438 250.034 21.8292C250.904 21.8074 251.774 21.6476 252.586 21.3571L253.905 25.5921C252.136 26.1733 250.273 26.4711 248.395 26.4711C243.711 26.4566 241.29 23.4928 241.29 19.1197H241.297Z" fill="black"/>
<path d="M257.349 17.6452C256.885 12.8508 260.612 8.60847 265.68 8.17261C270.741 7.73676 275.222 11.2672 275.686 16.0616C275.736 16.5919 275.736 17.1222 275.686 17.6525C276.15 22.4469 272.423 26.6893 267.355 27.1251C262.294 27.561 257.813 24.0305 257.349 19.2361C257.299 18.7058 257.299 18.1755 257.349 17.6452ZM269.429 17.6452C269.429 15.0882 268.58 13.461 266.514 13.461C264.448 13.461 263.578 15.0882 263.578 17.6452C263.578 20.2023 264.419 21.8149 266.485 21.8149C268.551 21.8149 269.429 20.195 269.429 17.6452Z" fill="black"/>
<path d="M279.144 19.5848V9.22595H285.278V18.8511C285.278 20.7398 285.706 21.5389 287.301 21.5389C288.338 21.5389 289.041 21.2774 289.969 20.086V9.22595H296.103V26.05H291.129L290.701 23.8707H290.564C289.172 25.5415 287.047 26.5077 284.8 26.4931C280.79 26.4568 279.13 23.7908 279.13 19.5848H279.144Z" fill="black"/>
<path d="M299.982 17.645C299.982 12.1242 303.68 8.79713 307.406 8.79713C308.994 8.74628 310.531 9.37827 311.561 10.526H311.698L311.423 8.09249V2.64429H317.557V26.0498H312.583L312.155 24.5025H312.017C310.792 25.672 309.154 26.3694 307.413 26.4566C302.889 26.4566 299.975 23.086 299.975 17.645H299.982ZM311.43 20.5507V14.3398C310.792 13.795 309.951 13.5116 309.088 13.5407C307.595 13.5407 306.239 14.6158 306.239 17.5724C306.239 20.5289 307.276 21.7493 309.016 21.7493C309.995 21.8002 310.923 21.328 311.423 20.5289V20.5507H311.43Z" fill="black"/>
<path d="M343.26 4.177H349.437L353.323 13.9039L355.208 18.8218H355.346C354.904 16.0614 354.614 13.2864 354.483 10.4969V4.177H360.298V26.0497H354.164L350.278 16.2575L348.444 11.3759H348.299C348.719 14.1436 348.995 16.9258 349.118 19.7153V26.0352H343.289L343.26 4.177Z" fill="black"/>
<path d="M364.358 21.2772C364.358 17.4998 367.475 15.553 375.581 15.1534C375.364 13.933 374.16 13.3955 372.166 13.3955C370.68 13.3955 369.187 13.8676 367.055 14.812L364.923 11.0491C367.504 9.61804 370.426 8.85529 373.414 8.81897C378.46 8.81897 381.73 11.1799 381.73 16.7007V26.0498H376.712L376.292 24.2991H376.147C374.429 25.614 372.319 26.3767 370.107 26.4784C366.41 26.4566 364.351 24.0304 364.351 21.2772H364.358ZM375.581 20.7396V18.5604C371.246 18.6984 370.209 19.6355 370.209 20.7396C370.209 21.4661 370.854 21.9455 372.13 21.9455C373.392 21.9092 374.603 21.4879 375.581 20.7396Z" fill="black"/>
<path d="M389.532 18.9162V13.7586H385.268V9.43634L389.807 9.22567L390.576 4.177H395.615V9.262H402.619V13.7731H395.615V18.8581C395.615 21.2481 396.789 21.989 399.059 21.989C400.161 21.9745 401.248 21.7929 402.285 21.4514L403.336 25.5776C401.415 26.1369 399.421 26.4275 397.413 26.4565C391.642 26.4565 389.524 23.4273 389.524 18.9162H389.532Z" fill="black"/>
<path d="M414.444 13.7371H407.694V9.22595H420.556V26.05H414.423L414.444 13.7371Z" fill="black"/>
<path d="M427.241 9.22595H433.375L435.674 16.5992C436.203 18.2845 436.631 20.0279 437.131 21.8513H437.269C437.769 20.0279 438.197 18.2845 438.726 16.5992L441.024 9.26227H446.854L440.669 26.0863H433.665L427.227 9.22595H427.241Z" fill="black"/>
<path d="M449.471 17.6451C449.362 12.8797 453.342 8.9352 458.367 8.81897H458.802C464.428 8.81897 467.241 12.4511 467.241 16.9622C467.227 17.7758 467.14 18.5894 466.995 19.3885H454.089V15.6256H462.797L461.934 16.6353C461.934 14.456 461.013 13.1993 459.027 13.1993C456.728 13.1993 455.401 14.6159 455.401 17.6233C455.401 20.7832 457.033 22.04 460.303 22.04C461.789 22.0109 463.246 21.6695 464.566 21.0302L466.523 24.5243C464.377 25.7593 461.927 26.4348 459.418 26.4784C453.792 26.4566 449.463 23.224 449.463 17.6451H449.471Z" fill="black"/>
<path d="M420.549 0H413.922V6.27633H420.549V0Z" fill="black"/>
<path d="M263 142.664V127.264H272.988V129.662H265.541V133.512H270.106V135.91H265.541V140.244H273.45V142.664H263Z" fill="#FF0000"/>
<path d="M283.465 142.928C282.181 142.928 281.1 142.69 280.22 142.213C279.34 141.736 278.672 141.043 278.218 140.134C277.77 139.225 277.547 138.117 277.547 136.812V127.264H280.088V136.812C280.088 138.044 280.352 138.968 280.88 139.584C281.415 140.193 282.277 140.497 283.465 140.497C284.22 140.497 284.847 140.369 285.346 140.112C285.852 139.855 286.229 139.459 286.479 138.924C286.728 138.381 286.853 137.677 286.853 136.812V127.264H289.383V136.812C289.383 137.875 289.236 138.792 288.943 139.562C288.657 140.332 288.25 140.966 287.722 141.465C287.194 141.964 286.567 142.334 285.841 142.576C285.122 142.811 284.33 142.928 283.465 142.928Z" fill="#FF0000"/>
<path d="M294.247 142.664V127.264H300.946C302.207 127.264 303.205 127.484 303.938 127.924C304.671 128.364 305.192 128.94 305.5 129.651C305.815 130.355 305.973 131.103 305.973 131.895C305.973 132.489 305.859 133.083 305.632 133.677C305.405 134.271 305.049 134.803 304.565 135.272C304.088 135.734 303.476 136.068 302.728 136.273L305.852 142.664H303.003L300 136.57H296.788V142.664H294.247ZM296.788 134.194H300.99C301.584 134.194 302.053 134.084 302.398 133.864C302.75 133.644 302.999 133.362 303.146 133.017C303.293 132.672 303.366 132.309 303.366 131.928C303.366 131.576 303.296 131.228 303.157 130.883C303.025 130.531 302.783 130.238 302.431 130.003C302.086 129.761 301.606 129.64 300.99 129.64H296.788V134.194Z" fill="#FF0000"/>
<path d="M316.382 142.928C315.165 142.928 314.131 142.697 313.28 142.235C312.429 141.766 311.744 141.146 311.223 140.376C310.702 139.599 310.321 138.741 310.079 137.802C309.844 136.863 309.727 135.917 309.727 134.964C309.727 134.011 309.844 133.065 310.079 132.126C310.321 131.187 310.702 130.333 311.223 129.563C311.744 128.786 312.429 128.166 313.28 127.704C314.131 127.235 315.165 127 316.382 127C317.614 127 318.652 127.235 319.495 127.704C320.346 128.166 321.031 128.786 321.552 129.563C322.073 130.333 322.45 131.187 322.685 132.126C322.92 133.065 323.037 134.011 323.037 134.964C323.037 135.917 322.92 136.863 322.685 137.802C322.45 138.741 322.073 139.599 321.552 140.376C321.031 141.146 320.346 141.766 319.495 142.235C318.652 142.697 317.614 142.928 316.382 142.928ZM316.382 140.497C317.13 140.497 317.757 140.328 318.263 139.991C318.776 139.654 319.191 139.21 319.506 138.66C319.821 138.103 320.049 137.501 320.188 136.856C320.327 136.211 320.397 135.58 320.397 134.964C320.397 134.297 320.327 133.637 320.188 132.984C320.056 132.331 319.832 131.734 319.517 131.191C319.209 130.648 318.798 130.216 318.285 129.893C317.772 129.57 317.137 129.409 316.382 129.409C315.634 129.409 315.003 129.581 314.49 129.926C313.977 130.263 313.562 130.707 313.247 131.257C312.932 131.807 312.704 132.408 312.565 133.061C312.426 133.714 312.356 134.348 312.356 134.964C312.356 135.624 312.426 136.28 312.565 136.933C312.712 137.586 312.939 138.183 313.247 138.726C313.562 139.261 313.977 139.69 314.49 140.013C315.003 140.336 315.634 140.497 316.382 140.497Z" fill="#FF0000"/>
<path d="M327.298 142.664V127.264H333.601C334.877 127.264 335.889 127.499 336.637 127.968C337.393 128.43 337.932 129.028 338.254 129.761C338.577 130.487 338.738 131.242 338.738 132.027C338.738 132.577 338.643 133.131 338.452 133.688C338.269 134.238 337.972 134.748 337.561 135.217C337.151 135.686 336.619 136.064 335.966 136.35C335.314 136.629 334.525 136.768 333.601 136.768H329.839V142.664H327.298ZM329.839 134.392H333.733C334.327 134.392 334.8 134.275 335.152 134.04C335.504 133.798 335.757 133.497 335.911 133.138C336.065 132.771 336.142 132.401 336.142 132.027C336.142 131.69 336.073 131.338 335.933 130.971C335.801 130.597 335.559 130.282 335.207 130.025C334.855 129.768 334.364 129.64 333.733 129.64H329.839V134.392Z" fill="#FF0000"/>
<path d="M342.406 142.664V127.264H352.394V129.662H344.947V133.512H349.512V135.91H344.947V140.244H352.856V142.664H342.406Z" fill="#FF0000"/>
<path d="M363.082 142.664C363.082 141.579 363.222 140.622 363.5 139.793C363.779 138.957 364.157 138.224 364.633 137.593C365.117 136.962 365.667 136.409 366.283 135.932C366.907 135.448 367.559 135.012 368.241 134.623C368.696 134.352 369.125 134.069 369.528 133.776C369.932 133.483 370.258 133.153 370.507 132.786C370.764 132.419 370.892 131.994 370.892 131.51C370.892 130.887 370.672 130.377 370.232 129.981C369.792 129.578 369.202 129.376 368.461 129.376C367.706 129.376 367.097 129.556 366.635 129.915C366.173 130.267 365.821 130.74 365.579 131.334L363.324 130.311C363.698 129.321 364.347 128.522 365.271 127.913C366.195 127.304 367.262 127 368.472 127C369.514 127 370.405 127.194 371.145 127.583C371.893 127.972 372.462 128.507 372.85 129.189C373.246 129.864 373.444 130.63 373.444 131.488C373.444 132.383 373.268 133.138 372.916 133.754C372.572 134.363 372.11 134.894 371.53 135.349C370.951 135.796 370.313 136.225 369.616 136.636C368.964 137.017 368.395 137.388 367.911 137.747C367.427 138.099 367.028 138.473 366.712 138.869C366.397 139.265 366.17 139.712 366.03 140.211H373.576V142.664H363.082Z" fill="#FF0000"/>
<path d="M383.341 142.928C382.27 142.928 381.375 142.697 380.657 142.235C379.938 141.766 379.37 141.146 378.952 140.376C378.534 139.599 378.233 138.741 378.05 137.802C377.874 136.856 377.786 135.91 377.786 134.964C377.786 134.238 377.837 133.501 377.94 132.753C378.05 131.998 378.229 131.279 378.479 130.597C378.728 129.908 379.065 129.295 379.491 128.76C379.916 128.217 380.444 127.788 381.075 127.473C381.713 127.158 382.468 127 383.341 127C384.419 127 385.313 127.231 386.025 127.693C386.743 128.155 387.312 128.775 387.73 129.552C388.155 130.322 388.456 131.176 388.632 132.115C388.815 133.054 388.907 134.003 388.907 134.964C388.907 135.683 388.852 136.42 388.742 137.175C388.632 137.923 388.448 138.642 388.192 139.331C387.942 140.013 387.605 140.625 387.18 141.168C386.754 141.711 386.226 142.14 385.596 142.455C384.965 142.77 384.213 142.928 383.341 142.928ZM383.341 140.53C383.935 140.53 384.426 140.369 384.815 140.046C385.203 139.716 385.504 139.28 385.717 138.737C385.937 138.194 386.091 137.597 386.179 136.944C386.267 136.284 386.311 135.624 386.311 134.964C386.311 134.275 386.263 133.6 386.168 132.94C386.08 132.273 385.926 131.671 385.706 131.136C385.486 130.601 385.181 130.175 384.793 129.86C384.411 129.537 383.927 129.376 383.341 129.376C382.747 129.376 382.252 129.541 381.856 129.871C381.467 130.201 381.163 130.637 380.943 131.18C380.723 131.723 380.565 132.324 380.47 132.984C380.382 133.644 380.338 134.304 380.338 134.964C380.338 135.653 380.385 136.332 380.481 136.999C380.576 137.659 380.734 138.257 380.954 138.792C381.181 139.32 381.489 139.742 381.878 140.057C382.266 140.372 382.754 140.53 383.341 140.53Z" fill="#FF0000"/>
<path d="M393.083 142.664C393.083 141.579 393.223 140.622 393.501 139.793C393.78 138.957 394.158 138.224 394.634 137.593C395.118 136.962 395.668 136.409 396.284 135.932C396.908 135.448 397.56 135.012 398.242 134.623C398.697 134.352 399.126 134.069 399.529 133.776C399.933 133.483 400.259 133.153 400.508 132.786C400.765 132.419 400.893 131.994 400.893 131.51C400.893 130.887 400.673 130.377 400.233 129.981C399.793 129.578 399.203 129.376 398.462 129.376C397.707 129.376 397.098 129.556 396.636 129.915C396.174 130.267 395.822 130.74 395.58 131.334L393.325 130.311C393.699 129.321 394.348 128.522 395.272 127.913C396.196 127.304 397.263 127 398.473 127C399.515 127 400.406 127.194 401.146 127.583C401.894 127.972 402.463 128.507 402.851 129.189C403.247 129.864 403.445 130.63 403.445 131.488C403.445 132.383 403.269 133.138 402.917 133.754C402.573 134.363 402.111 134.894 401.531 135.349C400.952 135.796 400.314 136.225 399.617 136.636C398.965 137.017 398.396 137.388 397.912 137.747C397.428 138.099 397.029 138.473 396.713 138.869C396.398 139.265 396.171 139.712 396.031 140.211H403.577V142.664H393.083Z" fill="#FF0000"/>
<path d="M412.428 142.928C411.636 142.928 410.925 142.844 410.294 142.675C409.664 142.514 409.117 142.312 408.655 142.07C408.201 141.821 407.83 141.564 407.544 141.3L408.941 139.331C409.22 139.544 409.524 139.745 409.854 139.936C410.184 140.119 410.558 140.27 410.976 140.387C411.394 140.504 411.875 140.563 412.417 140.563C413.055 140.563 413.62 140.438 414.111 140.189C414.603 139.94 414.984 139.595 415.255 139.155C415.534 138.708 415.673 138.191 415.673 137.604C415.673 137.076 415.571 136.61 415.365 136.207C415.167 135.796 414.874 135.477 414.485 135.25C414.104 135.023 413.649 134.909 413.121 134.909C412.476 134.909 411.93 135.023 411.482 135.25C411.035 135.477 410.657 135.76 410.349 136.097L408.039 135.074L408.699 127.264H417.257V129.673H410.987L410.602 133.237C410.969 133.01 411.376 132.83 411.823 132.698C412.271 132.566 412.744 132.5 413.242 132.5C414.298 132.5 415.197 132.727 415.937 133.182C416.685 133.629 417.257 134.234 417.653 134.997C418.049 135.76 418.247 136.61 418.247 137.549C418.247 138.59 418.002 139.518 417.51 140.332C417.026 141.139 416.344 141.773 415.464 142.235C414.592 142.697 413.58 142.928 412.428 142.928Z" fill="#FF0000"/>
</svg>
