<svg width="553" height="131" viewBox="0 0 553 131" fill="none" xmlns="http://www.w3.org/2000/svg">
<path d="M149.13 55.92V18.65H93.2L74.56 37.28L55.92 18.65H0V55.92L18.65 74.56L0 93.2V130.24H55.92L74.56 111.59L93.2 130.24H149.13V93.2L130.48 74.56L149.13 55.92Z" fill="#FF0000"/>
<path d="M113.31 108.04L93.2 87.92L73.09 108.04H22.2V76.03L42.3 55.92L22.2 35.81V3.54999H73.09L93.2 23.66L113.31 3.54999H164.21V35.81L144.1 55.92L164.21 76.03V108.04H113.31Z" fill="white"/>
<path d="M160.66 7.1V34.34L144.1 50.9L139.03 55.9L144.1 61L160.66 77.5V104.5H114.79L98.22 87.93L93.22 82.86L88.15 87.93L71.62 104.49H25.74V77.49L42.3 60.94L47.3 55.87L42.3 50.87L25.74 34.34V7.1H71.62L88.18 23.66L93.25 28.66L98.25 23.66L114.79 7.1H160.66ZM167.76 0H111.84L93.2 18.64L74.56 0H18.64V37.28L37.28 55.92L18.64 74.56V111.56H74.56L93.2 93L111.84 111.64H167.76V74.64L149.13 55.92L167.76 37.28V0Z" fill="#FF0000"/>
<path d="M71.91 50.71H61.73V60.89H71.91V50.71Z" fill="black"/>
<path d="M98.3 50.71H88.12V60.89H98.3V50.71Z" fill="black"/>
<path d="M124.68 50.71H114.5V60.89H124.68V50.71Z" fill="black"/>
<path d="M124.68 50.71H114.5V60.89H124.68V50.71Z" fill="black"/>
<path d="M204.88 30.9C204.88 20.81 211.84 15.06 220.45 15.06C224.13 15.14 227.64 16.55 230.26 19L225.65 23.91C224.25 22.65 222.39 21.95 220.45 21.96C216.54 21.96 213.5 25.21 213.5 30.68C213.5 36.15 216.54 39.47 220.85 39.47C222.86 39.39 224.74 38.52 226.05 37.07L230.65 41.88C227.99 44.82 224.06 46.45 219.97 46.33C212.02 46.28 204.87 41.18 204.87 30.9H204.88Z" fill="black"/>
<path d="M241.14 36.18V19.69H233.73V13.48H249.52V36.48C249.34 38.21 250.68 39.74 252.5 39.91C252.73 39.93 252.96 39.93 253.19 39.91C254.39 39.88 255.59 39.66 256.71 39.26L258.53 45.09C256.09 45.89 253.52 46.3 250.93 46.3C244.47 46.28 241.13 42.2 241.13 36.18H241.14Z" fill="black"/>
<path d="M263.28 34.15C262.64 27.55 267.78 21.71 274.77 21.11C281.75 20.51 287.93 25.37 288.57 31.97C288.64 32.7 288.64 33.43 288.57 34.16C289.21 40.76 284.07 46.6 277.08 47.2C270.1 47.8 263.92 42.94 263.28 36.34C263.21 35.61 263.21 34.88 263.28 34.15ZM279.94 34.15C279.94 30.63 278.77 28.39 275.92 28.39C273.07 28.39 271.87 30.63 271.87 34.15C271.87 37.67 273.03 39.89 275.88 39.89C278.73 39.89 279.94 37.66 279.94 34.15Z" fill="black"/>
<path d="M293.34 36.82V22.56H301.8V35.81C301.8 38.41 302.39 39.51 304.59 39.51C306.02 39.51 306.99 39.15 308.27 37.51V22.56H316.73V45.72H309.87L309.28 42.72H309.09C307.17 45.02 304.24 46.35 301.14 46.33C295.61 46.28 293.32 42.61 293.32 36.82H293.34Z" fill="black"/>
<path d="M322.08 34.15C322.08 26.55 327.18 21.97 332.32 21.97C334.51 21.9 336.63 22.77 338.05 24.35H338.24L337.86 21V13.5H346.32V45.72H339.46L338.87 43.59H338.68C336.99 45.2 334.73 46.16 332.33 46.28C326.09 46.28 322.07 41.64 322.07 34.15H322.08ZM337.87 38.15V29.6C336.99 28.85 335.83 28.46 334.64 28.5C332.58 28.5 330.71 29.98 330.71 34.05C330.71 38.12 332.14 39.8 334.54 39.8C335.89 39.87 337.17 39.22 337.86 38.12V38.15H337.87Z" fill="black"/>
<path d="M352.37 47.94H375.88V53.77H352.37V47.94Z" fill="black"/>
<path d="M381.77 15.61H390.29L395.65 29L398.25 35.77H398.44C397.83 31.97 397.43 28.15 397.25 24.31V15.61H405.27V45.72H396.81L391.45 32.24L388.92 25.52H388.72C389.3 29.33 389.68 33.16 389.85 37V45.7H381.81L381.77 15.61Z" fill="black"/>
<path d="M410.87 39.15C410.87 33.95 415.17 31.27 426.35 30.72C426.05 29.04 424.39 28.3 421.64 28.3C419.59 28.3 417.53 28.95 414.59 30.25L411.65 25.07C415.21 23.1 419.24 22.05 423.36 22C430.32 22 434.83 25.25 434.83 32.85V45.72H427.91L427.33 43.31H427.13C424.76 45.12 421.85 46.17 418.8 46.31C413.7 46.28 410.86 42.94 410.86 39.15H410.87ZM426.35 38.41V35.41C420.37 35.6 418.94 36.89 418.94 38.41C418.94 39.41 419.83 40.07 421.59 40.07C423.33 40.02 425 39.44 426.35 38.41Z" fill="black"/>
<path d="M445.59 35.9V28.8H439.71V22.85L445.97 22.56L447.03 15.61H453.98V22.61H463.64V28.82H453.98V35.82C453.98 39.11 455.6 40.13 458.73 40.13C460.25 40.11 461.75 39.86 463.18 39.39L464.63 45.07C461.98 45.84 459.23 46.24 456.46 46.28C448.5 46.28 445.58 42.11 445.58 35.9H445.59Z" fill="black"/>
<path d="M479.95 28.77H470.64V22.56H488.38V45.72H479.92L479.95 28.77Z" fill="black"/>
<path d="M497.6 22.56H506.06L509.23 32.71C509.96 35.03 510.55 37.43 511.24 39.94H511.43C512.12 37.43 512.71 35.03 513.44 32.71L516.61 22.61H524.65L516.12 45.77H506.46L497.58 22.56H497.6Z" fill="black"/>
<path d="M528.26 34.15C528.11 27.59 533.6 22.16 540.53 22H541.13C548.89 22 552.77 27 552.77 33.21C552.75 34.33 552.63 35.45 552.43 36.55H534.63V31.37H546.64L545.45 32.76C545.45 29.76 544.18 28.03 541.44 28.03C538.27 28.03 536.44 29.98 536.44 34.12C536.44 38.47 538.69 40.2 543.2 40.2C545.25 40.16 547.26 39.69 549.08 38.81L551.78 43.62C548.82 45.32 545.44 46.25 541.98 46.31C534.22 46.28 528.25 41.83 528.25 34.15H528.26Z" fill="black"/>
<path d="M488.37 9.85999H479.23V18.5H488.37V9.85999Z" fill="black"/>
<path d="M204.92 71.18H216.08C222.56 71.18 228.08 73.42 228.08 80.91C228.08 88.4 222.52 91.2 216.08 91.2H212.83V101.29H204.92V71.18ZM215.57 84.9C218.73 84.9 220.39 83.51 220.39 80.9C220.39 78.29 218.73 77.47 215.57 77.47H212.83V84.9H215.57ZM220.07 83.9L229.84 101.35H221L214.74 89.18L220.07 83.9Z" fill="black"/>
<path d="M232.31 89.72C232.15 83.16 237.33 77.71 243.89 77.55C243.89 77.55 243.9 77.55 243.91 77.55H244.48C251.8 77.55 255.48 82.55 255.48 88.7C255.46 89.82 255.35 90.94 255.16 92.04H238.31V86.94H249.61L248.54 88.33C248.54 85.33 247.35 83.6 244.75 83.6C241.7 83.6 240.02 85.6 240.02 89.69C240.02 94.04 242.15 95.78 246.41 95.78C248.35 95.74 250.27 95.27 252 94.39L254.6 99.11C251.81 100.81 248.61 101.74 245.34 101.8C237.93 101.85 232.31 97.39 232.31 89.72Z" fill="black"/>
<path d="M259.47 108.43L261.74 102.77C263.15 103.42 264.68 103.76 266.23 103.77C269.05 103.77 269.98 102.57 269.98 99.42V84.34H261.18V78.11H278V99.11C278 104.76 275.59 109.95 266.84 109.95C264.3 110 261.78 109.48 259.47 108.43Z" fill="black"/>
<path d="M287.85 89.72C287.69 83.16 292.87 77.71 299.43 77.55C299.43 77.55 299.44 77.55 299.45 77.55H300C307.31 77.55 311 82.55 311 88.7C310.98 89.82 310.87 90.94 310.68 92.04H293.88V86.94H305.18L304.06 88.33C304.06 85.33 302.87 83.6 300.27 83.6C297.27 83.6 295.54 85.6 295.54 89.69C295.54 94.04 297.67 95.78 301.93 95.78C303.86 95.74 305.76 95.26 307.49 94.39L310.09 99.11C307.3 100.82 304.1 101.74 300.83 101.8C293.5 101.85 287.85 97.39 287.85 89.72Z" fill="black"/>
<path d="M316.29 69.05H324.29V86.38H324.47L331.47 78.11H340.09L324.26 95.64V101.29H316.26L316.29 69.05ZM326.2 91.47L330.71 86.56L340.62 101.29H332L326.2 91.47Z" fill="black"/>
<path d="M348.62 91.47V84.37H343.06V78.37L348.97 78.06L349.97 71.06H356.54V78.06H365.67V84.27H356.54V91.27C356.54 94.56 358.07 95.58 361.04 95.58C362.47 95.57 363.9 95.32 365.25 94.84L366.64 100.58C364.15 101.35 361.56 101.75 358.95 101.79C351.4 101.85 348.62 97.68 348.62 91.47Z" fill="black"/>
<path d="M371 98.33L374.31 93.42C377.08 95.08 380.24 95.97 383.47 96C385.47 96 386.34 95.45 386.34 94.61C386.34 93.5 385.13 93.32 381.26 92.48C374.87 91.1 372.55 88.68 372.55 85.07C372.55 80.54 376.86 77.57 383.55 77.57C387.21 77.65 390.78 78.77 393.82 80.81L390.3 85.54C388.03 84.2 385.45 83.46 382.81 83.41C381.33 83.41 380.39 83.87 380.39 84.7C380.39 85.7 381.6 85.81 385.21 86.7C392.16 88.27 394.21 90.36 394.21 94.2C394.21 98.55 390.09 101.89 382.35 101.89C378.31 101.77 374.38 100.54 371 98.33Z" fill="black"/>
<path d="M277.94 65.43H269.3V74.07H277.94V65.43Z" fill="black"/>
<path d="M420 76.15H431V79.39H424.7V103.88H431V107.13H420V76.15Z" fill="#FF0000"/>
<path d="M541.82 103.88H548.09V79.39H541.82V76.15H552.82V107.15H541.82V103.88Z" fill="#FF0000"/>
<path d="M491.69 78.14H483.05V86.78H491.69V78.14Z" fill="#FF0000"/>
<path d="M498.29 101.42V98.126C500.413 96.3644 502.283 94.7475 503.9 93.2755C505.541 91.8034 506.82 90.4521 507.737 89.2213C508.654 87.9906 509.113 86.8443 509.113 85.7825C509.113 84.6966 508.787 83.8882 508.135 83.3573C507.508 82.8022 506.639 82.5247 505.529 82.5247C504.66 82.5247 503.864 82.754 503.14 83.2125C502.416 83.671 501.728 84.1898 501.077 84.769L498 81.6922C499.231 80.4373 500.474 79.5082 501.728 78.9049C503.007 78.3016 504.54 78 506.325 78C507.966 78 509.402 78.3137 510.633 78.9411C511.864 79.5444 512.829 80.4132 513.529 81.5474C514.229 82.6575 514.579 83.9606 514.579 85.4568C514.579 86.7116 514.192 87.9906 513.42 89.2937C512.648 90.5968 511.647 91.8879 510.416 93.1669C509.209 94.4459 507.918 95.6766 506.543 96.8591C507.194 96.7867 507.906 96.7263 508.678 96.6781C509.451 96.6057 510.126 96.5695 510.705 96.5695H515.737V101.42H498.29Z" fill="#FF0000"/>
<path d="M530.13 101.42V88.4974C530.13 87.7252 530.154 86.8443 530.202 85.8549C530.274 84.8655 530.323 83.9968 530.347 83.2487H530.202C529.816 83.9002 529.394 84.5639 528.935 85.2396C528.501 85.9153 528.078 86.591 527.668 87.2666L524.736 91.719H538.31V96.0989H519.234V92.081L528.464 78.4344H535.523V101.42H530.13Z" fill="#FF0000"/>
<path d="M436 102.016V79H451.45V83.7375H441.657V87.8386H450V92.5761H441.657V97.2783H451.803V102.016H436Z" fill="#FF0000"/>
<path d="M464.765 102.44C463.303 102.44 462.042 102.228 460.982 101.804C459.921 101.379 459.037 100.767 458.33 99.9652C457.647 99.1638 457.128 98.1975 456.775 97.0661C456.421 95.9112 456.244 94.6031 456.244 93.1418V79H461.901V93.7428C461.901 94.5442 461.995 95.2277 462.184 95.7934C462.372 96.359 462.679 96.7951 463.103 97.1015C463.527 97.4079 464.081 97.5611 464.765 97.5611C465.448 97.5611 466.002 97.4079 466.426 97.1015C466.874 96.7951 467.192 96.359 467.381 95.7934C467.593 95.2277 467.699 94.5442 467.699 93.7428V79H473.144V93.1418C473.144 94.6031 472.979 95.9112 472.649 97.0661C472.319 98.1975 471.812 99.1638 471.129 99.9652C470.445 100.767 469.573 101.379 468.512 101.804C467.475 102.228 466.226 102.44 464.765 102.44Z" fill="#FF0000"/>
</svg>
