<?xml version="1.0" encoding="UTF-8"?><svg id="Layer_1" xmlns="http://www.w3.org/2000/svg" viewBox="0 0 552.82 130.24"><defs><style>.cls-1{fill:#ec2b2b;}.cls-2{fill:#fff;}</style></defs><polygon class="cls-1" points="149.13 55.92 149.13 18.65 93.2 18.65 74.56 37.28 55.92 18.65 0 18.65 0 55.92 18.65 74.56 0 93.2 0 130.24 55.92 130.24 74.56 111.59 93.2 130.24 149.13 130.24 149.13 93.2 130.48 74.56 149.13 55.92"/><polygon class="cls-2" points="113.31 108.04 93.2 87.92 73.09 108.04 22.2 108.04 22.2 76.03 42.3 55.92 22.2 35.81 22.2 3.55 73.09 3.55 93.2 23.66 113.31 3.55 164.21 3.55 164.21 35.81 144.1 55.92 164.21 76.03 164.21 108.04 113.31 108.04"/><path class="cls-1" d="m160.66,7.1v27.24l-16.56,16.56-5.07,5,5.07,5.1,16.56,16.5v27h-45.87l-16.57-16.57-5-5.07-5.07,5.07-16.53,16.56H25.74v-27l16.56-16.55,5-5.07-5-5-16.56-16.53V7.1h45.88l16.56,16.56,5.07,5,5-5,16.54-16.56h45.87m7.1-7.1h-55.92l-18.64,18.64L74.56,0H18.64v37.28l18.64,18.64-18.64,18.64v37h55.92l18.64-18.56,18.64,18.64h55.92v-37l-18.63-18.72,18.63-18.64V0Z"/><rect x="61.73" y="50.71" width="10.18" height="10.18"/><rect x="88.12" y="50.71" width="10.18" height="10.18"/><rect x="114.5" y="50.71" width="10.18" height="10.18"/><rect x="114.5" y="50.71" width="10.18" height="10.18"/><path d="m204.88,30.9c0-10.09,6.96-15.84,15.57-15.84,3.68.08,7.19,1.49,9.81,3.94l-4.61,4.91c-1.4-1.26-3.26-1.96-5.2-1.95-3.91,0-6.95,3.25-6.95,8.72s3.04,8.79,7.35,8.79c2.01-.08,3.89-.95,5.2-2.4l4.6,4.81c-2.66,2.94-6.59,4.57-10.68,4.45-7.95-.05-15.1-5.15-15.1-15.43Z"/><path d="m241.14,36.18v-16.49h-7.41v-6.21h15.79v23c-.18,1.73,1.16,3.26,2.98,3.43.23.02.46.02.69,0,1.2-.03,2.4-.25,3.52-.65l1.82,5.83c-2.44.8-5.01,1.21-7.6,1.21-6.46-.02-9.8-4.1-9.8-10.12Z"/><path d="m263.28,34.15c-.64-6.6,4.5-12.44,11.49-13.04,6.98-.6,13.16,4.26,13.8,10.86.07.73.07,1.46,0,2.19h0c.64,6.6-4.5,12.44-11.49,13.04-6.98.6-13.16-4.26-13.8-10.86-.07-.73-.07-1.46,0-2.19Zm16.66,0c0-3.52-1.17-5.76-4.02-5.76s-4.05,2.24-4.05,5.76,1.16,5.74,4.01,5.74,4.06-2.23,4.06-5.74Z"/><path d="m293.34,36.82v-14.26h8.46v13.25c0,2.6.59,3.7,2.79,3.7,1.43,0,2.4-.36,3.68-2v-14.95h8.46v23.16h-6.86l-.59-3h-.19c-1.92,2.3-4.85,3.63-7.95,3.61-5.53-.05-7.82-3.72-7.82-9.51Z"/><path d="m322.08,34.15c0-7.6,5.1-12.18,10.24-12.18,2.19-.07,4.31.8,5.73,2.38h.19l-.38-3.35v-7.5h8.46v32.22h-6.86l-.59-2.13h-.19c-1.69,1.61-3.95,2.57-6.35,2.69-6.24,0-10.26-4.64-10.26-12.13Zm15.79,4v-8.55c-.88-.75-2.04-1.14-3.23-1.1-2.06,0-3.93,1.48-3.93,5.55s1.43,5.75,3.83,5.75c1.35.07,2.63-.58,3.32-1.68v.03Z"/><path d="m352.37,47.94h23.51v5.83h-23.51v-5.83Z"/><path d="m381.77,15.61h8.52l5.36,13.39,2.6,6.77h.19c-.61-3.8-1.01-7.62-1.19-11.46v-8.7h8.02v30.11h-8.46l-5.36-13.48-2.53-6.72h-.2c.58,3.81.96,7.64,1.13,11.48v8.7h-8.04l-.04-30.09Z"/><path d="m410.87,39.15c0-5.2,4.3-7.88,15.48-8.43-.3-1.68-1.96-2.42-4.71-2.42-2.05,0-4.11.65-7.05,1.95l-2.94-5.18c3.56-1.97,7.59-3.02,11.71-3.07,6.96,0,11.47,3.25,11.47,10.85v12.87h-6.92l-.58-2.41h-.2c-2.37,1.81-5.28,2.86-8.33,3-5.1-.03-7.94-3.37-7.94-7.16Zm15.48-.74v-3c-5.98.19-7.41,1.48-7.41,3,0,1,.89,1.66,2.65,1.66,1.74-.05,3.41-.63,4.76-1.66Z"/><path d="m445.59,35.9v-7.1h-5.88v-5.95l6.26-.29,1.06-6.95h6.95v7h9.66v6.21h-9.66v7c0,3.29,1.62,4.31,4.75,4.31,1.52-.02,3.02-.27,4.45-.74l1.45,5.68c-2.65.77-5.4,1.17-8.17,1.21-7.96,0-10.88-4.17-10.88-10.38Z"/><path d="m479.95,28.77h-9.31v-6.21h17.74v23.16h-8.46l.03-16.95Z"/><path d="m497.6,22.56h8.46l3.17,10.15c.73,2.32,1.32,4.72,2.01,7.23h.19c.69-2.51,1.28-4.91,2.01-7.23l3.17-10.1h8.04l-8.53,23.16h-9.66l-8.88-23.21Z"/><path d="m528.26,34.15c-.15-6.56,5.34-11.99,12.27-12.15h.6c7.76,0,11.64,5,11.64,11.21-.02,1.12-.14,2.24-.34,3.34h-17.8v-5.18h12.01l-1.19,1.39c0-3-1.27-4.73-4.01-4.73-3.17,0-5,1.95-5,6.09,0,4.35,2.25,6.08,6.76,6.08,2.05-.04,4.06-.51,5.88-1.39l2.7,4.81c-2.96,1.7-6.34,2.63-9.8,2.69-7.76-.03-13.73-4.48-13.73-12.16Z"/><rect x="479.23" y="9.86" width="9.14" height="8.64"/><path d="m204.92,71.18h11.16c6.48,0,12,2.24,12,9.73s-5.56,10.29-12,10.29h-3.25v10.09h-7.91v-30.11Zm10.65,13.72c3.16,0,4.82-1.39,4.82-4s-1.66-3.43-4.82-3.43h-2.74v7.43h2.74Zm4.5-1l9.77,17.45h-8.84l-6.26-12.17,5.33-5.28Z"/><path d="m232.31,89.72c-.16-6.56,5.02-12.01,11.58-12.17,0,0,.01,0,.02,0h.57c7.32,0,11,5,11,11.15-.02,1.12-.13,2.24-.32,3.34h-16.85v-5.1h11.3l-1.07,1.39c0-3-1.19-4.73-3.79-4.73-3.05,0-4.73,2-4.73,6.09,0,4.35,2.13,6.09,6.39,6.09,1.94-.04,3.86-.51,5.59-1.39l2.6,4.72c-2.79,1.7-5.99,2.63-9.26,2.69-7.41.05-13.03-4.41-13.03-12.08Z"/><path d="m259.47,108.43l2.27-5.66c1.41.65,2.94.99,4.49,1,2.82,0,3.75-1.2,3.75-4.35v-15.08h-8.8v-6.23h16.82v21c0,5.65-2.41,10.84-11.16,10.84-2.54.05-5.06-.47-7.37-1.52Z"/><path d="m287.85,89.72c-.16-6.56,5.02-12.01,11.58-12.17,0,0,.01,0,.02,0h.55c7.31,0,11,5,11,11.15-.02,1.12-.13,2.24-.32,3.34h-16.8v-5.1h11.3l-1.12,1.39c0-3-1.19-4.73-3.79-4.73-3,0-4.73,2-4.73,6.09,0,4.35,2.13,6.09,6.39,6.09,1.93-.04,3.83-.52,5.56-1.39l2.6,4.72c-2.79,1.71-5.99,2.63-9.26,2.69-7.33.05-12.98-4.41-12.98-12.08Z"/><path d="m316.29,69.05h8v17.33h.18l7-8.27h8.62l-15.83,17.53v5.65h-8l.03-32.24Zm9.91,22.42l4.51-4.91,9.91,14.73h-8.62l-5.8-9.82Z"/><path d="m348.62,91.47v-7.1h-5.56v-6l5.91-.31,1-7h6.57v7h9.13v6.21h-9.13v7c0,3.29,1.53,4.31,4.5,4.31,1.43-.01,2.86-.26,4.21-.74l1.39,5.74c-2.49.77-5.08,1.17-7.69,1.21-7.55.06-10.33-4.11-10.33-10.32Z"/><path d="m371,98.33l3.31-4.91c2.77,1.66,5.93,2.55,9.16,2.58,2,0,2.87-.55,2.87-1.39,0-1.11-1.21-1.29-5.08-2.13-6.39-1.38-8.71-3.8-8.71-7.41,0-4.53,4.31-7.5,11-7.5,3.66.08,7.23,1.2,10.27,3.24l-3.52,4.73c-2.27-1.34-4.85-2.08-7.49-2.13-1.48,0-2.42.46-2.42,1.29,0,1,1.21,1.11,4.82,2,6.95,1.57,9,3.66,9,7.5,0,4.35-4.12,7.69-11.86,7.69-4.04-.12-7.97-1.35-11.35-3.56Z"/><rect x="269.3" y="65.43" width="8.64" height="8.64"/><path class="cls-1" d="m420,76.15h11v3.24h-6.3v24.49h6.3v3.25h-11v-30.98Z"/><path class="cls-1" d="m541.82,103.88h6.27v-24.49h-6.27v-3.24h11v31h-11v-3.27Z"/><rect class="cls-1" x="483.05" y="78.14" width="8.64" height="8.64"/><path class="cls-1" d="m498.26,98.24c6.62-5.43,11.06-9.25,11.06-12.51,0-2.18-1.39-3.38-3.81-3.38-1.84,0-3.34,1.11-4.64,2.29l-2.87-2.82c2.4-2.37,4.71-3.57,8.25-3.57,4.86,0,8.16,2.84,8.16,7.19,0,3.8-3.99,7.85-8.47,11.66,1.32-.13,3-.25,4.19-.25h5.47v4.39h-17.34v-3Z"/><path class="cls-1" d="m519.48,98.47l2.47-3.3c1.53,1.32,3.54,2.28,5.63,2.28,2.51,0,4.32-.96,4.32-2.69,0-1.98-1.57-3.21-6.95-3.21v-3.7c4.52,0,6.21-1.23,6.21-3.02,0-1.58-1.32-2.48-3.41-2.48-1.81,0-3.31.73-4.89,1.97l-2.7-3.18c2.24-1.79,4.85-2.89,7.83-2.89,5.04,0,8.53,2.23,8.53,6.19,0,2.33-1.65,3.99-4.42,5.02v.14c2.91.74,5.17,2.58,5.17,5.5,0,4.19-4.28,6.57-9.15,6.57-3.95,0-6.83-1.3-8.62-3.2Z"/><path class="cls-1" d="m435.18,78.24h6.27l3.94,10.45,1.91,5.25h.12c-.45-2.96-.73-5.94-.86-8.94v-6.77h5.93v23.41h-6.27l-3.93-10.48-1.92-5.22h-.14c.45,2.96.74,5.94.87,8.93v6.78h-5.91v-23.41Z"/><path class="cls-1" d="m470.74,101.65h6.61l-7.1-23.41h-7.49l-7.06,23.43h6.34l1.15-4.99h6.4l1.14,4.97Zm-6.44-9.76l.37-1.6c.51-2.23,1.12-5.04,1.62-7.42h.14c.5,2.35,1.19,5.19,1.69,7.42l.37,1.6h-4.2Z"/></svg>
