<svg width="320" height="64" viewBox="0 0 160 32" fill="none" xmlns="http://www.w3.org/2000/svg"><path fill-rule="evenodd" clip-rule="evenodd" d="M28.5 0h-19L0 16l9.5 16h19L38 16 28.5 0Zm-4.885 8.228h-9.23L9.771 16l4.614 7.772h9.23L28.229 16l-4.614-7.772Z" fill="#0078FB"></path><path d="M16.23 11.331h5.508l2.754 4.638-2.754 4.638H16.23l-2.753-4.638 2.753-4.638Z" fill="#737373"></path><path d="m21.742 20.61-2.719-4.638-2.789 4.638h5.508Z" fill="#464646"></path><path d="M21.742 11.331h-5.508l2.79 4.638 2.718-4.638Z" fill="#C7C7C7"></path><path d="M21.738 11.331 19.02 15.97h5.486l-2.768-4.638ZM19.02 15.97l-2.79-4.638-2.753 4.638h5.543Z" fill="#989898"></path><path d="m28.498 32 9.5-16h-9.77l-4.615 7.772L28.498 32Z" fill="#0058FB"></path><path d="m28.498 32 4.886-8.227h-9.77L28.497 32Z" fill="#0078FB"></path><path d="M33.404 8.23h-9.79L28.227 16l5.176-7.772Z" fill="#4CBAFB"></path><path d="M33.402 8.238 28.227 16h9.77l-4.595-7.76Z" fill="#9DDAFB"></path><path d="m19 32 4.615-8.227L28.5 32H19Z" fill="#0069E4"></path><path d="M0 16h9.77l-5.155 7.772h9.77L19.141 32H9.5l-4.885-8.228L0 16Z" fill="#0101D7"></path><path fill-rule="evenodd" clip-rule="evenodd" d="M9.77 16.002 4.634 8.229 0 16.002h9.77l4.615 7.772H4.633L9.77 16Z" fill="#0035FB"></path><path d="M23.612 8.228 19.138 0l-4.755 8.228h9.23Z" fill="#0027FB"></path><path d="m28.498 0-4.885 8.228h9.79L28.499 0Z" fill="#37A0FB"></path><path d="M102.328 16.845h.992l.497.83-.497.83h-.992l-.496-.83.496-.83Z" fill="#0101D7"></path><path d="M52 21.235V11.072h1.334v10.163H52Zm13.586-8.03c-.247-.268-.627-.511-1.141-.73a4.333 4.333 0 0 0-1.72-.33c-.81 0-1.407.148-1.792.444-.386.296-.578.701-.578 1.217 0 .362.098.649.296.859.198.21.499.381.904.515.415.134.939.272 1.571.415.731.153 1.364.339 1.897.558.534.22.943.516 1.23.888.287.363.43.85.43 1.46 0 .65-.168 1.183-.504 1.603-.336.42-.796.73-1.378.93-.573.201-1.22.302-1.942.302-1.64 0-3.068-.478-4.283-1.432l.638-1.088c.217.21.508.42.874.63.375.21.8.386 1.274.53.485.133.993.2 1.527.2.75 0 1.334-.129 1.749-.386.414-.268.622-.654.622-1.16 0-.382-.119-.687-.356-.916-.227-.23-.568-.42-1.022-.573a18.692 18.692 0 0 0-1.66-.458 12.322 12.322 0 0 1-1.793-.558c-.484-.21-.85-.482-1.097-.816-.237-.334-.355-.768-.355-1.303 0-.649.163-1.197.489-1.646.325-.449.775-.787 1.348-1.016.573-.23 1.22-.344 1.941-.344.702 0 1.34.105 1.912.315.583.21 1.097.491 1.541.845l-.622 1.044Zm10.676 8.102c-.741 0-1.413-.143-2.016-.43a5.03 5.03 0 0 1-1.57-1.16 5.545 5.545 0 0 1-1.008-1.66 5.291 5.291 0 0 1-.356-1.904c0-.677.124-1.321.37-1.932.257-.62.608-1.17 1.053-1.646a5.011 5.011 0 0 1 1.585-1.146A4.534 4.534 0 0 1 76.291 11c.742 0 1.413.148 2.016.444a4.94 4.94 0 0 1 1.556 1.188c.435.496.77 1.05 1.008 1.66a5.218 5.218 0 0 1-.015 3.822 5.313 5.313 0 0 1-1.052 1.647 4.945 4.945 0 0 1-1.571 1.13 4.666 4.666 0 0 1-1.971.416Zm-3.601-5.154c0 .516.083 1.017.251 1.504.178.477.425.901.742 1.274a3.53 3.53 0 0 0 1.14.887c.445.22.94.33 1.483.33.563 0 1.067-.115 1.511-.344.445-.23.82-.535 1.127-.916a3.95 3.95 0 0 0 .71-1.289c.169-.477.253-.959.253-1.446 0-.515-.09-1.011-.267-1.488a3.86 3.86 0 0 0-.741-1.274 3.286 3.286 0 0 0-1.141-.888 3.176 3.176 0 0 0-1.452-.33c-.564 0-1.067.115-1.512.344-.445.22-.825.52-1.141.902a4.35 4.35 0 0 0-.712 1.289c-.168.467-.251.95-.251 1.445Zm13.866-5.081 3.483 8.546 3.468-8.546h1.408l-4.269 10.163h-1.215L85.12 11.072h1.408Zm15.681 0h1.126l4.298 10.163h-1.517l-1.151-2.977-2.193-5.698-3.453 8.675h-1.423l4.313-10.163Zm10.384 10.163V11.072h1.334v9.018h5.869v1.145h-7.203Zm19.355-1.145v1.145h-7.143V11.072h7.009v1.145h-5.676v3.292h4.935v1.074h-4.935v3.507h5.81Zm6.72-6.642v7.787h-1.334V11.072h1.127l6.431 7.945v-7.931h1.334v10.15h-1.215l-6.343-7.788Zm21.215-1.231h-3.631v9.018h-1.334v-9.018h-3.631v-1.145h8.596v1.145Z" fill="#0A0B0F"></path></svg>