<svg width="401" height="150" viewBox="0 0 401 150" fill="none" xmlns="http://www.w3.org/2000/svg">
<g clip-path="url(#clip0_722_27064)">
<path d="M384.406 150H16.0305C7.19738 150 0 142.803 0 133.969V16.1941C0 7.19738 7.19738 0 16.0305 0H384.406C393.239 0 400.436 7.19738 400.436 16.0305V133.806C400.436 142.803 393.239 150 384.406 150Z" fill="white"/>
<path d="M117.939 99.7819C121.21 99.7819 123.501 100.6 124.973 102.236C126.445 103.871 127.099 106.816 127.099 110.905C127.099 114.995 126.281 117.939 124.646 119.575C123.01 121.21 120.065 122.028 115.812 122.028C114.995 122.028 112.05 121.865 109.924 121.701C108.451 121.538 107.143 120.393 107.143 118.757V95.5289C107.143 94.0567 108.288 93.0753 109.597 93.0753C111.069 93.0753 112.05 94.2203 112.05 95.5289V101.091C114.34 100.109 116.303 99.7819 117.939 99.7819ZM115.649 117.775C118.103 117.775 119.738 117.285 120.72 116.14C121.538 114.995 122.028 113.195 122.028 110.742C122.028 108.288 121.701 106.325 121.047 105.344C120.393 104.362 119.248 103.708 117.612 103.708C116.14 103.708 114.667 103.871 113.032 104.362L112.214 104.526V117.448C113.85 117.775 114.995 117.775 115.649 117.775Z" fill="#2600FF"/>
<path d="M133.152 100.273C134.297 100.273 135.115 100.927 135.442 102.072L139.858 117.285C140.022 117.939 141.167 117.939 141.33 117.285L145.747 102.072C146.074 101.091 147.056 100.273 148.037 100.273C149.673 100.273 150.818 101.745 150.327 103.381L142.803 129.062C142.475 130.044 141.658 130.698 140.513 130.698C138.877 130.698 137.732 129.062 138.222 127.59L140.022 122.028H139.04C137.241 122.028 135.605 120.883 135.115 119.084L130.534 103.217C130.371 101.745 131.516 100.273 133.152 100.273Z" fill="#2600FF"/>
<path d="M205.78 117.612L207.088 117.448V118.43C207.088 119.902 206.107 121.047 204.635 121.21C202.017 121.538 199.727 121.865 197.601 121.865C194.166 121.865 191.712 121.047 190.076 119.248C188.604 117.448 187.786 114.667 187.786 110.905C187.786 103.381 191.221 99.6183 197.928 99.6183C204.471 99.6183 207.743 102.89 207.743 109.433C207.579 111.396 205.943 112.704 204.144 112.704H193.021C193.021 114.504 193.511 115.812 194.329 116.63C195.147 117.448 196.619 117.939 198.91 117.939C201.2 117.939 203.49 117.775 205.78 117.612ZM202.999 109.269C202.999 107.143 202.672 105.671 201.854 104.853C201.2 104.035 199.891 103.544 198.092 103.544C196.292 103.544 195.147 104.035 194.329 104.853C193.511 105.671 193.184 107.143 193.021 109.269H202.999Z" fill="#2600FF"/>
<path d="M231.298 117.612V118.757C231.298 120.065 230.316 121.21 229.008 121.374C226.39 121.701 223.937 122.028 221.81 122.028C218.375 122.028 215.922 121.21 214.286 119.411C212.814 117.612 211.996 114.831 211.996 111.069C211.996 103.544 215.431 99.7819 222.137 99.7819C228.681 99.7819 231.952 103.053 231.952 109.597C231.788 111.559 230.153 112.868 228.353 112.868H217.23C217.23 114.667 217.721 115.976 218.539 116.794C219.357 117.612 220.829 118.103 223.119 118.103C223.773 118.103 231.298 117.612 231.298 117.612ZM227.045 109.269C227.045 107.143 226.718 105.671 225.9 104.853C225.245 104.035 223.937 103.544 222.137 103.544C220.338 103.544 219.193 104.035 218.375 104.853C217.557 105.671 217.23 107.143 217.067 109.269H227.045Z" fill="#2600FF"/>
<path d="M264.013 122.028C262.541 122.028 261.396 120.883 261.396 119.575V103.381C261.396 101.581 262.214 100.273 264.013 100.273C265.812 100.273 266.467 101.581 266.467 101.581C268.757 100.436 270.72 99.7819 272.519 99.7819C275.3 99.7819 277.263 100.436 278.408 101.908C281.189 100.436 284.133 99.7819 286.914 99.7819C289.695 99.7819 291.658 100.6 292.803 102.072C293.948 103.708 294.602 106.325 294.602 110.087V119.575C294.602 121.047 293.457 122.028 292.148 122.028C290.676 122.028 289.695 120.883 289.695 119.575V110.251C289.695 107.961 289.368 106.325 288.877 105.344C288.386 104.362 287.241 103.871 285.605 103.871C284.133 103.871 282.661 104.198 281.025 104.689L280.207 105.016C280.534 105.507 280.534 107.47 280.534 110.414V119.575C280.534 121.047 279.553 122.028 278.081 122.028C276.609 122.028 275.463 120.883 275.463 119.575V110.578C275.463 108.124 275.136 106.325 274.646 105.344C274.155 104.362 273.01 103.871 271.374 103.871C269.738 103.871 268.103 104.035 266.467 104.853V119.411C266.63 120.883 265.485 122.028 264.013 122.028Z" fill="#2600FF"/>
<path d="M165.54 96.0196C166.848 95.8561 167.993 96.3468 168.484 97.819C168.975 99.2912 173.882 116.957 173.882 116.957C174.209 117.775 175.027 117.775 175.354 116.957L180.425 97.6554C180.752 96.5104 181.734 95.856 182.879 95.856C184.515 95.856 185.66 97.4918 185.333 98.964L180.098 118.92C179.607 120.72 177.972 121.865 176.172 121.865H173.228C171.429 121.865 169.793 120.72 169.302 118.92C169.302 118.92 164.068 100.927 163.577 99.1276C163.086 97.4918 164.395 96.3468 165.54 96.0196Z" fill="#2600FF"/>
<path d="M167.012 69.8473C164.722 69.8473 162.923 71.6467 162.923 74.1003C162.923 75.4089 163.413 76.554 164.068 77.3719C164.886 78.1897 165.867 78.5169 166.848 78.5169H188.113C196.129 78.5169 202.017 72.7917 202.017 64.94C202.017 57.0883 195.965 50.8724 188.277 50.8724H175.191C171.756 50.8724 169.466 48.9095 169.466 45.9651C169.466 42.8571 171.756 40.8942 175.191 40.8942H196.292C198.909 40.8942 200.382 38.6041 200.382 36.4776C200.382 34.024 198.582 32.2246 196.292 32.2246H175.027C167.012 32.2246 161.123 38.1134 161.123 45.9651C161.123 53.6532 167.176 59.542 175.027 59.542H187.95C191.385 59.542 193.675 61.6685 193.675 64.94C193.675 68.048 191.549 70.0109 187.95 70.0109L167.012 69.8473Z" fill="#2600FF"/>
<path d="M250.436 36.3141C250.436 38.6041 248.31 40.5671 245.856 40.5671H238.004H233.097V73.9367C233.097 76.3904 230.971 78.5169 228.517 78.5169C226.063 78.5169 223.937 76.3904 223.937 73.9367V40.5671H219.847H211.178C208.724 40.5671 206.598 38.6041 206.598 36.3141C206.598 34.024 208.724 32.0611 211.178 32.0611H219.847H227.208H227.699H237.841H245.692C248.473 32.0611 250.436 34.024 250.436 36.3141Z" fill="#2600FF"/>
<path d="M296.892 74.4275C296.892 76.7176 294.766 78.6805 292.312 78.6805H284.297H276.609H275.791H270.229H269.411H267.285C267.285 78.6805 264.177 78.6805 263.032 78.1897C262.214 77.8626 261.559 77.699 260.905 77.2083C258.615 75.7361 257.143 73.1189 256.979 70.1745V69.8473V68.8659V67.0665V61.9956V59.2148C256.979 56.1069 258.451 53.4896 260.905 52.0174C261.559 51.5267 262.377 51.3631 263.032 51.036C264.177 50.5453 267.285 50.7088 267.285 50.7088H269.411H270.229H275.791H276.609H284.297H292.312C294.766 50.7088 296.892 52.6718 296.892 54.9618C296.892 57.2519 294.766 59.2148 292.312 59.2148H284.297H276.609H275.791H270.229H268.593C266.957 59.2148 265.649 59.7056 265.649 61.6685V67.7208C265.649 69.3566 267.285 70.1745 268.593 70.1745H270.229H275.791H276.609H284.297H292.312C294.766 70.1745 296.892 71.9738 296.892 74.4275ZM292.148 32.0611H284.297H276.609H275.791H270.229H261.559C259.106 32.0611 256.979 34.024 256.979 36.3141C256.979 38.6041 259.106 40.5671 261.559 40.5671H270.229H275.791H276.609H284.46H292.312C294.766 40.5671 296.892 38.6041 296.892 36.3141C296.728 34.024 294.766 32.0611 292.148 32.0611Z" fill="#2600FF"/>
<path d="M64.2857 36.6412V52.0174V58.5605V73.9367C64.2857 76.3904 62.1592 78.5169 59.7056 78.5169C57.2519 78.5169 55.1254 76.3904 55.1254 73.9367V58.5605V52.0174V36.6412C55.1254 34.1876 57.2519 32.0611 59.7056 32.0611C62.1592 32.0611 64.2857 34.1876 64.2857 36.6412Z" fill="#2600FF"/>
<path d="M79.6619 55.289L97.1647 40.2399C98.8004 38.7677 99.4547 36.3141 98.3097 34.3512C96.8375 31.7339 93.4024 31.2432 91.2759 33.0425L67.0665 53.9804C66.2486 54.6347 66.2486 55.7797 67.0665 56.434L91.1123 77.2083C92.7481 78.6805 95.3653 78.8441 97.0011 77.5355C99.2912 75.7361 99.2912 72.301 97.1647 70.5016L79.6619 55.289Z" fill="#2600FF"/>
<path d="M346.783 36.6412V70.0109C346.783 75.2454 344.329 78.6805 339.749 78.6805C334.842 78.6805 333.043 75.7361 331.08 72.9553L312.595 43.5114V74.1003C312.595 76.554 310.469 78.5169 308.015 78.5169C305.562 78.5169 303.435 76.554 303.435 73.9367V40.7306C303.435 35.8233 306.87 32.0611 311.287 32.0611C314.395 32.0611 317.176 34.3511 318.811 36.6412C318.975 36.9684 337.786 66.9029 337.786 66.9029V36.4776C337.786 34.8419 339.422 32.2246 342.366 32.2246C344.656 32.2246 346.783 34.1876 346.783 36.6412Z" fill="#2600FF"/>
<path d="M155.725 71.3195L140.022 38.277C138.55 34.3511 135.605 32.0611 131.025 32.0611C127.263 32.0611 123.991 34.024 122.192 38.277L106.652 70.6652C103.544 76.3904 108.779 78.5169 110.251 78.3533C112.05 78.3533 113.686 77.2083 114.504 75.4089C115.158 73.9367 118.593 66.7394 118.593 66.7394H131.025C133.479 66.7394 135.278 64.6129 135.278 62.1592C135.278 59.7056 133.315 57.5791 131.025 57.5791H122.846L130.044 42.8571V42.6936C130.207 42.2028 130.534 41.8757 130.698 41.7121C130.862 41.7121 131.189 41.7121 131.352 41.7121C131.679 41.8757 132.007 42.3664 132.17 42.8571L147.71 75.4089C148.364 76.7175 150.981 79.6619 154.744 77.3719C156.543 76.2268 157.034 73.6096 155.725 71.3195Z" fill="#2600FF"/>
<path d="M254.689 106.816V116.467C254.689 117.121 255.016 117.448 255.18 117.775C255.507 118.103 255.998 118.266 256.652 118.43V119.411C256.652 120.883 255.18 121.701 253.871 121.701C252.89 121.701 251.254 121.047 250.436 120.393C247.983 121.374 245.365 122.028 242.912 122.028C238.332 122.028 235.878 119.738 235.878 115.322C235.878 113.195 236.532 111.559 237.841 110.578C239.149 109.597 241.112 109.106 243.73 108.779L249.782 108.288V106.816C249.782 105.671 249.455 104.853 248.964 104.362C248.473 103.871 247.655 103.708 246.51 103.708C244.875 103.708 243.239 103.708 241.767 103.871C241.439 103.871 237.514 104.198 237.514 104.198V102.89C237.514 101.745 238.168 100.763 239.313 100.436C241.603 99.7819 244.384 99.7819 246.674 99.7819C249.455 99.7819 251.581 100.273 252.89 101.418C254.035 102.563 254.689 104.362 254.689 106.816ZM244.22 112.05C242.094 112.214 240.949 113.359 240.949 115.322C240.949 117.285 241.93 118.266 243.73 118.266C245.365 118.266 248.146 117.775 248.637 117.612C249.128 117.448 249.455 117.285 249.455 117.285V111.559L244.22 112.05Z" fill="#2600FF"/>
</g>
<defs>
<clipPath id="clip0_722_27064">
<rect width="400.436" height="150" fill="white"/>
</clipPath>
</defs>
</svg>
